<svg xmlns="http://www.w3.org/2000/svg" xml:space="preserve" viewBox="0 0 283.3 399"><defs><clipPath clipPathUnits="userSpaceOnUse" id="f"><path d="M191.2 273.8h2.7v-4h-2.7z"/></clipPath><clipPath clipPathUnits="userSpaceOnUse" id="a"><path d="M0 547h382.7V0H0z"/></clipPath><clipPath clipPathUnits="userSpaceOnUse" id="c"><path d="M0 547h382.7V0H0z"/></clipPath><clipPath clipPathUnits="userSpaceOnUse" id="d"><path d="M235 316.2h1.4v-4h-1.3z"/></clipPath><clipPath clipPathUnits="userSpaceOnUse" id="e"><path d="M235.3 294.5h1.7v-4h-1.7z"/></clipPath><clipPath clipPathUnits="userSpaceOnUse" id="b"><path d="M85.1 423.2h212.5V123.9H85z"/></clipPath><clipPath clipPathUnits="userSpaceOnUse" id="g"><path d="M117.8 252.8h2v-4h-2z"/></clipPath><clipPath clipPathUnits="userSpaceOnUse" id="h"><path d="M159.5 209.2h2v-2.7h-2z"/></clipPath><clipPath clipPathUnits="userSpaceOnUse" id="i"><path d="M0 547h382.7V0H0z"/></clipPath><clipPath clipPathUnits="userSpaceOnUse" id="j"><path d="M169.4 407h42.7v-14h-42.7z"/></clipPath><clipPath clipPathUnits="userSpaceOnUse" id="k"><path d="M111.1 347h160.3V201.1H111z"/></clipPath></defs><g clip-path="url(#a)" transform="matrix(1.33333 0 0 -1.33333 -113.5 564.2)"><g clip-path="url(#b)"><path d="M85.1 423.2V124h212.4v299.2zm122.7-7.5h1.5c1.5-.3 2-2 2.2-2.7 1.6 0 3.4-1.1 3.7-1.3-1-2.5 0-3.6.4-4.3.4-.6 1.3-1 2-1.3 1.3-.4 2.7.3 3 .5l.8.7c-.2-.8-.2-1.3-.2-1.7 0-.4.6-1 1-1.3 1.4-.5 1.8.7 1.9 1.2 0 .6-.3 1-.4 1.2 0 0 1.5.4 2.1-.2 1-.6.5-2.6.4-3 2.3 1 3.3-.6 3.6-1a49 49 0 0 1 2.5-2.3l.2-.2-.2-.2a49 49 0 0 1-2.5-2.4c-.3-.3-1.3-2-3.6-1 0-.4.5-2.3-.4-2.9-.6-.6-2-.3-2-.3 0 .3.4.7.3 1.2 0 .6-.5 1.8-2 1.2-.3-.3-.9-.9-.9-1.3l.2-1.6-.8.6c-.3.3-1.7 1-3 .5-.7-.2-1.6-.6-2-1.3-.4-.6-1.3-1.7-.4-4.3-.3-.1-2-1.3-3.7-1.2-.2-.7-.7-2.4-2.3-2.7h-3.7v.6-.7h-32c-1.6.3-2 2-2.3 2.7-1.6 0-3.4 1.1-3.7 1.3.9 2.5 0 3.7-.4 4.3-.4.6-1.4 1-2 1.3-1.3.4-2.7-.3-3-.5l-.8-.7c.2.8.1 1.3.1 1.7 0 .4-.6 1-.9 1.3-1.4.5-1.8-.7-2-1.2 0-.6.3-1 .5-1.2 0 0-1.5-.4-2.1.3-1 .6-.5 2.5-.5 2.9-2.2-1-3.2.6-3.5 1a49 49 0 0 1-2.5 2.3l-.3.2.2.2h.1a49 49 0 0 1 2.5 2.4c.3.3 1.3 2 3.5 1 0 .4-.4 2.3.5 2.9.6.6 2 .3 2 .3 0-.3-.4-.7-.3-1.2 0-.6.5-1.8 1.9-1.2.3.3 1 .9 1 1.3l-.2 1.6.8-.6c.3-.3 1.7-1 3-.5.6.2 1.6.6 2 1.3.4.6 1.3 1.7.4 4.3.3.1 2 1.3 3.7 1.2.2.7.7 2.4 2.2 2.7h32.1v.1h2.3m60.6-97.7a88.1 88.1 0 1 0-152.6-88 88.1 88.1 0 0 0 152.6 88" fill="#bfe8c1" fill-rule="evenodd"/></g><path d="M235 321h-.1a.8.8 0 0 1-.9-.7 1 1 0 0 1-.7-1.1 4 4 0 0 1-2-1.8 6.2 6.2 0 0 1-.9-3.4c0-1.2.3-2.2.8-2.9.5-.8 1-1.4 1.7-1.7 0-.4.4-.8.9-.8a.9.9 0 0 1 1-.3l.2-.2.2-.1a1 1 0 0 1 .2-.1h.6l.2.2.2.2.3-.1c.3 0 .6.1.8.4.4 0 .8.4.9.9.5.3 1.2.8 1.7 1.6a6.2 6.2 0 0 1 .7 3v.3c0 1.3-.3 2.2-.7 3a4 4 0 0 1-2 1.8v.2c0 .4-.4.8-.8.9 0 .4-.4.7-.8.7h-.2c0 .4-.3.7-.7.7-.3 0-.5-.3-.6-.7M159.7 214.6h-.1a.8.8 0 0 1-.9-.7 1 1 0 0 1-.7-1.1 4 4 0 0 1-2-1.8 6.2 6.2 0 0 1-.9-3.4c0-1.2.3-2.2.8-2.9.5-.8 1-1.4 1.7-1.7 0-.4.4-.8.9-.8a.9.9 0 0 1 1-.3l.2-.2.2-.1a1 1 0 0 1 .2-.1h.6a1.7 1.7 0 0 1 .2 0l.2.2.2.2a.9.9 0 0 1 1 .3c.5 0 1 .4 1 .8.5.4 1.2.9 1.7 1.7a6.2 6.2 0 0 1 .7 3v.3c0 1.3-.3 2.2-.7 3a4 4 0 0 1-2 1.8v.2c0 .4-.4.8-.8.9 0 .4-.4.7-.8.7h-.2c0 .4-.3.7-.7.7-.5 0-.7-.3-.8-.7M118.1 257.6h-.1a.8.8 0 0 1-.9-.7 1 1 0 0 1-.7-1.1 4 4 0 0 1-2-1.8 6.2 6.2 0 0 1-.9-3.4c0-1.2.3-2.2.8-2.9.5-.8 1-1.4 1.7-1.7 0-.4.4-.8.9-.8a.9.9 0 0 1 1-.3l.2-.2.2-.1a1 1 0 0 1 .2-.1h.6a1.6 1.6 0 0 1 .2 0l.2.2.2.2.3-.1c.3 0 .6.1.8.4.4 0 .8.4.9.9.5.3 1.2.8 1.7 1.6.4.7.7 1.7.7 3a4.7 4.7 0 0 1 0 .3c0 1.3-.3 2.2-.7 3a4 4 0 0 1-2 1.8 1 1 0 0 1-.8 1.1c0 .4-.4.7-.8.7h-.2c0 .4-.3.7-.7.7-.5 0-.7-.3-.8-.7M235.5 299.3h-.1a.8.8 0 0 1-.9-.7 1 1 0 0 1-.7-1.1 4 4 0 0 1-2-1.8 6.2 6.2 0 0 1-.9-3.4c0-1.2.3-2.2.8-2.9.5-.8 1-1.4 1.7-1.7 0-.4.4-.8.9-.8a.9.9 0 0 1 1-.3.9.9 0 0 1 .4-.3.9.9 0 0 1 .2-.1h.6l.2.2.2.2.3-.1c.3 0 .6.1.8.4.4 0 .8.4.9.9.5.3 1.2.8 1.7 1.6.4.7.7 1.7.7 3a4.7 4.7 0 0 1 0 .3c0 1.3-.3 2.2-.7 3a4 4 0 0 1-2 1.8 1 1 0 0 1-.8 1.1c0 .4-.4.7-.8.7h-.2c0 .4-.3.7-.7.7-.3 0-.5-.3-.6-.7M191.9 278.5h-.1a.8.8 0 0 1-.9-.7 1 1 0 0 1-.7-1.1 4 4 0 0 1-2-1.8 6.2 6.2 0 0 1-.9-3.4c0-1.2.3-2.2.8-2.9.5-.8 1-1.4 1.7-1.7 0-.4.4-.8.9-.8a.9.9 0 0 1 1-.3.9.9 0 0 1 .4-.3 1 1 0 0 1 .2-.1h.6a.9.9 0 0 1 .3.2l.2.2a.9.9 0 0 1 1 .3c.5 0 1 .4 1 .9.5.3 1.2.8 1.7 1.6.4.7.7 1.7.7 3a4.6 4.6 0 0 1 0 .3c0 1.3-.3 2.2-.7 3a4 4 0 0 1-2 1.8v.2c0 .4-.4.8-.8.9 0 .4-.4.7-.8.7h-.2c0 .4-.3.7-.7.7-.4 0-.6-.3-.7-.7" fill="#bfe8c1" fill-rule="evenodd"/></g><g clip-path="url(#c)" transform="matrix(1.33333 0 0 -1.33333 -113.5 564.2)"><g clip-path="url(#d)"><path d="m235.3 316.2-.2-.8.2-.2a6 6 0 0 0 1-2.7v-.3l.1.3c.1.6 0 1.3-.1 2-.2.5-.6 1-1 1.7" fill="#231f20" fill-rule="evenodd"/></g><g clip-path="url(#e)"><path d="M236 294.4c-.7-.3-.8-1.2-.5-1.8.4-.7.7-1.2.8-2h.2c0 1-.2 1.8-.7 2.5l-.1.3.6.2h.7l.2.8H236" fill="#231f20" fill-rule="evenodd"/></g><g clip-path="url(#f)"><path d="M193.8 273.8c0-.3-.2-.5-.2-.5-.2-.3-.6-.2-.7 0v.3h-.1l-.2-.4c-.3-.3-.7-.3-1 0l-.2.4h-.1l-.1-.7v-.2l.6-1.2c.2-.5.3-.9.3-1.5 0 0 0-.2.2-.2v.1c.2.7 0 1.5-.2 2.2.3 0 .5.2.6.5.3-.3.7-.4 1 0 .1.2.1.9.1 1.1v.1" fill="#231f20" fill-rule="evenodd"/></g><g clip-path="url(#g)"><path d="M118.6 252.8c-.3-.3-.8-.7-.8-1.4l.1-.5c.3-.2.6-.2.6-.4l-.5-1c0-.5.3-.7.5-.7.6 0 1 .6 1.3 1h-.8c-.4 0-.6 0-.6.2l.5 1v.4c-.3.2-.8.3-.8.5s.3.3.5.4v.5c.1 0 .1.1 0 0" fill="#231f20" fill-rule="evenodd"/></g><g clip-path="url(#h)"><path d="M159.5 207.7c0-.6.2-1.2.9-1.2s1 .5 1 1.3c0 .5-.4 1.5-1 1.5s-.9-1.2-.9-1.6m1.7 0c0-.3-.4-.4-.7-.4-.3 0-.7.2-.7.5s.2.6.6.6c.4 0 .7-.4.8-.7" fill="#231f20" fill-rule="evenodd"/></g></g><g clip-path="url(#i)" transform="matrix(1.33333 0 0 -1.33333 -113.5 564.2)"><g clip-path="url(#j)"><path d="m191.3 407-.3-.8.1-.4 1.2-8.4.1-2c0-.2 0-.3.1-.1 0 0 .2.3.2 1l-.1 2.7-.9 6 .6-.4s.1 0 0 0l-.8 2.4h-.2m-13.7 0c-.3-.6-.4-1.1-.4-1.8 0 .1-.4 1-1.3 1.5 0 0-.2 0-.2-.2v-.5l.4-.3h.1s.1.2.2.1c0 0 .5-.4.8-1.2 0-.1.1-.1.1 0l.1 1.2c0 .3.2.8.5.6l.2-.2s.2-.2.2 0v.5s-.4.6-.7.2m7.5 0-8.2-4c-.3 0-.4-.1-.4-.3v-.3c0-.1-.1-.2.2 0 0 0 8 3.8 8.1 4 .2 0 .3 0 .4.3l.1.3c.1 0 .1.2-.2 0m24.7-.2c-.1-.3-.2-.8 0-1l.5-.3c-1-1.3-3-2.2-3.5-2.6-.2 0-.2-.1 0-.1 0 0 1.6.4 3 1.7.6.5.6.5.8.9l.3-.3s.1-.1.1 0c.2.4 0 .6-.2.7 0 0 .2.6-.2 1.2 0 0-.4.4-.8-.2m.6-.2c.2-.2.2-.6.2-.6s-.3 0-.4.2c-.2 0-.3 0-.2.2.2.3.3.3.4.2m-15.6.2c-.2-.3-.3-.8 0-1l.5-.3c-1-1.3-1.7-1.5-2.4-1.9-.1 0-.1-.1 0-.1 0 0 .9.1 1.8.9.6.3.9 1 .9 1l.2-.3c.1 0 .2-.1.2 0 .1.4 0 .6-.2.7 0 0 .2.6-.2 1.2 0 0-.4.4-.8-.2m.6-.2c.2-.2.2-.5.2-.6l-.5.2c-.1 0-.2.1-.1.2.2.3.3.3.4.2m-6.7.5-.3-.8 1.2-8.9-.1-.5c-.2-.2-.8-.7-2-.1-.1 0-.5.5-.5.7.1.3 0 .6-.1.4-.2-.2-1-1.5-2.6-1.6-.2 0-1 0-1.8 1 0 0 .7.4.8.8.2.4.4 1.5-.5 2.4-.2 0-.6.4-1.1-.4-.5-.7-.4-1.9-.2-2.3l-2.2-.7c-.4-.1-1.7-.5-3.4-2-.2-.3-1.6-1.6-2.5-1-.1 0-.8.6.2 2.7v.2c.2 0 .4.3.6.5.1.1.3.5.1 1.5 0 .2-.3.6-1 1.1l.7 1 .3.9c0 .1 0 .2 0 0a475 475 0 0 1-1.3-1.6l-.6.5c-.1 0 0 .1 0 .1h.2v.2a9 9 0 0 0-1 .5s-.1.1-.1 0l-.1-.9v-.2c.2 0 1.1-.9 1.1-.9a5 5 0 0 1-.8-2c0-.3 0-1.2.8-1.1.1 0 .4 0 .7.2-.3-.6-1.1-2.7.5-3.6.2-.1 1-.3 2.4 1a9 9 0 0 0 2.5 1.6l3.2 1s.5-1 1.5-1.3c.3-.1 2-.4 3.2 1.1.1-.2.5-1 1.9-1 .3 0 1.1 0 1.6 1.4.1.6 0 1-.1 2.3l-.7 5.4.6-.5c0-.1.2 0 .1 0l-1 2.8-.2.1m-14.7-8.6-.1-.4a4 4 0 0 0-1.2-.6c-.4 0-.6.2-.6.6 0 .3.7 1.2.8 1.3 0 0 .8-.5 1-1m9 .5c.4-.5-.6-.9-.8-1l-.4.7c0 .4.1.6.3.8.3.2.8-.3 1-.5m-10.6 8.1c0-.1-.3-.8-.3-1.6 0-.2.2-.5.5-.5.1 0 .3.1.4.6v.2s0 .1 0 0c-.1-.3-.4-.5-.6-.1 0 0-.2.3 0 1v.5c.1.1 0 .2 0 0m33.4-.1c-.4-.6-.4-1.2-.5-2 0 .2-.4 1.2-1.4 1.8 0 0-.2 0-.2-.3v-.6l.4-.3h.2s0 .2.1 0c0 0 .6-.4.9-1.3 0-.1.1-.1.2 0l.1 1.4c0 .3.2 1 .6.6l.2-.1c0-.1.2-.3.2-.1v.6s-.4.7-.8.3m-4.1 0-4.1-2.7c-.1 0-.2 0-.2-.2v-.2c-.1 0-.1-.2.1 0l4 2.3c.2 0 .3.1.3.2l.1.3s.1.2-.1 0m-16-1.6c-.2-.2-.5-1-.4-2 0-.2.2-.6.5-.6.2 0 .4.1.6.7v.2s0 .2-.1 0c-.1-.3-.4-.6-.7-.1 0 0-.2.4 0 1.3l.1.4c.1.2 0 .3 0 0m16.7-1.1c-.1-.3-.4-1-.3-2 0-.3.1-.6.5-.6.1 0 .4 0 .5.6v.3s0 .2 0 0c-.2-.3-.5-.6-.8-.2 0 .1-.2.5 0 1.4l.2.4c0 .2 0 .3-.1 0m-29.3.3-.5-.6-.8.6h-.1l-.5-.7.8-.7h.1l.5.7.9-.6.5.7-.8.6zm36.8-1s-.3-.7-.3-1.4c0-.2.1-.5.4-.5 0 0 .2.1.3.5v.2s0 .1 0 0c0-.2-.3-.4-.5-.1 0 0-.2.4 0 1l.2.3c0 .2 0 .3 0 0m-28.8 0-.4-.7.8-.7.5.6.8-.6.6.7-.9.6-.5-.5-.8.6zm14.6 0-.4-.5-.7.5-.5-.5v-.1l.7-.6h.1l.4.6.7-.6.5.6-.8.6zm-7.6-1.8-3.7-1.6c-.2-.1-.3-.1-.3-.3l-.1-.3s0-.2.2 0l3.7 1.6.3.3.1.3s0 .2-.2 0m-8.6-.4L176 399c-.2-.1-.3-.1-.3-.3l-.1-.2c0-.1 0-.2.2 0l3.6 1.6.4.2.1.3s0 .2-.2 0m19.4 1.4-.2-.6v-.2l.3-.6 1-2v-.3c-2.7-2.9-7.9-4.7-8-4.8-.2 0-.2-.1.1 0 .4 0 2.8.4 3.5.7.4.2 2 1 3.2 2V395c0-2.2 2-1.9 2.6-1.8 1.6.4 3.6 2.6 3.8 3 .1.5.2 1 .1 1.3.5.2 1.4 1 1.4 1 0-1 .8-1.3 1-1.3 1.1-.2 1.7.7 2 1 .2-.5.6-.6 1-.6.9-.2 1 .5 1.1.6.3 1-.2 1.7-.3 1.8l-.2-.1-.1-.7.2-.5c0-.2 0-.3-.2-.3-.6 0-1 .3-1.2.4-.2.2 0 .5.1.8.1.3 0 .3-.2 0-.5-1.3-1.2-1.4-1.4-1.5-1.7-.5-1.5 1-1.5 1.3 0 .3-.2.2-.4 0-.7-.6-1.3-.9-1.6-1-.2.5-.6.8-.7 1-1.8 1.2-2-1.4-2-1.7.3-1.1 2.2-.5 2.4-.4.3 0 .2-.4 0-.6-.3-.6-.8-1-1.2-1.3-1.8-1.5-2.7-1.4-3-1.4-1.6 0-1.4 2-1.4 2.3.5.4 1 .9 1.2 1.4 0 .3.3 1 0 1.7a25 25 0 0 1-.8 1.3h.6s.1 0 0 .2l-1 1s-.1.1-.1 0m5.4-3.8s-.3-.2-1-.1c-.5 0-.5.2-.4.3 0 .1.8.5 1.4-.2m-7.6 3.1-1.3-1.7-.9.7h.5v.3l-1.3.5h-.1v-1l.3-.3 1-.8s-.4-.9-.5-1.6c0-.7 0-1.6 1-1.3.2 0 1.2.5 1.5 1.2 0 .3.3.8-.1 1.2-.2.3-1 .8-1 .8l.7 1 .3.8c0 .2 0 .3-.1.1m-.2-3.5c-.3-.3-1-.7-1.2-.7-.2 0-.7 0-.5.6l.6 1.1c.3-.1 1.5-.7 1.1-1m-6-1.1c0-.3-.4-1-.3-2 0-.3.2-.7.5-.7.2 0 .4.2.6.7v.3s0 .2-.1 0c-.1-.3-.4-.6-.7-.2 0 .1-.2.5 0 1.4l.1.4c.1.2 0 .3 0 0m19.8 0v-.8s-.4-.2-.7 0v.4l-.3-.6c-.1 0-.2-.4-1 0-.1 0-.3.1-.7-.2-.8-.7-1.3-.8-2.2-1.1-.1 0-.3-.3 0-.2.2 0 1.3 0 2 .7 0 .1.2.4.7.2.2 0 .7-.5 1.3.4.3-.2.8-.2.9 0l.1.7v.5m-38.7-.5-2.3-1-.3-.3v-.3s-.1-.2.2 0l2.1 1c.2 0 .3 0 .4.2l.1.3c0 .1 0 .3-.2.1m8.4-.3c0-.2-.4-1-.3-1.8 0-.2.2-.6.5-.6.2 0 .4.2.5.6v.3s0 .1 0 0c-.2-.3-.5-.5-.7-.2 0 .1-.3.5 0 1.3l.1.4c0 .1 0 .2-.1 0m6-1-.6-.7.9-.7.5.7-.8.7z" fill="#231f20" fill-rule="evenodd"/></g><g clip-path="url(#k)"><path d="m213.6 217.3-.9-1.2-.4.2c-.2.1-.3 0-.4-.2l-.3-.7-.1-.3s0-.1.1 0c.2.2.3.7.4.6.7-.4 1.4-.2 2 .2.4.3.8.8.7 1.3-.1.2-.3.4-.5.4-.3 0-.4-.1-.6-.3m.6-.4.1-.3c0-.2-.7-.4-1-.5h-.3l.5.7c.3.2.5.3.7.1m-5.8-1-.1-.2s0-.2 0 0c.2 0 .2.1.3.2l.8.2c.3 0 .7-.2.7-.3l-1.2-.7c-.1 0-.2 0-.2-.2h.3c.4.1.5 0 .9.2v.1c.4.2.5.4.6.5h.1c.2.1.3.4.3.6l-.4.1-1 .2c-.4 0-.9-.1-1.1-.7m-18-1.4c-.3 0-.7-.5-.9-1.1l.1-.6.9-.3a7.6 7.6 0 0 0-2-1.7c-.3-.2-.3-.4 0-.2 1.5.6 2.1 1.2 2.4 1.8h.3c.2-.1.1-.1.2.1l.1.3-.4.2v1c-.2.4-.4.6-.6.5m0-.6c.1 0 .3-.3.3-.6v-.3l-.3.1-.5.2c-.2 0 0 .3 0 .3l.2.3h.4m19.8.8-.5-1 .3-.7.3-1.2.5-2.8.1-.2.3-1.5v-.4c-.4-.3-.8-.4-1.3-.4-.7 0-1.3.2-1.5.4l-1 1.1v.1l-.2.2c-.4 0-1-1-1.3-1.4v-.1c-.3-.5-1-.8-1.8-.8-.5 0-.9 0-1.2.3.3.8.6 1.4.3 2.3-.1.3-.3.7-.7.7-.1 0-.3 0-.4-.2-.6-.5-1.7-1.8-1-3-.4-.2-.8-.3-1.3-.3-.7 0-1.3.2-1.6.7-.3.4-.4 1-.5 1.5a69 69 0 0 0-.6 4l-.2 1.6-.1.3-.1-.2-.1-.7v-1.2l.1-.2.2-1v-.6l.2-.8.2-.8v-.5l.1-.6v-.3c-.2-.6-1.2-1-2-1-.4 0-1 0-1.1.5-.1.2 0 .5.2 1l.6-.1.2.4.3.4v.2h-.2l-.5-.1c-1.4 0-2.7.5-4 1l-.8.3h-.2c-.4 0-1-.4-1.1-.8v-.1l-.2-.4h.2c.3.3.6.4 1 .4.5 0 1-.3 1.6-.4l.7-.3c-1-.6-3.3-1.2-4-1.2l-.1.2c0 .3-.2.7-.6 1.3-.2.3-.4.5-.7.5l-.4-.3c-.4-.3-.6-.8-.7-1.5 0-.3 0-.6.2-.8.2-.2.7-.4 1.4-.4h.4a4.3 4.3 0 0 0-4-2.6c-.6 0-1.3.1-1.9.3l-.2-.1.1-.2c1.2-.5 2.2-.7 3-.7 1.6 0 2.8 1 3.6 3.3l.1.2c1 0 2.2.5 3.4 1l.7.3a2.6 2.6 0 0 0 1.7.2c0-.5-.3-1.5.2-2.1.1-.2.4-.4.7-.4 1.3 0 2.5.7 2.6 1.5.4-1.1 1-1.7 2-1.7.7 0 1.5.2 2.4.7.6-.3 1.4-.5 2-.5.9 0 1.6.4 2 1.2.2-.4 1.4-.9 2.3-1 .2 0 .2 0 .3.2v.3l1.2-.2c.5 0 .9.1 1.2.3.5.3.7 1.6.5 2.4l-.3 2-.1.1-.4 1.7v.6l.1.4.2.2v.2l-.8 1.3m-7.2-7.4c0-.3-.5-.5-.8-.7-.3 0-.9.3-1 .5.2.3.7 1.1 1.2 1.1.2 0 .5-.3.6-.9m-15.6-.5v-.1c-.2 0-1.3 0-1.4.4.2.4.4.6.6.6.3 0 .6-.6.8-1m20.3-.3c-.3 0-1.2.2-1.3.5.2.4.4.7.6.7.3 0 .5-.4.7-1.2m4.7 7.7-.1-.8v-.5c0-.5.1-1 .3-1.4l.3-2.1c.3-1.2.6-2.7.7-4 0-.1.1-.1.1 0 .3 1.2 0 2.5-.2 3.8l-.5 2.2-.6 2.7v.2l-.1-.1m-12.5-1v-.3s0-.2 0 0l.3.2.8.2.7-.3-1.3-.7-.1-.2h.2c.4.1.6 0 .9.2v.1l.7.5c.2.1.3.4.3.6l-.4.1-.9.2c-.4 0-1-.1-1.2-.7m7.4.7c-.4 0-.8-.6-1-1.2l.1-.5 1-.3a7.6 7.6 0 0 0-2.1-1.8c-.3-.2-.3-.3.1-.2 1.4.6 2 1.3 2.4 1.9l.2-.1c.2 0 .2 0 .2.2l.1.3-.4.1v1.2c-.2.3-.4.4-.6.4m0-.6c.2-.1.3-.3.3-.7v-.1h-.2l-.6.3c-.1 0 0 .2 0 .2l.2.3.1.1h.3m-6.4-2.2c-.2-.1-.3-.4-.4-.6v-.2l.7-.3h.1l.4.6v.2l-.7.4h-.1m-22.5 1.2c-.7-.4-4-1.5-4.7-1.7v-.1l-.3-.6h.1l.4.2 4.3 1.5h.1l.2.6m4-2.5-.3-1v-.2c.4-.4.8-.9 1-1.7-1.2-1.4-3.9-2.3-7-2.3-3.5 0-6.7 1-8.6 2.6l-.3.2v-.4c1.5-2.4 5.6-3.3 8.6-3.3 3.4 0 6.3 1 7.3 2.6.8 1.5 0 2.5-.6 3.4h-.1m-6.3-.5-.4-.6v-.2l.7-.4h.2c0 .3.2.5.3.7.1 0 .1.1 0 .2-.1 0-.5.2-.6.4h-.2m19-7.4v-.1l-.2-.5h.1l.3.1 3.6 1.4.1.1.2.4v.1l-4-1.5m28.3 12.8c-.4 0-.8-.6-1-1.2l.1-.5 1-.3a7.7 7.7 0 0 0-2.1-1.8c-.3-.1-.2-.3.1-.2 1.4.7 2 1.3 2.4 1.9h.2c.2-.1.2-.1.3.1v.3l-.4.1v1.3c-.2.3-.4.5-.6.4m0-.6c.2 0 .3-.3.3-.6v-.3l-.2.1-.6.2v.3l.2.2.1.1h.3m-5.6-.5c-.4 0-.8-.5-1-1.1-.1-.3 0-.5.1-.5.2-.2.5-.3.9-.4a7.6 7.6 0 0 0-2-1.7c-.3-.2-.3-.4 0-.2 1.4.6 2.1 1.2 2.4 1.8h.3c.2-.1.1-.1.2.1v.3l-.3.2v1.1c-.2.3-.4.5-.6.4m0-.6c.1 0 .3-.3.3-.6v-.3l-.3.1-.5.2c-.2 0 0 .3 0 .3s0 .2.2.3h.1s.2.1.2 0m5.3-2.7-.1-.4.1-.8c-.3-.6-.9-1.9-.4-2.6a6.1 6.1 0 0 0-2.8-.4 3 3 0 0 0-2 1.3c-.2.2-.3.4-.5.4l-.2-.1c-.5-.4-1.3-1.1-.6-2.2-.4-.7-2.2-1.8-3-2.3l-.3-.1c-.2 0-.2-.1-.2-.2h.3c1.6.3 2.8.8 3.4 2.3.5-.1 1.3-.4 2-.4 0 0 .2 0 .2.4l1.5-.1c.7 0 2 .1 3.1.8h.3c.4 0 .9-.1 1.3-.3l.5-.1.3-.1h.2c.4.5.4 1.7 0 2.4-.5.8-2 2-2.7 2.4h-.3zm1.3-2.8c-.1-.2-.5-.5-.8-.5l-.9.1v.4c.2.4.6 1 .9 1 .3 0 .8-.7.8-1m.4.8a5 5 0 0 0 1.3-1.5v-.4h-.1l-.6.2-.8.3.2 1.3v.1zm-7-1.8.2-.4c-.3 0-1 .2-1.3.4 0 .2 0 .4.2.5.1.2.3.2.4.2.3 0 .4-.3.5-.7m-64.4 36.1c-.4 0-.8-.5-1-1.1l.1-.6.9-.3a7.7 7.7 0 0 0-2-1.7c-.3-.2-.3-.4.1-.2 1.4.6 2 1.2 2.3 1.8h.3c.2-.1.1-.1.2.1l.1.3-.4.2v1.1c-.2.3-.4.5-.6.4m0-.6c.2 0 .3-.3.3-.6v-.3l-.2.1-.6.2v.3l.2.3h.4m-1.3-4 .1-.7.6-.3-.4-.2v-.3l2 .6.2.4h-.1l-.9-.1a2 2 0 0 0-1 .5l.6.3c.3 0 .3-.3.4-.3l.3.4c0 .1-.3.4-.5.4-.3 0-1-.5-1.2-1m-3.8 1-4-1.5v-.1c0-.1 0-.4-.2-.5h.1l.3.1 3.6 1.4h.2v.5c.1 0 0 0 0 0m-16-3.6h-.2l-.1-.5.4.1 3.6 1.4h.1l.1.5-4-1.5m21 1.1-.1-.8v-.5c0-.6.2-1.2.4-1.7l.7-3.7.4-2.7c0-.2 0-.2 0 0 .2.4.3 1 .2 1.5l-.3 2.3-.6 3-.5 2.7h-.2m-6.5 0c-.2-.1-.6-1-.6-1 .3-.3.4-.5.4-.7l1.2-6.1c-1-.8-3.8-1.3-5.1 0-.3.2-.5.1-.6-.1-.3-.7-1.2-.9-1.9-1-.8 0-1.5.2-1.7 1-.5 2.2-.7 5-1.1 7.1 0 .3-.2.3-.3 0v-1l.7-5c0-1-2.5-2-4-2-1.8 0-3.2.9-2.2 3 0 .1 0 .2-.1 0-1.5-2.4 0-4 2-4 1 0 3.9.7 4.5 2 .1-1 .4-2 1.6-2.1 1 0 2.2 0 2.8 1.4.6-1.4 3.6-1.4 5-.4.5.3.7 1.5.6 2l-.8 4.9.3.6s.1.1 0 .2a3 3 0 0 0-.7 1.3c0 .1-.1 0-.1 0m-1.3-1.2zm0 0c-.6-.5-1.5-.9-2.3-.9-.5 0-.8.2-1 .3h-.2l-.5-1v-.2l.4.7h.1c.3-.2.8-.4 1.3-.3.7 0 2 .4 2.2 1.4m-2-2-.2-.5.3-.4c.5-.7.7-1.4.6-2.5v-.1c.2 0 .3.8.3 1.2 0 1-.4 1.7-.9 2.3 0 .1 0 .1-.1 0m7 1-.2-.5-.2-.4v-.4c0-.2 0-.4.2-.5l.5-.2c.3 0 .5.1.6.3.2.2.3.5.3.7v.4l-.2.3-.2.3-.4.1-.4-.2m.8-.7v-.4l-.5-.2c-.2 0-.5 0-.5.2 0 .3.3.6.5.6s.4 0 .5-.2m-16.7 0c-.3-.4-.7-1.2-.7-1.8l.1-.4.5-.1c.2 0 .5 0 .6-.2-.6-.6-1.2-.7-2-.6-.3.1-.4-.2 0-.3.6-.3 1.5-.4 2.1.2.3.3.6 1 .4 1.4-.2.2-.5.2-.9.3-.2 0-.3 0-.4.2v.4c.2 0 .3.1.3.2h.2l.2-.1c0-.1 0-.1.1 0l.3.6v.3h-.2l-.2.1-.4-.2m16.8-2.3c-.8 0-1.2-1.5-1.1-2.1 0-.6.5-1 .9-1s.7.3.9.8v-.4c0-1-1.7-2.5-2.6-2.8-1-.5-2.2-.5-3.3-.3-.1 0-.3-.2 0-.3 1-.3 2.6-.6 3.5-.2 1.4.4 2.8 2.2 2.8 4.1 0 1-.6 2.1-1.1 2.1zm.4-1.8s-.3-.3-.6-.3c-.2 0-.5.3-.5.5 0 .1.3.5.5.5.3 0 .7-.6.6-.7m-12.1-4.4c-.1-.1 0-.3 0-.4l.6-.3-.4-.3v-.3l2 .6.2.4s0 .1 0 0h-1a2 2 0 0 0-1 .5l.6.3c.3 0 .4-.4.4-.4l.3.5s-.3.4-.5.4c-.3 0-1-.6-1.2-1m2.8-1.1-2.6-1v-.1l-.2-.5.4.1 2.2.9h.1l.2.5m13.2 9.8v-.1l-.2-.5.4.1 3.6 1.4h.1l.1.5-4-1.4m1-4.6c0-.5.4-1 .9-1 .4 0 .7.4.9.8v-.3c0-1-1.8-2.5-2.6-2.9-1-.4-2.3-.5-3.5-.3-.1 0-.3-.2 0-.3a7 7 0 0 1 3.7-.3c1.4.5 2.8 2.3 2.9 4.3 0 1-.6 2.2-1.3 2.2-.7 0-1-1.5-1-2.2m1.6.4c-.1-.1-.4-.3-.7-.3l-.5.4c0 .2.3.6.5.6.4 0 .7-.6.7-.7m4.7 11.6-.2-.2v-.1l.2-1.8c0-.2 0-.2-.2-.3-.4-.3-.9-.7-.9-1.3 0-.4.4-.5 1-.4l4.1.5.2.3c-1.3 0-2.8-.3-4.1-.4a2 2 0 0 0-.8 0l-.1.2v.2l.8.7.2.2c.2-.6.8-.5 1.1 0 .3-.2.7-.4 1-.3.5 0 .9.2 1.2.3.3.2.6.5.5.9 0 .3-.3.7-.8.6-.4 0-1-.8-1.3-1.3-.2 0-.3.2-.4.3 0 .1-.1 0-.2 0-.1-.3-.3-.4-.5-.5-.3 0-.4.2-.5.4a19.4 19.4 0 0 0-.3 2m3.7-1.7c-.1-.2-.4-.3-.8-.4l-.8-.1.9.8c.3.1.6 0 .7-.3m14.9-2.5-4-1.5v-.1l-.2-.5.4.1 3.6 1.4v.1l.2.4v.1m-6-1.6-.1-.3v-.5c-.2-.3-.4-.3-.6-.2l-.1.5c0 .2 0 .3-.1.1l-.2-.2c0-.5-.3-.7-.7-.8-.2 0-.4.2-.2.7 0 .1 0 .2-.2 0-.4-.8-.1-1.2.3-1.2.3 0 .6.1.8.6.2-.3.5-.3.8-.3.3.1.4.3.5.6v1h-.1m5.4-1-.2-.3v-.5c-.2-.2-.4-.3-.6-.1l-.1.4c0 .2 0 .3-.1.1-.2-.1-.2 0-.2-.2 0-.5-.3-.7-.7-.8-.2 0-.4.2-.2.7 0 .1 0 .2-.2 0-.4-.8-.1-1.2.3-1.2.3 0 .6.1.8.6.2-.3.5-.3.7-.3.4.1.5.3.6.6v1h-.1m-17.9-1.1v-.2c-.1-.1 0-.2 0-.1l.3.3c.2.1.5.2.8.1l.7-.2-1.3-.7s-.2 0-.1-.2h.2c.4.1.5 0 .9.2l.6.5h.2l.2.6-.4.2-.9.2c-.5 0-1-.2-1.2-.7m12.2-.7-.2-1c.5-.5 1-1 1.2-1.8-.9-1-4.1-1.6-5.7-1.8h-.1c1 .7 1.4 1.6 1.5 2.7 0 .4-.1.9-.4 1.1l-.4.2c-.2 0-.4-.2-.6-.5-.5-1-.8-1.9-1-3-.6-.3-1.2-.4-1.9-.4h-.4c-1.4 0-2.4.7-3.2 1.9l-.3.1-.3-.1c-.7-.7-1.2-1.2-.8-2.4-.2-.9-3.6-2.7-4-2.9l-.2-.1h.2c2 .4 4 1 4.3 2.7.6-.3 1.2-.5 2-.6h.1l.2.1v.7h.1c.4-.3 1-.4 1.7-.4l.5-.1v-.1l.2-.3h1.5c.1-1.2 1.3-2.4 2-2.4 0 0 1.6 0 1 2.5l-.1.3v.2h-.1c.2 0 3.9.7 4.3 1.8.7 1.7-.1 2.8-1 3.6zm-3.8-2.3c0-.1.1-.2 0-.2a4 4 0 0 0-1.6-1.5h-.1c.1.5.4 1.5.9 2 0 .2.2.2.2.2.3 0 .6-.3.6-.5m-7.6-1 .3-.6.5-.7h-.3l-1.5.5v.3c.1.2.4.6.7.6.1 0 .2 0 .3-.2m8.1-3.2c0-.4-.3-.7-.7-.7-.5 0-1.3.6-1.6 1.3h.8c.4 0 1 0 1.5-.6m8.1 4.5v-1c.5-.4 1.4-1.7 1.3-1.8-1-2.7-4.2-3.4-6.3-2.7-.4.1-.6-.2-.2-.4 2.4-.7 5.8-1.2 6.7 2.3.4 1.7-.2 2.7-1.3 3.6h-.1m-4.6-3.3-.4-.7.1-.2.6-.3h.2l.4.6v.2l-.7.4h-.2m-2.7-4-4-1.4.1-.1-.2-.5.4.1 3.6 1.4.2.5m4.6-.2-4-1.5v-.1l-.2-.5h.1l.3.1 3.6 1.4.1.1.2.4-.1.1m14.5 12.4-.2-.3v-.5c-.1-.3-.4-.3-.5-.2-.2.1-.2.3-.2.5s0 .2-.1.1c-.2-.1-.1-.1-.1-.2-.1-.5-.3-.7-.7-.8-.3 0-.5.2-.3.7 0 .1 0 .2-.1 0-.4-.8-.2-1.2.2-1.2.3 0 .7 0 .9.6.1-.3.4-.3.7-.3.3.1.4.3.5.6v1h-.1m-1.5-5.5c-.3-.4-.7-.7-1.2-.8-.4 0-.7.1-.7.2l-.4.8h-.2l-.2-1c.3-.4.8-1.3.8-2.3-.5-1-1.9-1.6-3-1.6-1 0-2 .5-2 1.7 0 .5.1 1.1.4 1.6v.2h-.2a4 4 0 0 1-.7-2.3c0-1.6 1.3-2.3 2.7-2.2 1.4 0 2.8 1 3 2.3.1.4.2 1 .1 1.6.8 0 1.3.5 1.7 1.3.5-.5 1.5-.6 2.1-.6h.2c.1.3.3.8.2 1 0 .7-.5 2-1.1 2-.6 0-1.1-1.1-1.5-1.9m2.1-.2c-.7 0-1.4.3-1.6.5 0 .2.4.6.7.6.4 0 .9-.8 1-1m-7.2 1.7-.3-.6v-.2l.7-.3h.1l.4.6v.2l-.7.4h-.2m4-6.7v-.2l-.2-.5.4.1 3.1 1.4.1.1.2.4-.1.1-3.5-1.4m12.8 11.2-.2-.5h.4c.5.3 2 1 2.7 1.2l.1.1.2.4-.1.1-3-1.3m9 .9c-.3 0-.8-.6-1-1.2 0-.2 0-.4.2-.5l.9-.3a7.6 7.6 0 0 0-2-1.8c-.4-.2-.3-.3 0-.2 1.4.6 2.1 1.3 2.4 1.9l.3-.1.2.2v.3l-.3.1v.2l-.1 1c-.1.3-.3.4-.5.4m0-.6.3-.7v-.2h-.3l-.6.3v.2l.3.3v.1h.3m-4 .4-3-1.3-.2-.1-.1-.5.4.1 2.8 1.2.2.5m-6.8-3.3c-.3 0-.6-.1-.7-.3-.3-.2-1.2-.9-1.6-1.8-.2-.4-.5-1.2-.4-2 .1-.7.8-1 1.4-1l1.7-.1.3-.1a8.5 8.5 0 0 0-2.7-1.6c-2.8-.6-3.3.5-3.5.8-.6 1-.2 2.2-.1 2.7 0 .2 0 .4-.2 0a6 6 0 0 1-.5-2.5c.2-1.4 1.1-2.2 2.8-2.2 1.8 0 4.2 1.5 4.6 2.3l.2.7c0 .3-.2.7-.5.8H201c-1 0-1.7.4-1.7.8 0 .8.8 1.9 1.6 2.4.3.1.7.3 1.4-.6 0 0 .4.8.3 1l-.6.6-.5.1zm5-1.6c0-.7.3-1.4.4-2 .1-.3.3-.6.1-.8-.2-.5-.8-.7-1.3-.8-.4-.2-1-.2-1.4-.2-.2 0-.3 0-.4.2-.2.2-.3-.1-.3-.2 0-.4 0-.8.3-1 .2-.1.5-.1.8 0 .9 0 2.1.2 2.5 1.2v.5c.3-.6.6-1.3 1.1-1.7 1-.8 2.7-.4 3.8.2.3.2.5.3.8.2l1.6-.5c.6 0 .6 1 .5 1.4 0 .8-.3 1.4-1 2l-1.4 1c-.3.3-.8.6-1.1.5-.3-.1-.2-1-.2-1.2l.2-.4-.2-.4-.2-1v-.8c.1-.2-.2-.2-.4-.3-.6-.1-1.6-.2-2.1.3-1.1.9-1.4 2.8-1.8 4.2l-.3.7c-.2 0-.1-1 0-1.1m7.7-2.8.4-.5s.2-.4.1-.6c-.1-.1-1 .3-1.2.3-.2.1 0 .6 0 .8v.3l-.1.4.8-.7m-1.8.6s.8-.6.7-.8l-.5-.3h-.5c-.3 0-.7 0-.7.3l.3.8c.3.1.5.2.7 0m9.5 9-3.9-1.5v-.1l-.2-.5.4.1 3.3 1.4h.2l.1.5m0-2.9-.2-.5c0-.1 0-.1.1 0h.3l3.6 1.5h.1l.2.5h-.1l-4-1.5m-2-.5c0-1.1.3-2 .4-3 .2-1 .6-3.7 0-4.3-.2 0-.5-.8-.3-.9.2-.1.4-.3 1-.3.6-.1 1-.1 1.2-.3-1-1.1-3.6-2.6-5.2-1.2-.4.5-1 1.2-.2 3.2 0 .3-.1.3-.2.1-.3-.5-.8-1.6-.6-3 .4-1.6 2-2 3.3-1.8 1 .2 2 .7 3.3 2.2.5.5.1 1.2 0 1.3-.3.5-1.5.2-2 .6.2.5.4 1 .4 2.1.4-.8.9-1.8 2.4-1.7 1.5 0 2.5.6 3.4 1.7.1.2.4 1.1.2 1a4.7 4.7 0 0 0-2.7-1.7c-.8.4-1.2 1-1.2 1.8.1.3 1 .9 1.5 1 .5.2 1 .2 1.5-.2.1-.2.3 0 .2.2-.3.3-1 1-2 .7-.7-.2-1.2-.7-1.6-1.7-.4-1 0-1.5.2-2-.5.2-1 .6-1.3 1.1-.4.6-.6 1.4-1 3.5l-.4 2.5c0 .5-.3-.7-.3-.9m-2.3-1.4-.2-.5.3-.4c.5-.7.7-1.5.6-2.5v-.2c.2 0 .3.8.3 1.2 0 1-.4 1.7-.9 2.4h-.1m31.5 9c-.4-.1-.8-.7-1-1.2l.1-.6.9-.3a7.7 7.7 0 0 0-2-1.8c-.3-.1-.3-.3 0-.1 1.5.6 2.1 1.2 2.4 1.8h.3c.2-.1.1-.1.2.1l.1.3-.4.1v1.2c-.2.3-.4.5-.6.4m0-.6c.1 0 .3-.3.3-.6v-.3l-.3.1-.5.2c-.2 0 0 .3 0 .3s0 .2.2.3h.4m-1-3.8c-.1-.1 0-.3 0-.4l.6-.3-.4-.3v-.3c.3.2 1.4.4 2 .6l.2.4h-1a2 2 0 0 0-1 .4l.5.3c.4 0 .4-.3.5-.3l.3.5s-.3.4-.5.4c-.3 0-1-.6-1.3-1m-2.9 1c-.7-.4-3.2-1.3-3.9-1.6v-.1l-.2-.5c.2 0 .3 0 .4.2.5.2 3 1 3.6 1.4l.2.5m-16-3.4-.2-.5c0-.1 0-.1 0 0h.4l3.6 1.5.2.5-4-1.5m20.3.8v-.2l-.2-.8v-.5c0-.6.2-1.1.3-1.7l.9-3.6.3-2.8c0-.1.1-.1.2 0l.1 1.5-.3 2.4-.7 3a26.8 26.8 0 0 0-.5 2.7zm-6 0a8 8 0 0 1-.6-1l.4-.7.6-3.4.5-2.8c-.6-.4-1.7-.7-2.7-.7-.8 0-1.7 0-2.4.7l-.2.2-.3-.3c-.4-.7-1.2-.9-2-1h-.2c-.4 0-1.3.2-1.5 1.1l-.6 3.8-.5 3.3-.1.2-.1-.2v-1l.3-2.8.4-2.3c-.1-1-2.7-2-4.2-2-1 0-1.9.4-2.2 1-.4.5-.3 1.2 0 2v.2-.1c-.7-1.1-.8-2.1-.4-2.9.4-.7 1.3-1.1 2.4-1.1 1 0 3.8.6 4.4 2l.1.1.1-.1c.1-1 .4-2.1 1.6-2.2h.4c.7 0 1.8.1 2.4 1.4h.1c.3-.6 1.2-1 2.5-1 .9 0 1.9.2 2.6.6.4.3.6 1.5.5 2l-.5 2.8-.3 2 .2.4.1.2v.3a3 3 0 0 0-.7 1.3m-1.3-1.5zm0 0c-.6-.6-1.5-1-2.3-1-.5 0-.8.2-1 .4h-.2l-.5-1.1v-.2l.4.7h.1c.3-.2.8-.3 1.3-.3.7 0 2 .5 2.2 1.4m-2-2-.1-.6.3-.4c.4-.7.7-1.4.6-2.5v-.1c.2 0 .3.7.3 1.1 0 1-.4 1.8-.9 2.4m6.6 1.4a1 1 0 0 1-.4-.2l-.3-.4-.1-.4v-.4l.1-.5.5-.2c.4 0 .6.2.7.4.2.1.2.4.2.6v.3l-.1.4-.2.3-.4.1m.3-.8.2-.4a.8.8 0 0 0-.6-.3c-.2 0-.5 0-.5.3 0 .2.3.5.5.6.2 0 .3 0 .4-.2m-16 0c-.3-.3-.7-1.1-.7-1.6 0-.2 0-.4.2-.5l.4-.1c.2 0 .5 0 .6-.2.1 0 .1 0 0 0-.5-.6-1.2-.7-2-.5-.3 0-.4-.3 0-.4.6-.3 1.6-.4 2.1.2.3.3.7 1 .4 1.4-.1.2-.5.2-.9.3-.1 0-.3 0-.4.2l.1.4.3.2h.2v-.1c.2-.1.2-.1.2 0l.3.6v.3h-.2l-.1.2c-.2 0-.3-.2-.4-.3m15-4.5c0-.6.5-1 1-1 .3 0 .7.4.9.8v-.3c0-1-1.8-2.6-2.7-3-1-.4-2.3-.4-3.4-.3-.1 0-.3-.1-.1-.2a7 7 0 0 1 3.7-.3c1.4.4 2.9 2.3 3 4.2 0 1-.7 2.2-1.3 2.2-.7 0-1.1-1.5-1.1-2.1m1.6.4c0-.2-.3-.3-.6-.3-.2 0-.5.3-.5.4 0 .1.2.6.5.5.3 0 .7-.5.6-.6m-11.5-4.3.1-.5.6-.3-.4-.2-.1-.4 2 .6.2.4s0 .1 0 0h-.9a2 2 0 0 0-1 .5l.5.3c.4 0 .4-.4.5-.4l.3.5c0 .1-.3.4-.5.4-.3 0-1-.6-1.3-1m2.7-1.2-2.3-.8-.2-.6.4.1 1.9.7v.1l.3.5h-.1m-93 34.2c-.3 0-.7-.5-.9-1.1l.1-.5c.2-.2.5-.3.9-.4a7.6 7.6 0 0 0-2-1.7c-.3-.2-.3-.4 0-.2 1.5.6 2.1 1.2 2.4 1.8h.3c.2-.1.1-.1.2.1l.1.3-.4.2v1.1c-.2.3-.4.5-.6.4m0-.6c.1 0 .3-.3.3-.6v-.3l-.2.1-.6.2c-.2 0 0 .3 0 .3l.2.3h.4m-11 .4c-.4 0-.8-.6-1-1.2l.1-.5.9-.3a7.6 7.6 0 0 0-2-1.8c-.3-.2-.3-.3.1-.2 1.4.6 2 1.3 2.3 1.9l.3-.1c.2 0 .1 0 .2.2l.1.3-.4.1v1.1c-.2.4-.4.5-.6.5m0-.6c.2-.1.3-.3.3-.7v-.2h-.2l-.6.3c-.1 0 0 .2 0 .2l.2.3.1.1h.3m-9.5-1.1-.1-.1-.2-.5h.1l.3.1 3.2 1.3.2.5a198 198 0 0 0-3.5-1.3m13.3.2-.4-.7-.7.5h-.2l-.5-.7.1-.2.8-.4h.1l.4.7.8-.5h.1l.4.7v.2l-.7.4h-.2m-11.8-1.6-.4-.7v-.3l.7-.3h.2l.3.6c.1.1.1.2 0 .2l-.6.4h-.2m11.2-1.6c-.2-.4-.3-1-.3-1.5 0-1.2 1.6-1.8 2-.3l.4-.9c-.1-.4-.5-.6-.8-.8-.3-.2-1-.2-1.3 0-.4 0-.8.3-1.2.5-.3 0-.5-.1-.6-.3l-1.6-.7c-.2.3-.8 2.3-1.6 1.8-.4-.2-.6-.8-.8-1.3-.3-1.4.7-1.7 2-1.5-1.3-2.7-4-3-5.9-2.4-.3 0-.4-.2-.2-.3 3.3-1 5.5-.8 6.6 2.8.3.2.9.3 1.5.9.4.2.4.2.8 0 .7-.4 1.6-1 2.5-.5.5.3.6.8.8 1.4.3 1.2 0 2.5-1 3.4-.5.5-1 .3-1.3-.3m1.5-1.2c-.5-.7-1.3-.3-1.4.1.2.9 1 .7 1.4-.1m-5.6-2.9c-.2 0-1.2.2-1.3.5.3.7.8.8 1.3-.5m12 4.7v-.1l-.2-.9v.1c.3-.4 1-1.3 1.1-1.8-.1-.3-1.2-.8-1.8-.9-.1.9-.7 2-1.2 2s-1.2-1.5-1.1-2c0-1 .9-1.1 1.8-1-.8-2.5-3-3.4-5.9-3-.2 0-.4-.2-.1-.3 3.2-1 5.7-.4 6.6 3.4.5.1 1.1.3 1.5.6.4.3.7 1.3.6 1.8-.1.9-.8 1.8-1.3 2.2zm-1.5-3.9c-.7 0-1.2.2-1.2.4 0 .1.3.5.5.5.3 0 .7-.7.7-.9m-9.5 3.5a7 7 0 0 1-.3-.7v-.2l.7-.3h.1l.4.6v.2l-.7.4h-.2m-5.7-.2-.2-.9a6 6 0 0 0 1-2.5c-.5-1-1.7-1.6-2.8-1.6-1 0-2 .5-2 1.6 0 .5.2 1 .4 1.6 0 0 .1.1 0 .1h-.1c-.5-.6-.7-1.5-.7-2.2 0-1.4 1.2-2.1 2.5-2 1.2 0 2.3.7 2.8 1.7.2.4.3 1 .3 1.4 0 1-.4 2-1 2.8h-.2m7.8-6.4h-.1l-.2-.6h.1l.3.2 3.6 1.3.1.1.2.5h-.1l-4-1.5m9.7-.4c0-.3-.3-.5-.4-.8l-.7.5h-.2a12 12 0 0 1-.4-.7v-.2l.8-.4h.1l.4.7.8-.4h.1c.2.1.3.5.4.6.1.1 0 .2 0 .2l-.7.5h-.2m9.9 12.1c-.4 0-.8-.6-1-1.2l.1-.5.9-.3a7.6 7.6 0 0 0-2-1.8c-.3-.1-.3-.3 0-.2 1.5.7 2.1 1.3 2.4 1.9h.3c.2-.1.1-.1.2.1l.1.3-.4.1v1.2c-.2.3-.4.5-.6.4m0-.6c.1 0 .3-.3.3-.6v-.3h-.2l-.6.3c-.2 0 0 .3 0 .3l.2.2.1.1h.3m-6.8-3.2v-.3c-.1 0 0-.2 0 0l.2.2.8.2.7-.2-1.2-.7-.2-.2.3-.1.9.3c.4.2.5.5.6.5h.1l.3.6-.4.1-1 .3c-.4 0-.9-.2-1.1-.7m6.2-1c-.2-.4 0-1 0-1.2a3 3 0 0 1-.5-2.1l.1-.2v-.1c-.5-.2-1.2-.3-1.7-.3h-.1c-1 0-1.5.3-2 .9l-.2.2-.4.4h-.2a4.2 4.2 0 0 1-1.6-1.9c-.4-.9-.4-1.8-.3-3l.5-2.1.6-3.6.1-.2v.2c.2.4.2.9.1 1.3l-.2.9-.3 1.9-.2.7c0 .7-.2 1.4-.3 2v.1c-.1.5-.2 1 .4 1.4l.3.2c.5-.6 1.4-.7 2-.7h.2c.2 0 .2.2.3.4v.1l1.3-.1c1 0 1.6.3 2.1.5l.6.1h1.3l.5-.2.5-.2h.2l.2.1c.6 1.7-.2 2.6-1 3.2l-.9.7-.4.3-.8.4-.2-.1m1.4-2.8-.8-.5c-.3 0-.8.2-1 .5.2.5.6 1 1 1 .3 0 .6-.4.8-1m.3.9c.2-.2 1.5-1.2 1.5-1.7v-.2l-1.7.5c0 .2.2.8.1 1.4zm-6.2-1.7.2-.5c-.4 0-1.4.3-1.5.5l.8.6c.2 0 .3-.2.5-.6m26.6 10-.1-.2c-.1-.1 0-.2 0-.1l.3.2c.2.2.5.2.7.2l.7-.2-1.2-.7-.2-.2h.3c.4 0 .5 0 .9.2s.5.5.6.5h.1l.3.6-.4.1c-.3.1-.6.3-1 .3s-.8-.2-1.1-.7m4.6.2-.8-1.2-.5.2s-.2 0-.3-.2l-.3-.7-.1-.3s0-.1.1 0c.2.2.3.7.4.6.6-.3 1.4-.2 2 .2.4.3.7.8.6 1.3 0 .2-.2.4-.5.4l-.6-.3m.7-.4.1-.3c0-.2-.7-.4-1-.5h-.3l.5.7c.3.2.5.3.7 0m-8.5-2.2-.1-.1-.2-.5h.1l.3.1 2.8 1.1v.1l.2.4v.1l-3.1-1.2m4.5.8c-.1-.3-.5-.8-.4-.9.1-.2.3-.4.3-.7.2-1.9.4-4.1-.4-5.8a16 16 0 0 1-5.3 5.5c-.2 0-.2 0-.2-.2 0-.4 0-1.5.2-1.6.2-.2.9-.6 1.5-.6l.1.3c1.1-.9 2.7-2.8 3.4-4-.3-.5-1-1.2-1.3-1.5a3 3 0 0 1-.7-.2l-.2-.9c0-.1 0-.1.2 0l2.8.4c.2 0 .3.5.3.8 0 .4-.4 1.2-.5 1.5.8 1.8 1 4 .7 5.9 0 .2.3.4.4.6v.2c-.2.2-.5.4-.7 1.1v.1h-.2m-.6-8.4.4-.8-1.3-.2 1 1zm2.8 7.5-.2-.4.1-.2.8-6.1c0-.7.1-1.5.5-2 .6-.8 2-.3 2.2 0 .3.2.4 1.1.4 1.6 0 .7-.2 1.4-.7 1.9-.1 0-.2.2-.3-.1v-.6c-.1-.2-.1-.2 0-.4.4-.5.6-1 .7-1.4-.4-.2-1.2-.4-1.6-.2-.6.1-.7.8-.8 1.5l-.8 6.4-.1.3h-.1m-5.2-1.4.1-.5.5-.3-.4-.2v-.5l2 .6.2.4v.1l-1-.1a2 2 0 0 0-1 .5l.6.3c.3 0 .4-.4.5-.4l.2.5c0 .1-.2.4-.4.4-.4 0-1-.6-1.3-1m-13.5-.4-.4-.7-.7.4h-.2l-.5-.7.1-.2.8-.4h.1l.4.7.8-.4h.1l.4.6v.2l-.7.5h-.2m6 0-3.4-1.4-.1-.1-.2-.5h.1l.3.1 3.2 1.3.2.5m1.5-.4-.4-.6v-.2l.7-.4h.1l.4.7v.1l-.7.4h-.1m-8-2.2-.1-.6c-.1-.1-.1-.1 0-.2-.5-1-.6-2-.5-2.4.2-.5.6-.7 1.1-.7.5 0 .9.2 1.2.5.2.3.5 1 .5 1.5-.1.8-.6 1.4-1.8 2h-.3v-.1m0-1c.6-.3 1.2-.6 1.5-1l.1-.4c-.5-.5-1.5-.5-1.7-.2-.3.3-.2.7.1 1.7zm6.8-.6v-.1h.2c.3.3.6.4 1 .4.7 0 1.4-.3 1.9-.5h.2v-.1c-.5-.3-2.1-1-3.4-1-.7 0-1.1.1-1.4.6l-.1.2c-.4-.9-.2-1.4.5-1.8-.4-1-1.5-2.8-4.1-2.8-.7 0-1.4 0-2.2.3h-.1v-.2c1.3-.5 2.4-.8 3.2-.8 1.8 0 2.9 1.1 3.5 3.4h.3c1.1 0 2.3.5 3.4 1l1.3.5c.3.2.7.2 1 .2l1.1-.1.4.8v.1h-.6c-1.8 0-2.8.5-3.6 1l-1.1.3c-.6 0-1.1-.5-1.4-1.4m-7.4-3.5h-.1l-.2-.5c0-.1 0-.1.1 0h.3l2.8 1.2h.1l.1.5c-.8-.2-2.5-1-3.1-1.2m8.4-1v-.1l-.2-.5c.1 0 .3 0 .4.2l3.5 1.3.2.1v.5l-3.9-1.5m13.7.6-.4-.7v-.2l.7-.3h.1l.4.6v.2l-.7.4h-.1m-1.8-4.8v-.1l-.2-.5.4.1 3.6 1.4.1.1.1.4v.1l-4-1.5m3.8 11.4v-.1l-.2-.5.4.2 3.6 1.3v.1l.2.5-4-1.5m1.1-5.1c.2-1 1.4-1.4 2-.3 0-1-1.1-2.2-2.2-2.7a6.3 6.3 0 0 0-4-.4c-.1 0-.2-.2 0-.3 3-1 5.7-.4 6.4 2.4.2 1.1.1 2.5-.8 3.3-.8.6-1.5-1-1.4-2m1.6.4c-.5-.7-1-.3-1.2 0 .4 1.2.9.8 1.2 0m16 8.7v-.1l-.2-.5.4.1 3.1 1.3.1.1.1.5-3.5-1.4M194 256v-.1l-.2-.5.4.2 3.1 1.2.1.1.1.4v.1L194 256m7 0-.2-1.2.7-3.6.6-3.4c0-.3-.4-.5-.6-.5h-.2a2 2 0 0 0-.7.6c-.6.5-.9 1.4-1 2.2l-.7 4.8v.3c0 .3-.1.4-.2.4l-.1-.3v-1l.7-4.7c-.6-1.1-2.3-1.6-3.8-1.7h-.2a4 4 0 0 0-1.5.2c-.6.3-1 .6-1.2 1-.1.4 0 1 .3 1.6v.1h-.2c-.5-1.1-.7-2-.3-2.7.2-.5.8-.9 1.8-1l1-.2c1.5 0 3.4.6 4.2 2v.1l.1-.3c0-.4.2-1 .5-1.3.3-.7.9-1.2 1.4-1.2.3 0 .5.1.6.3.4.5.5 1.3.4 1.9.5-.6 1.3-.8 1.9-.8 1 0 2 .4 2.6.7l.5.2h.2c.3-.3.8-.5 1.2-.5h.1c1 0 1.1 1.3 1.2 2 .1.7-.2 1.9-.7 2.5-.3.3-.5.5-.8.5h-.2l-.6-.6-.4-1.6c.1-.5.6-1 1-1 .6 0 1 .4 1 1l.1.1c.4-.6.4-1 .2-1.5-.1-.3-.4-.4-.8-.4-.3 0-.5 0-.7.2l-.8.1h-.2l-.6-.3-.6-.2-1.4-.2h-.6c-.8.1-1.4.7-1.8 1.6-.5 1.3-.7 2.7-.9 4.2a23.8 23.8 0 0 1-.3 1.6m8.3-4.8c0-.2-.3-.4-.6-.4s-.7.2-.8.6c0 .4.3.5.5.5.4 0 .7-.3.9-.7m-.7 4.6-.4-.7-.7.5h-.2l-.5-.7.1-.2.7-.4h.2l.4.7.7-.5h.2l.4.7v.2l-.7.4h-.2m-12.5-1.5c-.3-.4-.7-1.1-.7-1.7l.1-.4.5-.2h.6v-.2c-.6-.5-1.2-.7-2-.5-.3 0-.4-.2 0-.3.6-.3 1.5-.4 2 .2.4.2.7 1 .5 1.4-.2.2-.5.2-.9.3l-.4.1v.4l.3.3h.2l.1-.1c.1-.1.2-.1.2 0l.3.6v.2l-.2.1-.2.1-.4-.3m7.6-.8-.1-.2s0-.2 0 0l.3.2c.3.2.5.2.8.2l.7-.2-1.2-.7-.2-.2c0-.1.1-.1.2 0 .4 0 .6 0 1 .2s.5.5.6.5h.1l.3.6-.4.1-1 .3c-.4 0-.9-.2-1.1-.8m2.5-6.4-.3-.6c-.1-.1-.1-.2 0-.2l.6-.3h.2l.3.6c.1 0 .1.1 0 .2l-.6.4h-.2m-5.4-2-.1-.1-.2-.5h.1l.3.1 2.8 1.1.1.1.1.5-3.1-1.2m13.3 7.1a7 7 0 0 1-.4-.6v-.2l.7-.3h.1l.4.6v.2l-.7.4h-.1m4.7-2.1c-.2-.5-.7-.7-1.1-.8-.4 0-.7.1-.7.2l-.4.7c0 .1-.1 0-.1 0l-.3-.8c.3-.5.8-1.4.8-2.3-.5-1-1.8-1.6-3-1.6-1 0-2 .5-2 1.6 0 .6.2 1.2.5 1.6v.2h-.2c-.5-.7-.7-1.5-.7-2.3 0-1.5 1.2-2.2 2.6-2.1 1.4 0 2.7 1 3 2.3v1.5h.1c.8 0 1.3.5 1.6 1.3.5-.6 1.5-.7 2.1-.7.1 0 .2 0 .2.2.1.2.3.7.2.9 0 .6-.6 1.9-1 1.9-.7 0-1.2-1-1.6-1.8m2-.2c-.6 0-1.3.2-1.5.5.1.2.4.5.7.5.4 0 .8-.7.9-1m-2.8-4.3-.1-.1-.2-.5h.1l.3.1 3.6 1.4h.1l.2.5h-.1l-4-1.4m15.6 17.9c-.4 0-.9-.5-1-1.1v-.5l1-.4a7.6 7.6 0 0 0-2-1.7c-.4-.2-.3-.4 0-.2 1.4.6 2.1 1.2 2.4 1.8h.3c.1 0 .1-.1.2.1v.3l-.3.2v.1l-.1 1c-.1.3-.3.5-.5.4m0-.6.3-.6v-.3l-.3.1-.6.2v.3l.3.3h.3m-.7-4c-.1 0 0-.2 0-.4l.6-.3-.4-.2v-.4c.3.2 1.4.5 2 .6l.2.4-.1.1-.9-.1a2 2 0 0 0-1 .5l.5.3c.4 0 .4-.4.5-.4l.3.5c0 .1-.3.4-.5.4-.3 0-1-.6-1.2-1m-8.4-.7-.1-.1-.2-.5h.1l.3.1 3.6 1.4h.1l.2.5h-.1l-4-1.4m2.5-1c-.2-.1-.6-.8-.5-.9l.3-.7c.4-1.9 1.1-4.7 1.3-6.2-.3-1-1.8-1.4-2.5-1.4-2 0-2.2 1.5-1.7 2.6.1.3-.1.2-.2 0-1.1-2-.2-3.7 1.7-3.7 1.7 0 2.9 1.1 3 2.3 0 .8 0 1.6-.2 2.3l-.8 3.7.4.6v.2a3 3 0 0 0-.7 1.2c0 .1-.1 0-.1 0m7.2-.2V256c0-.5 0-1 .2-1.4l.5-2.1.6-4c0-.1.2-.1.2 0 .2 1.2 0 2.5-.3 3.8l-.5 2.2-.5 2.7v.2l-.2-.2m-2-2.9a7 7 0 0 1-.3-.6v-.2l.7-.4h.1l.4.7v.1a8 8 0 0 1-.7.4h-.1m-2.7-1.5-.4-.6v-.2l.7-.4h.2l.3.7v.1c-.1.2-.4.3-.6.4h-.2m3.4-.9v-1c.3-.3.6-.6.7-1.3-1-.7-3.1-.9-3.4 0-.1.3-.2.2-.2 0-.2-1.2.4-1.4.9-1.6-1.6-3.4-4.8-2.8-6-2.5-.3.1-.5-.3 0-.4 2.8-.6 5.4-1 6.4 2.9 1.7.1 2.3.6 2.5 1 .1 0 .3 1.9-.8 2.9m-4.8-8.4h-.1l-.2-.5c0-.1 0-.1.1 0h.3l3.6 1.5h.1l.2.5h-.1l-4-1.5m12.4 16.5a3.6 3.6 0 0 0-3.1-.8c-.2 0-.4.2-.5.1-.1 0-.6-.8-.5-1 0-.2.3.3.4.3 0 .1.1 0 .2 0h1.3c1 0 2 .4 2.2 1 0 .1.2.6 0 .4m-3-2.3h.1zm0 0-.2-1 .4-1.9.5-4.7c.1-1.4.5-2.5 1.8-2.5 1 0 1.3.8 1.7 1.6.4-.6 1.5-.8 2.1-.8l.2.1.2.8c0 .5-.5 2.2-1 2.2-.8 0-1.4-1.4-1.7-2-.3-.6-1-.9-1.5-.9-1.2 0-1.3 1-1.4 2l-.5 4.3a15.7 15.7 0 0 1-.5 2.8m5.2-7.1c.4 0 .8-.9.8-1.2a3 3 0 0 0-1.5.6c0 .2.4.6.7.6zm-2.7 4.7-.2-.6.4.2 2.7 1 .1.2.2.4h-.1l-3-1.2m8.4.6-3.9-1.5v-.1l-.2-.5.4.1 3.5 1.4.2.1.1.4v.1m-1.9-4.6c-.7 0-1.1-1.5-1.1-2 0-.6.5-1 1-1 .3 0 .6.3.8.7 0 0 .1-.2 0-.2 0-1-1.7-2.5-2.6-2.9-1-.4-2.2-.5-3.3-.3-.1 0-.3-.2 0-.2 1-.4 2.6-.6 3.5-.3 1.4.5 2.8 2.2 2.8 4.1 0 1-.6 2.2-1.1 2.2zm.5-1.7-.6-.3c-.2 0-.5.3-.6.4 0 .2.3.6.5.6.4 0 .7-.6.7-.7m13.3 8.6-.1-.1-.1-.5.3.1 3.7 1.4v.1l.2.4v.1l-4-1.5m-9.6-2.3v-.1l-.2-.5.4.1 3.6 1.4.1.1.1.4v.1l-4-1.5m11.3 1.4-.5-.9.3-.7 1.2-6.2c0-.6-1-.3-1.5 0-.4.1-.7 0-1-.2-.6-.5-1.3-.7-2-.7s-1.4.3-1.5 1.1c-.5 2-.7 4.6-1.1 6.5-.1.3-.2.3-.3 0v-1l.7-4.5c0-1-2.4-1.8-3.9-1.8-1.6 0-3 .7-2 2.7 0 .2 0 .2-.2 0-1.4-2.2 0-3.6 2-3.6 1 0 3.6.5 4.3 1.9.1-1 .4-2.2 1.5-2.3.7 0 1.2.1 2 .5.5.3 1 1 1.7.4.2-.1.9-.4 1.2-.1.6.4.5 1.6.4 2-.1 1.4-.6 3.5-.8 5l.3.5v.2a3 3 0 0 0-.7 1.2c0 .1 0 .1 0 0m3 0v-.2l-.2-.9v-.5c0-.5.2-1.1.4-1.7l.7-3.6.3-2.7c0-.2.1-.2.2 0l.1 1.5-.3 2.3-.6 3-.5 2.6-.1.2zm-6.6-4.6v-.2s0-.2 0 0l.3.2.8.2.7-.2-1.3-.7-.1-.2.2-.1 1 .3h-.1l.7.5c.2.1.3.4.3.6h-.4c-.2.2-.6.3-.9.3-.4 0-.9-.1-1.2-.7m-5.2 1.9c-.3-.4-.8-1.2-.8-1.8 0-.1 0-.3.2-.4l.5-.1c.2 0 .5 0 .6-.2v-.1c-.6-.5-1.2-.7-2-.5-.3.1-.4-.2-.1-.3.6-.3 1.6-.4 2.2.2.3.3.6 1 .3 1.4-.1.2-.5.2-.8.3-.2 0-.3 0-.4.2-.1 0 0 .2 0 .4.2 0 .2.1.3.2h.2l.1-.1c0-.1.1-.1.2 0l.2.6v.3h-.1l-.2.1-.4-.2m12.2-8.7v-.6l.6-.3-.4-.2v-.4l2 .6.2.4s0 .1 0 0h-1a2 2 0 0 0-1 .5l.6.3c.3 0 .4-.4.4-.4l.3.5c0 .1-.3.4-.5.4-.3 0-1-.6-1.2-1m-4.4.9-.4-.7-.7.4h-.2l-.4-.6v-.2l.8-.5.1.1.4.6.8-.4h.1l.4.6v.3l-.7.4h-.2m7.2-2-2.6-1h-.1l-.2-.5h.4l2.3 1 .2.4v.1m-145 40.3c-.4 0-.9-.6-1-1.2v-.4l1-.3a7.6 7.6 0 0 0-2.1-1.8c-.3-.2-.2-.3.1-.2 1.4.6 2 1.3 2.4 1.9l.2-.1c.2 0 .2 0 .3.2v.3l-.4.1v1.1c-.2.4-.4.5-.6.5m.1-.6c0-.1.2-.3.2-.7v-.2h-.2l-.6.3c-.1 0 0 .2 0 .2l.2.3.1.1h.3m-11-4.9-.2-.5.4.1 3.6 1.4h.1l.1.5-4-1.5m10 .6.1-.4.6-.4c-.1 0-.3 0-.4-.2l-.1-.3 2 .6.2.4h-.9a2 2 0 0 0-1 .5l.5.2c.4 0 .4-.3.5-.3l.3.5s-.3.4-.5.4c-.3 0-1-.6-1.3-1m-7.7-1.7-.3-.5v-.6l.2-.5 1.1-6.5c-.8-1.3-3.2-1.9-4-.6-.4.6-.3 1.3.1 2 .3.4 0 .6-.2.2-.5-.8-.8-1.9-.5-2.6.7-2 3-1.4 4-.7 1 .8 1.1 2.1 1 3.2l-.9 5 .3.5v.2l-.6.8c0 .2 0 .2-.2 0m9.2 0v-.2l-.2-.8v-.5c0-.6.2-1.2.3-1.7l.7-3.6.4-2.8c0-.1 0-.1.1 0l.2 1.5-.4 2.3-.6 3.1-.5 2.6v.1zm-2.7-3a7 7 0 0 1-.4-.6v-.2l.7-.4h.1l.4.7v.1l-.7.4h-.1m-2.9-1-.4-.6v-.2l.7-.4h.1l.4.7v.1l-.6.5h-.2m3.6-2.5.6-1.2c-1.1-.7-3.4-.8-4 .2-.1.2-.2.2-.3-.1 0-.5 0-1 .6-1.4-.9-2-2.8-3.4-5.6-2.3-.2 0-.4-.2-.1-.3 3.1-1.4 5.2-1 6 2.4.8-.2 2.3 0 3.1.4.7.3.8 1.1.7 1.8-.2.6-.5 1.1-.9 1.5l-.1-1m-6-7.5-.2-.6.4.2 3.6 1.3.1.1.1.5-4-1.5m13.8 16a3.6 3.6 0 0 0-3-.8l-.5.1c-.2-.1-.7-.8-.6-1 0-.2.3.2.4.3h1.5c1 0 2 .4 2.2 1 .1 0 .2.6 0 .4m-3-3.3c.4-1.6.6-3.7.8-5.3 0-1 .2-2.5 1.2-2.8.8-.3 2-.2 2.5.8.4-.6 1.2-.7 2.4-.9l.2.6c1-.3 3.3-.1 4.2.4.8.4.9 1.3.8 1.9-.1.5-.5 1-1 1.4l-.2-1c.3-.3.6-.7.7-1.2-1-.6-3.5-.9-4.7-.2-.6.3-1 1.2-1.4 1.2-.4-.1-1-1-1.2-1.4-.4-.7-1.4-.9-2.1-.5-.8.4-.9 1.5-1 2.2l-.7 5.6c-.1.4-.4-.7-.4-.8m6.1-7c-.6 0-1.6.5-1.4.7.9 1 1 0 1.4-.7m-3.4 5.6v-.1l-.2-.5.4.1 3.6 1.4.2.5-4-1.4m7.4-7.2a7 7 0 0 1-.4-.7l.1-.2.6-.3h.2l.4.6v.2a8 8 0 0 1-.7.4h-.2m-1.2-2.8v-.1l-.2-.5.4.1 3.2 1.3h.1l.1.5-3.6-1.3m15.4 13.1c-.4 0-.8-.6-1-1.2l.1-.5.9-.3a7.6 7.6 0 0 0-2-1.8c-.3-.1-.3-.3 0-.2 1.5.7 2.1 1.3 2.4 1.9h.3c.2-.1.1-.1.2.1l.1.3-.4.1v1.2c-.2.3-.4.5-.6.4m0-.6c.1 0 .3-.3.3-.6v-.3h-.2l-.6.3c-.2 0 0 .2 0 .2l.2.3.1.1h.3m12 .5c-.4 0-.9-.6-1-1.2v-.5l1-.3a7.6 7.6 0 0 0-2.1-1.8c-.3-.2-.2-.4.1-.2 1.4.6 2 1.3 2.4 1.9l.2-.1c.2 0 .2 0 .3.2v.3l-.4.1v1.1c-.2.4-.3.5-.6.5m.1-.6c0-.1.2-.3.2-.7v-.1h-.2l-.6.3c-.1 0 0 .2 0 .2l.2.3h.4m-22-1.7-.1-.1-.2-.5h.1l.3.1 3.6 1.4h.1l.1.5-4-1.4m16.3.6v-.2c-.1-.1 0-.2 0-.1l.3.3c.2.1.5.2.8.1l.7-.2-1.3-.7s-.2 0-.1-.2h.2c.4.1.5 0 .9.2l.6.5h.2l.2.6-.4.2-.9.2c-.5 0-1-.2-1.2-.7m.8-2.7v-.5l.6-.3-.4-.2v-.3s0-.1 0 0l2 .6.2.4-1-.1a2 2 0 0 0-1 .5l.6.3c.3 0 .3-.3.4-.3l.3.4c0 .2-.3.4-.5.4-.3 0-1-.6-1.2-1m-15.1.7-.4-.6v-.2l.7-.4h.1l.4.7v.1l-.7.4h-.1m7.8-.3-.4-.6.1-.2.6-.3h.2l.4.6v.2a8 8 0 0 1-.7.4h-.2m11.7-.6v-.1l-.2-.8.1-.2a3 3 0 0 0 1-1.6 5 5 0 0 0-1.8-.8c-.2.9-.7 2-1.3 1.9-.6-.1-1.3-1.7-.8-2.5.1-.3.5-.5.8-.5h1c-1.3-2.7-3.7-3-5.6-2.7-.4.1-.6-.1-.1-.3 3.3-1 5-.5 6 3.2.4 0 1.5.5 2 1 .2.3.2 1 .2 1.2 0 .8-.4 1.7-1.1 2.2h-.2m-2-2.8c.2-.1.4-.5.5-.8-.4 0-.9 0-1.1.2l-.1.3.3.4h.4m-5.4.8c-.1-.4-.3-.9-.6-1.2-.2-.2-.4-.4-.7-.3l-1.5.6h-.4c-.4-.3-1-.7-1.8-1-.3.6-.4 1.2-1 1.8-.4.6-.8 0-1-.5-.4-.6-.7-1.6-.3-2 .5-.5 1.3-.5 2-.2a4.4 4.4 0 0 0-2-2.3 5.8 5.8 0 0 0-3.7-.3c-.3 0-.4-.1-.1-.2 1.6-.7 3.2-.7 4.2-.2 1 .5 1.7 1.5 2 3.1.6.3 1.1.5 1.6 1h.4l1.2-.7c.3-.1.5 0 .8.1.4.3.7.8.9 1.2.2-.3.4-.6 2-.6.4 0 .4 0 .5.8 0 .5-.3 1.5-.6 1.9-.2.3-.4.5-.6.5-.5-.1-1-.8-1.3-1.5m1.9-.7c-.9 0-1.4.2-1.6.4v.1l.7.6h.1c.4 0 .7-.8.8-1.1m-7.6-1.3c-.8 0-1 0-1.3.2v.2c0 .2.3.6.5.6s.5-.3.8-1m-4.4 3.4c-.1.2-.3-1-.2-1 .3-.6.8-1.6 1-2.6-.9-1.8-4.4-2.2-4.7-.1 0 .5.2 1 .4 1.8 0 .2 0 .2-.2 0-.6-1-.8-2.5-.4-3.3 1-1.7 4-1 5 .6.8 1.8-.4 4.3-.9 4.7zm9.1-5.3-.2-.6.4.2c.5.2 2.9 1 3.6 1.4l.2.5-4-1.5m9.6-.3-.5-.7-.7.4h-.2l-.4-.7v-.2l.8-.4h.1l.4.7.8-.4h.2l.4.6-.1.2-.7.5h-.1m11.2 13.7v-.1l-.2-.5.4.1 3.6 1.4.1.1.1.4v.1l-4-1.5m3.4-.6-.2-.4v-.5c-.2-.2-.4-.2-.6 0l-.1.4c0 .2 0 .2-.1.1l-.2-.2c0-.5-.3-.7-.7-.8-.2 0-.4.2-.2.7 0 0 0 .2-.2 0-.3-.8-.1-1.2.3-1.2.3 0 .7 0 .8.6.2-.3.5-.3.8-.3.3.1.4.3.5.5v1c0 .2-.1.1-.1 0m2.8-.3-.9-1.2-.4.2c-.2 0-.3 0-.3-.2l-.4-.7v-.5s0-.1 0 0l.4.6c.6-.3 1.4-.2 2 .2.4.3.8.8.6 1.3 0 .2-.2.4-.4.4-.3 0-.5-.2-.6-.3m.6-.4.2-.3c-.1-.2-.8-.4-1-.5h-.3l.5.7c.2.2.4.3.6 0m-15.7-3.3-.1-.1-.2-.5h.1l.3.1 3.6 1.4.2.1v.5l-4-1.5m11.6 1.4-.4-.6v-.2l.4-.6c.2-1.8 1.1-6.2 1.2-6.9-.1-.6-1.4-.6-2 1.2l-.6 3c-.2.4-.3-.8-.3-.9l.4-1.9c-.4-.9-2.6-1.4-3-1-.1.2-.2.3-.3 0 0-.4 0-.9.2-1 .4-.5 2.9.1 3.2 1.4.2-1 1.1-2.7 2.3-2 .5.3.5 1.8.4 2.3-.4 1.8-1 4.8-1 5.7l.2.4v.3l-.6 1h-.1m2.7-.3c-.3-.7-.2-1.5 0-2.3l.3-1.8.4-3v-1c.3 0 .3.8.3 1v1c0 .9-.1 1.7-.3 2.6 0 .7-.2 1.3-.3 2l-.2 1.1c0 .2-.1.8-.2.4m-5.3-1.5-.4-.6v-.2l.7-.4h.2c0 .3.3.5.3.7.1 0 .1.1 0 .2-.1 0-.5.2-.6.4h-.2m-7.1-1.6-.4-.7v-.2l.7-.3h.2l.3.6c.1.1.1.2 0 .2a8 8 0 0 1-.6.4h-.2m4.2-.2-.1-1s.4-.5.5-1c-.3-.3-.9-.4-1.5-.4l-.4.1-.4.8a3 3 0 0 1-.1-1c.3-.6.7-1.5.7-2.6-.7-1.6-4.7-2.2-4.7.2 0 .5.2 1 .4 1.5 0 .4-.1.4-.3.1-.2-.4-.5-1-.5-1.6-.1-1 0-1.8.9-2.3 1.1-.7 3-.3 3.8.6.8.8.8 2 .7 3.1.7 0 1.3.2 1.6.7.3.3.3.8.2 1.2 0 .7-.3 1.1-.6 1.5 0 0-.1.1-.2 0m-1.7-1.4zm2.4-5.4-.4-.7-.7.4h-.2l-.5-.6.1-.3.7-.4.2.1.4.6.7-.4h.2l.4.6v.3l-.7.4h-.2m4.5-.8-3-1.2-.1-.1-.2-.5h.1l.3.1 2.8 1.1v.1l.2.5m5.2 8.5v-.1l-.2-.5.4.1 3.1 1.3h.1l.2.5h-.1l-3.5-1.3m1.1-4.9c.2-1 1.4-1.3 1.9-.2 0-1.1-1-2.3-2-2.8a6.3 6.3 0 0 0-4-.4c-.2 0-.3-.1-.1-.2 3-1.1 5.7-.5 6.3 2.3.3 1.1.2 2.6-.7 3.4-.8.6-1.5-1.2-1.4-2m1.6.3c-.5-.6-1-.2-1.2 0 .4 1.2.9.8 1.2 0m26.4 9.4c-.4 0-.8-.6-1-1.2l.1-.5.9-.3a7.6 7.6 0 0 0-2-1.8c-.3-.2-.3-.4 0-.2 1.5.6 2.1 1.3 2.4 1.9l.3-.1c.2 0 .1 0 .2.2l.1.3-.4.1v1.1c-.2.4-.4.5-.6.5m0-.6c.1-.1.3-.3.3-.7v-.2h-.3l-.5.3c-.2 0 0 .2 0 .2 0 .1 0 .2.2.3l.1.1h.3m11.7-1c-.4 0-.8-.6-1-1.2l.1-.5 1-.3a7.7 7.7 0 0 0-2.2-1.8c-.3-.2-.3-.3.1-.2 1.4.6 2 1.3 2.4 1.9l.2-.1c.2 0 .2 0 .2.2l.1.3-.4.1v1.1c-.2.4-.4.5-.6.5m0-.6c.2-.1.3-.3.3-.7v-.2h-.3l-.6.3c-.1 0 0 .2 0 .2l.2.3.1.1h.3m-20.3 0-3.9-1.5v-.1l-.2-.5.4.1 3.6 1.4v.1l.2.4v.1m8.5-2-.4-.7-.7.4h-.2l-.4-.7v-.2c.3 0 .6-.3.8-.4h.2l.3.7.8-.4h.1l.4.6c.1.2 0 .2 0 .2l-.7.5h-.2m4.2-.2a7 7 0 0 1-.4-.7v-.2l.7-.3h.2l.3.6v.2l-.7.4h-.1m-14.8-1.5a7 7 0 0 1-.4-.6v-.2l.7-.4h.1l.4.7v.2l-.6.4h-.2m18.3-.2a7 7 0 0 1-.4-.6l.1-.2.6-.3h.2l.4.6v.2l-.7.4h-.2m-3.5-1.3c-.7-.8-1-1.8-.6-2.6-.3-.1-1.9-.5-3 0 .5.7.8 2 .2 2.8l-.6.3c-.5 0-1-.8-1.3-1-.3-.7-.5-1.4-.3-2.2l-1.6-.4c-.1.6-.3 1.2-.7 1.6-1 1.4-1.9-1.1-1.6-2.1.2-.5 1-.7 1.9-.6-1-2.3-3.6-3.1-6.3-2.5-.2.1-.3-.2 0-.3 2.5-1 5.4-1.4 6.8 2.9.8.1 1.8.4 2.4.8.7-.4 2.6-1.1 5 0 1.8-.7 3.3-.6 4.8.7.2 0 .2.2.3 0 0 0 .9-.7 1.5-.6.3 0 .6.6.7 1.3.1.7.1 2-.1 2.1l-.4-.9c.1-.6.2-1.2.1-1.4-.1-.3-.9 0-1.3.3-.5.4-.5.4-1 0-1-1-2.2-1.1-3.7-.7.8 1 .6 2.1.3 2.6-.5.8-1 .4-1.5-.1m-3.4-1.4-1.1-.9-.8.6c.2.4.7 1.2 1.1 1.2.3 0 .6-.3.8-.9m4.7 0c-.2-.3-.6-.7-.9-.8l-.8.6c0 .2.7 1 1.1 1 .3 0 .4-.3.6-.8m-9-1.7c-1-.1-1.4.2-1.4.3 0 .4.4.7.6.7.3 0 .6-.6.8-1m-5 2.3c.3-.7.8-1.6 1-2.6-1-1.9-4.5-2.3-4.7-.2-.1.5.2 1.1.3 1.8.1.2 0 .3-.1.1-.7-1-.9-2.6-.5-3.4 1-1.7 4.1-1 5 .6.8 1.8-.4 4.3-.8 4.7-.2.1-.3-1-.3-1m19.7-4.1-.5-.7-.7.4h-.2a12 12 0 0 1-.4-.6v-.2c.3 0 .6-.3.8-.4h.1l.4.7.8-.4h.2c0 .2.3.5.4.6l-.1.3-.7.4h-.1m-8.3-2-.2-.5c.2 0 .3 0 .4.2l3.6 1.3v.1l.2.5-4-1.5m33.4 13.5-4-1.5v-.1l-.2-.5.4.1 3.6 1.4h.1l.1.5m-7.6-1.1-.1-.2v-.1l.3.2c.3.2.5.3.8.2l.7-.2-1.2-.7-.2-.2h.2c.4.1.6 0 1 .2h-.1c.5.2.6.5.7.5h.1l.3.6-.4.1c-.3.1-.6.3-1 .3s-.9-.2-1.1-.7m-6.7-.3c-.4 0-.8-.6-1-1.2l.1-.5.9-.3a7.6 7.6 0 0 0-2-1.8c-.3-.2-.3-.4 0-.2 1.4.6 2.1 1.3 2.4 1.9l.3-.1c.2 0 .1 0 .2.2v.3l-.3.1v1.1c-.2.4-.4.5-.6.5m0-.6c.1-.1.3-.3.3-.7v-.2h-.3l-.5.3c-.2 0 0 .2 0 .2 0 .1 0 .2.2.3l.1.1h.3m2.6-1.3v-.1l-.2-.5.4.1 2.7 1.1.1.1.2.4-.1.1-3-1.2m12.5-1-.2-.5.4.1 3.6 1.4h.1l.1.5-4-1.4m-6.9 1-.4-.7-.7.4h-.2l-.4-.7v-.2l.8-.4h.1l.4.7.8-.4h.1l.4.6c.1.2 0 .2 0 .2l-.7.5h-.2m4.1 0-.3-.7v-.2l.6-.4h.2l.4.7v.1l-.7.5h-.2m-19.4-1v-.3c-.1 0 0-.2 0 0l.3.2.7.2.8-.2-1.3-.7-.2-.2.3-.1.9.3c.4.2.5.4.6.5h.1c.2.1.3.4.3.6h-.4c-.3.2-.6.3-1 .3s-.8-.1-1.1-.7m9.8-.4-.2-.5.3-.4c.5-.7.8-1.5.6-2.5v-.2c.2 0 .4.8.4 1.2 0 1-.5 1.7-1 2.4m5.8-.8s-.2 0-.3-.2l-.4-.4-.4-1.3c0-.4 0-.7.2-1l.7-.3c.2 0 .4 0 .6.2l.5.5.2-1c0-.3-.2-.5-.5-.6a2 2 0 0 0-.8-.2c-.6 0-1.2.2-1.6.6a4.7 4.7 0 0 1 .4.8h-.2c-.3-.5-.8-.6-1.4-.9-1.4-.5-3.4-.7-5-.7 1 .5 1.7 1.6 1.7 2.8l-.2.7-.2.4-.2.1h-.1c-.2 0-.4-.3-.6-.5l-.4-.8-.8-2a6.5 6.5 0 0 0-3.7 0c-.8.3-1.1.8-1.5 1.4l-.3.4-.3-.1-.4-.4a3 3 0 0 1-.7-.9 2 2 0 0 1-.7-.8 4 4 0 0 1-.4-1.8c0-1.1.2-1.5.4-2.8l.6-4.2v-.1h.1l.1.1v2.8c-.2 1.8-.7 3.4-.8 5.2l.1.3.4.3.3.1v-.1l.2-.2c.2-.2.5-.3.9-.4.4-.2.8-.2 1-.2h.4l.1.1.1.4c.8-.3 2.2-.3 3-.3v-.3h.9c.3-1.6 1.4-2.4 2.3-2.3.2 0 .3.1.5.3l.3.6c.2.5.2 1 0 1.5a7 7 0 0 1 3.9 1.3c.2-.4.6-.8 1-1 .5-.2.9-.2 1.2-.1.4 0 .7.3.9.6a3.5 3.5 0 0 1-.8 4.4l-.4.2zm-.2-1.1.4-.2.4-.6a1 1 0 0 0-.6-.3l-.4.2-.2.2v.2l.1.2.2.2h.1zm-7-.6h.2l.2-.3.1-.5c0-.2-.2-.4-.5-.6l-1.1-.7.5 1.4c0 .2.2.4.3.5l.3.3zm-7.2-1.5.2-.3c.2-.3.3-.6.6-.8a6 6 0 0 0-1.3.3l-.4.2-.1.2.1.1.2.2.5.3c.2 0 .2 0 .2-.2m7.6-2.6c.2 0 .4-.2.5-.3l.2-.2v-.1l-.1-.2a.7.7 0 0 0-.5-.2c-.8 0-1.5.5-1.9 1.2l1.8-.2m3.1 5.7-.3-.6v-.2l.6-.3h.2l.4.6v.2l-.7.4h-.2m8-.2v-1c.4-.5 1-1 1.3-1.6a5 5 0 0 0-6-3.4c-.1 0-.2-.2 0-.3 2-.6 5.3-.8 6.2 2.6.3.9.3 1.6-.2 2.3-.3.6-1.2 1.5-1.3 1.4m4.6-2.2c.5-.5 1-1 1.2-1.5 0-1.3-1.9-4-5.6-3.2-.2 0-.3-.2 0-.3 1.9-.7 5.8-1 6 3.5 0 1.2-.9 2.2-1.3 2.5-.2 0-.3-1-.3-1m9.4 6.5-4-1.5v-.1l-.2-.5h.1l.3.1 3.6 1.4h.1l.2.5m-6.4-.2-.2-.6v-.4c.4-2.2.4-4.2.8-6.4.1-.8.4-1.9 1.4-2 1 0 1.7.8 1.9 1.2l.3-.4c.4-.2 1.2-.3 1.9-.4.2 0 .2 0 .3.2v.4c.8-.2 1.7 0 2.3.3.4.2.7.5 1 1 .3-.3.8-.6 2-.7l.3.1.1.6v.6c0 .7-.3 1.4-.7 1.8l-.3.2-.4-.1c-.3-.2-.5-.6-.7-1l-.6-1c-.6-1-2.1-1-2.8-.7-.5.1-1 .5-1.3 1-.2.2-.2.3-.4.3l-.3-.2c-.3-.2-.5-.6-.7-.9l-.5-.7c-.8-.8-1.8-.7-2.2.3-.3.8-.4 1.9-.5 3l-.5 4.4-.1.2v-.1m11.5-6.7c-.6 0-1.2.3-1.5.5.3.4.5.6.7.6.5 0 .7-.6.8-1.1m-6.5-.1c.1-.5.4-.9.7-1.1-.6 0-1.2.2-1.6.4v.3l.5.4c.1 0 .2.1.2 0v.1l.2-.1m.4 4.8-.2-.3v-.7c-.1-.3-.4-.3-.5-.1-.2 0-.2.2-.2.4s0 .3-.1.1c-.2-.1-.1 0-.1-.2-.1-.5-.3-.7-.7-.8-.3 0-.5.2-.3.7 0 .1 0 .2-.1 0-.4-.8-.2-1.2.2-1.2.3 0 .7.1.9.6.1-.3.4-.3.7-.3.3.1.4.3.5.6v1h-.1m7.5-6.2-3-1.3-.2-.1-.1-.5.4.1 2.8 1.2.2.5m3.5 8.2-3.4-1.5h-.1l-.2-.5h.4l3.2 1.4.2.5m-2.3-5c-.2-.5-.4-1.5-.2-2 .3-1 1.4-.6 1.7 0-.2-1.8-1.5-3-3-3.5a7 7 0 0 0-3.4-.2c-.2 0-.2-.2 0-.2 4-1.3 6.5.3 6.8 3.3 0 1 0 1.8-.5 2.5-.5.8-1 .7-1.4 0m1.2-1.2c-.2-.3-.8-.4-1.1 0 .2.5.3.6.5.7.3 0 .5-.3.6-.7m-134.6 31.3-.9-1.2-.4.2c-.2.1-.3 0-.3-.2l-.4-.7v-.2c0-.2 0-.2 0 0 .2.1.3.6.5.5.5-.3 1.3-.2 1.9.2.4.3.8.8.6 1.4 0 .1-.2.3-.4.3s-.5-.1-.6-.3m.6-.4.2-.2c-.1-.3-.8-.5-1-.6h-.3l.5.8c.2.1.4.2.6 0m-16.2-1.6-.2-.5c0-.1 0-.1 0 0h.4l3.6 1.5.2.5-4-1.5m-6.6-1.3-.1-.1-.2-.5h.1l.3.1 3.1 1.2.2.5-3.5-1.3m12.2-.5h-.1l-.2-.5c0-.1 0-.1.1 0h.3l3.6 1.5h.1l.2.5h-.1l-4-1.5m7 1.3c0-.2 0-.3-.2-.4 0-.1 0-.2-.2-.3l.2-.5.3-.4c0-.6.2-1.4.4-2.3.2-1.1.5-2.4.5-3.4-.1-.3-1-.7-2-1v.1c.5.7.7 1.1.6 1.6 0 .5-.5.8-1.1.8-.4 0-.9-.1-1.2-.3l-1.2-1.1-1.3-1.3c-.2 0-.6.1-1 .4l-.2.2s-.2 0-.3-.2c-.3-.4-.8-.7-1.3-.7l-.5.1c-.9.3-1.1 1.4-1.2 2.1a42.9 42.9 0 0 0-.8 5.7v.1c-.2 0-.4-.7-.3-.8l.3-3 .4-2.5c-.1-.3-.5-.6-1-.8h-.1a6 6 0 0 1-.7 1.4c-.1.2-.3.4-.5.4s-.4-.1-.5-.3c-.4-.5-.7-1.4-.6-2 0-.5.4-.7 1-.7l1 .1a4.4 4.4 0 0 0-4.2-2.7c-.6 0-1.3 0-2 .3l-.1-.1.1-.2c1.1-.4 2.1-.6 3-.6 2 0 3.1 1.1 3.7 3.6h.1c.4.1.7.4.8 1 .3-1.6 1.1-2 2-2a2 2 0 0 1 1.5.8h.2c0-.2.2-.3.3-.4l-.1-.6-.2-.5v-.3l.2.2.4 1v.1l1.8-.2c1 0 2.2.2 3.4.5 2.4.7 2 2.3 1.9 3.4l-.8 3.9.2.2.2.3v.2l-.5.8-.2.2v.1h-.1m-1-7.2c-.1-.3-1-1.3-3.3-1.3h-.3l.5.5c.5.6 1.1 1.3 1.8 1.3h.1c.4 0 .8-.2 1.2-.5m-11-1h-.3c-.4 0-.9.2-1 .3v.1c.2.4.3.6.5.6.3 0 .6-.5.8-1m14.2 7.8-.2-.8v-.5l.4-1.4.4-2c.2-1.2.6-2.8.7-4 0-.2.1-.2.1 0 .3 1.2 0 2.4-.2 3.8l-.5 2.1-.6 2.8v.1l-.1-.1m-6-1.9-.1-.3v-.4c-.2-.2-.4-.3-.6-.1l-.1.5c0 .1 0 .2-.1 0-.2 0-.2 0-.2-.2 0-.5-.3-.7-.7-.7-.2 0-.4.1-.2.6 0 .1 0 .2-.2 0-.3-.7-.1-1.2.3-1.2.3 0 .7.1.9.6.1-.2.4-.3.7-.2.3 0 .4.2.5.5v1h-.1m-10 .8-.3-.5.3-.4c.5-.7.8-1.4.6-2.5v-.1c.2 0 .4.8.4 1.2 0 1-.4 1.7-1 2.3m-3.5-1.4-.4-.7-.7.4h-.2l-.4-.6v-.3l.8-.4.1.1c.2.1.3.3.4.6l.8-.4h.1l.4.6v.3l-.7.4h-.2m-.4-2.8-.1-.5v-.3c-.5-1-.6-1.9-.5-2.4.2-.4.6-.7 1.1-.6.5 0 1 .2 1.2.5.2.2.5 1 .5 1.5 0 .8-.6 1.3-1.8 1.9h-.3v.1-.2m0-1c.7-.3 1.2-.6 1.5-1 0-.1.2-.3.1-.4-.5-.4-1.4-.4-1.7-.2-.3.3-.2.7.2 1.7zm45.6 8c-.4-.2-.8-.7-1-1.3l.1-.5.9-.3a7.7 7.7 0 0 0-2-1.8c-.3-.1-.3-.3 0-.2 1.5.7 2.1 1.3 2.4 1.9h.3c.2-.1.1-.1.2.1l.1.3-.4.1.1 1.3c-.2.3-.4.5-.6.4m0-.6c.1 0 .3-.3.3-.6v-.3h-.3l-.5.3c-.2 0 0 .2 0 .2 0 .1 0 .3.2.3l.1.1h.3m-23.2-2.9h-.1c0-.1 0-.4-.2-.5 0-.1 0-.1.1 0h.4l3.5 1.4.2.1v.5l-3.9-1.4m11 1.2c-.4-.1-.8-.6-1-1.2l.1-.5c.2-.2.5-.3.9-.4a7.6 7.6 0 0 0-2-1.7c-.3-.2-.3-.4.1-.2 1.4.6 2 1.3 2.3 1.8h.3c.2 0 .1-.1.2.2l.1.2-.4.2v1.1c-.2.4-.4.5-.6.5m0-.7c.2 0 .3-.2.3-.6v-.3l-.2.1-.6.3c-.1 0 0 .2 0 .2l.2.3h.4m7.9-.6-.5-.7-.6.4h-.3l-.4-.6.1-.2.7-.4h.2l.4.6.7-.4h.2l.4.7v.2l-.8.4h-.1m-17.3-1.7-.4-.6v-.2l.7-.3h.1l.4.6v.2l-.6.4h-.2m18.2-.8c-.2 0-.4-.2-.6-.4-.8-.7-1.3-1.8-.8-2.8-.4-.2-1.4-.6-2.1.4h-.3c-1-1.1-2.7-1.2-3.6-.5-.5.3-.7.7-1 1.1-.3.4-.5.3-.8 0-.9-.9-.6-1.2-2.1-1.7l-.6 1.4c-.9 1.2-1.8-1-1.6-2 .1-1 1.5-.6 1.8-.6-1.3-2.7-3.7-3-5.9-2.4-.2 0-.3-.2 0-.3 3.4-1.3 5.6-.7 6.4 2.9.7.2 1 .5 1.4.9 0 0 .2-.7 2.2-1.1l.1.5c1-.5 2.7-.3 3.8.9 1-1.5 2.5-.6 3.1-.2.5-.2 1.6-.6 2.5-.6 1.3.1 1.7 1.8 1.4 2.8l-.8 1.4-.3-1 .8-1.5c-.6-.9-1.5-.7-2.6-.3.5.7.5 1.3.4 1.9-.2.6-.4 1-.8 1zm.4-2-.8-.8-.8.6c.3.5.5.8.8 1h.2c.2 0 .4-.2.6-.8m-8.7-1.7c-.6.1-1.3.5-1.2.6 1 1.2.9 0 1.2-.6m-3.7-.3c-.6-.1-1.2.1-1.2.3.5 1.2 1 .3 1.2-.3m-4.2 2.4c.4-.8.8-1.4 1-2.6-.7-1.7-4.1-2.2-4.3-.3 0 .5.2 1.2.4 1.8 0 .2-.1.3-.2.1-.6-1-.9-2.3-.5-3.2.9-1.8 4-.8 4.6.5.8 1.8 0 3.3-.7 4.6v.1l-.3-1m19.5-3.4-.5-.7-.7.4c0 .1-.1.1-.2 0l-.4-.6v-.2l.8-.4h.2l.4.7.7-.5h.2l.4.7v.2l-.8.4h-.1m-7.4-.7-.5-.7-.7.4h-.2l-.4-.6v-.2l.8-.4h.2l.4.6.7-.4h.2l.4.7v.2l-.8.4h-.1m4.5-.7-3-1.2-.2-.1-.1-.5.4.1 2.8 1.1v.1l.2.4v.1m7.3 9.1-3.9-1.5v-.1l-.2-.5.4.1 3.6 1.4v.1l.2.4v.1m-2.3-4.8c-.3-.5-.5-1.4-.3-1.9.3-1 1.3-.6 1.6 0a3.9 3.9 0 0 0-2.8-3.5c-1-.3-2.2-.3-3-.2-.2 0-.3-.2-.1-.2 3.5-1.3 5.9.3 6.2 3.2 0 1 0 1.8-.5 2.5s-.9.6-1.2 0m1-1.2c-.1-.3-.7-.4-1 0 .2.5.3.6.5.6s.4-.2.5-.6m21.3 10.7-.9-1.2-.4.2c-.2.1-.3 0-.4-.2l-.3-.7-.1-.2c0-.2 0-.2.1-.1l.4.6c.6-.3 1.4-.2 2 .2.4.3.7.8.6 1.3 0 .2-.2.4-.4.4-.3 0-.5-.1-.6-.3m.6-.4.1-.2c0-.3-.7-.5-1-.6h-.2c0 .3.2.6.5.7.2.2.4.3.6.1m-4.8.5c-.2 0-.5-.3-.6-.4l-.2-.3c0-.2 0-.4.2-.2l.5.4h1c0-.2-.7-.4-.8-.5l-.4-.2c-.2-.1 0-.3.1-.3.4 0 .9.3 1.2.5.2.1.7.5.7.8-.1.2-.6.2-.8.2h-1m.6-2.3-.5-.9a253.4 253.4 0 0 0 1.6-7.7c-.6-.8-1.2-.4-1.7-.2l.4.8c.3.6-.9 1.2-1.8 1-.6-.2-1.2-.6-1.4-1.2 0-.2.1-.3.2-.2.4.1.8.2 1.2-.3-.5-.3-2-1-2.9.2h-.1c-.4-.5-.6-1-1.2-1-.4-.1-.9.2-1.2.4 0 .2.3.8.1.9 0 0-.2-.5-1-1-.9-.6-2-1-3.3-1-1.1 0-2.1.2-2.8.7-.9.7-.7 1.3-.3 2.3 0 .1 0 .3-.1.2-.7-.9-1-2.2-.2-3.2.6-.7 1.7-1 3-1 1.5.1 3.3.5 4.3 1.5.2-.3.5-.7 1.2-.8.6 0 1 .6 1.3 1 .1.1.1.2.2 0 .4-.4.6-.6 1-.7.8-.2 2 .6 2.7 1 .4-.5 1-1 1.6-.9 1 .2 1.3 1.6 1 2.9l-1 5.4.5.5c-.4.4-.5.8-.7 1.2v.1m2.2-.5-.1-.4c-.1-.2-.1-.2 0-.4l.8-6.4c.1-.7.2-1.5.6-2 .6-.7 1.9-.3 2.2 0 .3.2.4 1.2.4 1.6 0 .8-.3 1.4-.8 1.9-.1 0-.2.1-.2-.1l-.1-.6c-.1-.2 0-.2 0-.4.4-.5.6-1 .7-1.4-.4-.3-1.1-.4-1.6-.3-.5.2-.7.9-.8 1.5-.3 2.3-.6 5.7-.9 6.8v.3h-.2m-6.7-2.7-.2-.6.4.2 2.7 1 .1.2.2.4h-.1l-3-1.2m-3.7-.1-.1-.2v-.2l.3.3c.3.1.5.2.8.1l.7-.2-1.2-.7c-.1 0-.2 0-.2-.2h.2c.4.1.6 0 1 .2h-.1l.7.5h.1l.3.6-.4.2-1 .2c-.4 0-.9-.2-1.1-.7m5.3-1.2-.4-.7v-.1l.7-.4h.1l.4.7v.1a8 8 0 0 1-.7.4h-.1m7.5-7-.4-.7.1-.2.6-.3h.2l.4.7v.1l-.7.4h-.2m-9.8-.3-.4-.7-.7.5h-.2a12 12 0 0 1-.5-.7l.1-.2.7-.4h.2l.4.7.7-.5h.2l.4.7v.2l-.8.4c0 .1 0 .1-.1 0m-6.4-.6-.3-.6v-.2l.6-.4h.2l.4.7v.1l-.7.4h-.2m15-2-.1-.2s0-.3-.2-.4c0-.1 0-.1.1 0h.4c.5.3 2 1 2.7 1.2h.1l.1.5c-.8-.2-2.4-.9-3.1-1.2m-12.5.8-4-1.5v-.1l-.2-.5h.1l.3.1 3.6 1.4.1.1.2.4-.1.1m38.3 13.3c-.3 0-.8-.6-1-1.2l.1-.5 1-.3a7.6 7.6 0 0 0-2.1-1.8c-.3-.2-.2-.3.1-.2 1.4.6 2 1.3 2.4 1.9l.2-.1c.2 0 .2 0 .3.2v.3l-.4.1v1.1c-.2.4-.4.5-.6.5m.1-.6c0-.1.2-.3.2-.7v-.2h-.2l-.6.3c-.1 0 0 .2 0 .2l.2.3.1.1h.3m-11.3.2c-.4 0-.8-.6-1-1.2l.1-.5c.2-.1.5-.3 1-.3a7.6 7.6 0 0 0-2.1-1.8c-.3-.2-.3-.4.1-.2 1.4.6 2 1.3 2.3 1.9l.3-.1c.2 0 .1 0 .2.2l.1.2-.4.2v1.1c-.2.4-.4.5-.6.5m0-.6c.2-.1.3-.3.3-.7v-.2h-.2l-.6.3c-.1 0 0 .2 0 .2l.2.3h.4m-10.2-2-.1-.1-.2-.5h.1l.3.2 3.8 1.3.1.1.1.5-4-1.5m16 .8v-.2l.3.3.8.2.7-.3-1.3-.6-.1-.3h.2l1 .3h-.1c.5.2.6.4.7.5.2.1.3.4.3.6h-.4l-.9.3c-.4 0-.9-.2-1.2-.7m.7-2.8v-.4l.6-.3-.4-.2v-.4l2 .6.2.4s0 .1 0 0h-1a2 2 0 0 0-1 .5l.6.3c.3 0 .3-.4.4-.4l.3.5c0 .1-.3.4-.5.4-.3 0-1-.6-1.2-1m-14.8.2-.4-.7v-.2l.7-.3h.1l.4.7v.1l-.7.4h-.1m8.2-.2a7 7 0 0 1-.4-.7v-.1l.7-.4h.1l.4.7v.1l-.7.4h-.1m10.5-1.2c.3-.4.9-1.1 1-1.6-.2-.3-1-.7-1.5-.8-.5.8-1 2-1.7 1.4-.4-.3-.7-1-.6-1.8 0-1 1.1-.8 2-.6-.9-2.1-2.7-3.5-5.6-2.8-.2 0-.3-.3 0-.4 3.3-.9 5.3-.2 6 3.3.8.2 1.4.5 1.6 1 .5 1.2 0 2.4-1 3.3-.2.1-.3-1-.2-1m-1.3-2.5c-.7-.2-1.2 0-1.1.2.4 1 .8.4 1.1-.2m-6 1.4h-.2c-.4-1.1-.4-1.5-1.7-.6-.3.2-.5 0-.9-.2l-1.6-.7-.5 1.3c-.4.7-.9.8-1.3.1-.4-.5-.7-1.5-.5-2 .2-.5 1.1-.7 2-.5-.8-1.7-2.1-3.2-5.6-2.4-.3 0-.3-.2 0-.3 1.3-.4 5.3-1.7 6.2 3 .5.2 1 .4 1.4.8.3.1.3.2.6 0 1-.7 1.3-1 2.1.7.5-.6 1.8-.6 2.3-.5l.3.9c0 .5-.5 2-1 2.3-.7.3-1.5-1.4-1.7-2m2-.2c-.7 0-1.6.4-1.6.5.9 1.2 1.1.4 1.5-.5m-6.9-1.3c-.7 0-1.3.1-1.2.3.5 1.1.9.4 1.2-.3m-4.6 2c.4-.8.8-1.3 1-2.5-.7-1.6-4.2-2.1-4.4-.3 0 .5.2 1.1.4 1.8 0 .1 0 .2-.2 0-.6-.9-.9-2.2-.4-3 .8-1.7 4-.8 4.7.4.8 1.8 0 3.3-.8 4.5l-.3-.9m12.7-2.8-3-1.3h-.2l-.1-.6.4.2 2.8 1.1.2.5m5.2-2.5-.4-.7-.7.5h-.2l-.5-.7.1-.2.7-.4h.2l.4.7.7-.5h.2l.4.7v.2l-.8.4c0 .1 0 .1-.1 0m14.9 16.3-4-1.5v-.1l-.2-.5.4.1 3.6 1.4h.1l.1.5m2-1.8-.8-1.2-.4.2c-.1.1-.3 0-.3-.2a5 5 0 0 1-.4-.7v-.3c.2.2.4.7.5.6.5-.3 1.3-.2 1.9.2.4.3.8.8.6 1.3 0 .2-.2.4-.4.4s-.5-.1-.6-.3m.6-.4.2-.2c-.1-.3-.8-.5-1-.6h-.3c.1.3.3.6.5.7.2.2.4.3.6.1m-3.6 0-.1-.4v-.5c-.2-.2-.4-.3-.6-.1l-.1.5c0 .1 0 .2-.2 0l-.1-.1c0-.6-.3-.8-.7-.8-.2 0-.4.1-.2.6 0 .1 0 .3-.2 0-.4-.7-.1-1.1.2-1.2.4 0 .7.1 1 .6 0-.2.4-.3.6-.2.4 0 .4.2.5.5v1c0 .1 0 0 0 0m-12-3.7h-.1l-.2-.6.4.2 3.6 1.3.1.1.1.5-4-1.5m14.2 1.3-.1-.8v-.6c0-.6.2-1.2.3-1.7l.8-3.7.3-2.7c0-.2.1-.2.2 0l.1 1.5-.3 2.3-.6 3-.5 2.6-.1.2-.1-.2m-2.8 0-.3-.6v-.3l.2-.6c.3-1.8 1.3-6.1 1.3-6.9-.1-.6-1.5-.5-2 1.2l-.8 3.3c-.1.4-.3-.8-.2-1l.4-2c-.3-1-2.7-1.5-3-1-.2.1-.2.1-.3-.2l.1-.9c.5-.5 3 .1 3.4 1.4.2-1 1.1-2.7 2.3-2 .6.3.6 1.8.5 2.3l-1.1 5.7.3.4v.3l-.7 1h-.1m-3-1.7a7 7 0 0 1-.2-.7v-.2l.6-.3h.2l.4.6v.2l-.7.4h-.1m-6.6-2-.4-.6.1-.2.6-.3h.2l.4.7v.1l-.7.4h-.2m3.9-.6-.2-.8v-.2l.4-.8c-.3-.2-.8-.3-1.3-.3-.2 0-.2.1-.4.4l-.2.5c0 .1 0 .2 0 0-.2-.2-.2-.7-.2-.9.3-.8.6-1.3.7-2.5-.3-.5-1.2-1.2-2.3-1.4-1.1-.1-1.7.1-2 .4-1 .8-.4 2-.1 3 0 .1-.1.2-.2.1-.5-.9-.8-1.8-.7-2.6 0-1.1.7-2 2.2-2 1.5 0 2.7.7 3 1.6.4.6.4 1.9.3 2.5.4 0 .8 0 1.1.3.3.2.4.4.4.8.2.7 0 1.5-.4 2 0 .2-.1.2-.1 0m.8-6.8-.5-.8-.7.5h-.3l-.4-.7v-.2l.8-.4h.2l.4.7.7-.4h.3l.4.6v.2l-.8.5h-.1m1.5-1.6-.1-.1-.2-.5h.1l.3.1 3.6 1.4.1.1.1.4v.1l-4-1.5m34.5 13.1-.1-.1-.2-.5h.1l.3.1 3.5 1.5h.1l.2.5-4-1.4m12.3 1.4-.2-.3v-.2l.1-.4c-.2-.2-.4-.3-.6-.1-.1 0-.2.2-.1.5 0 .1 0 .2-.2 0l-.1-.2c0-.5-.3-.7-.7-.7-.2 0-.4.1-.3.6 0 .1 0 .2-.1 0-.4-.7-.2-1.2.2-1.2.3 0 .7.1 1 .6 0-.2.4-.3.6-.2.4 0 .4.2.5.5v1m-5.6-.7v-.2c-.1 0 0-.2 0 0l.3.2c.2.2.5.2.7.2l.8-.2-1.3-.7s-.2-.1-.1-.2c0-.1 0-.1.2 0 .4 0 .5 0 .9.2s.5.5.6.5h.2l.2.6-.4.1-.9.3c-.5 0-1-.2-1.2-.8m-3.9-1.7-.1-.3v-.7c-.2-.2-.4-.3-.6-.1l-.1.4c0 .2 0 .3-.1.1-.2-.1-.2 0-.2-.2 0-.5-.3-.7-.7-.8-.2 0-.4.2-.2.7 0 .1 0 .2-.2 0-.4-.8-.1-1.2.2-1.2.4 0 .7.1 1 .6 0-.3.4-.3.6-.3.4.1.5.3.6.6v1h-.2m7.8-.6v-.2l.3-.5c.1-1.7.5-3.9 1-6-.2-.2-.4-.3-.7-.3-.5 0-1.2.4-1.4 1.3l-.6 3.7-.4 2.5-.3-1 .5-3.3.1-.6c-.3-.5-.7-.8-1.2-.8l-.8.1h-.3c-.7 0-1.2-.8-1.5-1.3-.1-.4-.3-.5-.6-.5l-.7.4-.3.2h-.3l-.4-.1c-.7-.5-1.5-.8-2.3-.8-.4 0-.8 0-1.2.2v.1c.3.2.8.8.6 1.7-.2.8-.5 1.2-1 1.2-.2 0-.6-.3-1-.8-.3-.4-.9-1.4-.4-2.3l-1-.2c-.8 0-1.3.3-1.6.8-.2.4-.4 1-.5 1.9-.1.7-.3 1-.4 1l-.2-.4c-.1-.5-.5-1.2-1.4-1.2-.1 0-.2 0-.3.3l-.2.4-.1.2-.2-1a5 5 0 0 0 .7-2.5c0-1-1.5-1.7-2.8-1.7-.9 0-1.5.3-2 .9-.2.4-.1 1 .3 2.1v.2l-.2-.1c-.6-1.3-.8-3 .3-3.7.3-.3.9-.4 1.5-.4 1 0 2 .4 2.5 1l.1.1c.8.8.5 2 .4 3.2.9.2 1.2.9 1.3 1.1v.2l.2-.2v-.4c.2-.8.3-1.8.9-2.3a2 2 0 0 1 1.3-.5c.7 0 1.4.2 2 .6.8-.3 1.5-.4 2.1-.4a4 4 0 0 1 2.5.9h.5c.5-.5.8-.6 1-.6.4 0 .7.5 1.2 1.3.2-.9 1.2-1.1 1.8-1.1h.4c.1.1.4 1.1.2 1.6.5.3 1 .6 1.1 1.2v.2l.1-.2.1-.6c.3-1.4.4-2.1 1.4-2.5h.5c.3 0 .5 0 .7.2.5.6.4 1.7.3 2l-.3 2-.6 2.9.4.5-.1.2-.6.9-.4-.8m-11.6-5c.4 0 .5-.5.7-.7v-.2l-1-.8-.9.6c.5.8.9 1 1.2 1zm8.7-1.7-.1-.1c-.4 0-1.4 0-1.6.8l.6.3c.6 0 1-.5 1.1-1m-19.7 5.7v-.1l-.2-.5.4.1 3.1 1.3h.1l.1.5-3.5-1.3m18.6.8c-.4 0-.8-.5-1-1.1l.1-.5 1-.4a7.6 7.6 0 0 0-2.1-1.7c-.3-.2-.2-.4.1-.2 1.4.6 2 1.2 2.4 1.8h.2c.2 0 .2-.1.3.2v.2l-.4.2v1.1c-.2.3-.4.5-.6.4m.1-.6.2-.6v-.3l-.2.1-.6.3c-.1 0 0 .2 0 .2l.2.3h.4m-8.1-.4-.5-.7-.6.5h-.3l-.4-.7v-.1l.8-.4h.2l.4.7.7-.5h.2l.4.7v.2l-.8.4c0 .1-.1.1-.1 0m4-1.4-.4-.7-.7.4h-.2a12 12 0 0 1-.4-.6v-.3c.3 0 .6-.3.8-.4l.1.1c.2.1.3.3.4.6l.8-.4h.2c0 .2.3.5.4.6l-.1.3-.7.4h-.1m-13-.3-.4-.6v-.2l.6-.4h.2l.4.7v.1l-.7.5h-.1m20.7-6.7h-.1l-.2-.5h.1l.3.1 2.8 1.1.1.1.1.5-3.1-1.3m-12.9-.7v-.1l-.2-.5.4.1 2.7 1.1.1.1.2.5h-.1l-3-1.2m-2.7 1-.4-.8-.7.4h-.3l-.4-.6.1-.2.7-.4h.2l.4.7.7-.5h.2l.4.7v.2l-.8.4h-.1m-105.3 32.8c-.3-.1-.8-.6-1-1.2 0-.3 0-.4.2-.5l.8-.4a7.7 7.7 0 0 0-2-1.7c-.3-.2-.2-.4.1-.2 1.4.6 2 1.3 2.4 1.8h.3l.2.2v.2l-.4.2v1.1c-.2.4-.3.5-.6.5m.1-.7.2-.6v-.3l-.2.1-.6.3c-.1 0 0 .2 0 .2l.2.3h.2s.2.1.2 0m-5.3-.8-2.6-1h-.1l-.2-.5h.4l2.3 1h.1l.2.5m1.6-.5-2.6-1h-.1l-.2-.5h.4l2.3 1h.1l.2.4-.1.1m-6-2.9c-.7-.3-1.1-.6-1.4-1-.7-.8-1.4-2.5-.7-3.1 1-.8 2.4-.2 2.6-.6-.6-.6-2-1.3-3-1.4-1.4-.2-2.8.3-3 1.6-.2.7 0 1.4.3 2 .1.4 0 .4-.2.2-.4-.6-.6-1.7-.6-2.3-.1-1.5.9-2.3 2-2.5 1.6-.3 4 .7 5 1.8.3.4.3 1.4-.3 1.5-.7.1-1.8 0-2.4.5-.4.4-.1.9.2 1.2.3.4.9.9 1.3 1v.1c.4.2.8-.2 1-.5.2-.2.2-.2.2 0l.2.8c-.2.5-.8 1-1.3.7m4.9-.3v-1c0-.6.3-1.4.5-2-.4-1-2.2-1.2-2.6-1-.2 0-.2.3-.3 0 0-.1-.4-1 .3-1 .8-.2 1.7 0 2.2.4.4.3.5.7.6 1 .2-1 .7-1.6 1.3-1.8.7-.2 1.9.2 2.9.8.6 0 1-.2 1.7-.4.2-.1.4-.1.4 0 .5.4.5 1.6 0 2.3a8 8 0 0 1-2.6 2.4h-.4c-.3 0-.2-1 0-1.2-.4-.6-1-2-.5-2.7-1-.4-1.8-.3-2.3.7-.6 1.2-.7 2.4-1 3.6-.1.1-.2 0-.2-.1m4.5-2.2h.1c.3-.2.7-.7.7-.9-.1-.2-.4-.4-.7-.5-.2 0-.7 0-1 .2 0 .1.4 1.2.8 1.2zm2.5-1.6-.1-.4-1.3.5v1.4c.5-.3 1.2-1 1.4-1.5m3.6 12.5-.5-.9v-.2c.3 0 .6-.3.9-.4 0-.1.1-.1.2 0l.5.8v.2l-.9.5h-.2m1.5-1.8-.5-.9v-.2c.3 0 .6-.3.9-.4h.2l.4.8c.1 0 .1.1 0 .2l-.8.5h-.2m-2.4-.2-.5-.8.1-.3.8-.4h.2l.5.8v.2l-.9.5h-.2m7-4-.3-.6v-.1l.7-.4h.1l.4.7v.1l-.7.4h-.1m.5-2.3c-.6-.5-1-1.9-.6-2.7.2-.3.6-.5 1-.5s.7.3.8.9c.3-.4.4-.9.3-1.2 0-.3-.2-.4-.4-.5l-.5-.1c-.3 0-.5 0-.8.2h-.3l-.3.1h-.2c-.8-.6-1.7-1-2.4-1s-1.3.3-1.7.8c-.5.6-.7 2-.9 3v.5l-.1.2-.1-.2-.1-1.2-.6-.3c-.4-.2-.9-.5-1.1-.8-.4-.5-.7-1.5-.6-1.7l.8-.2a2 2 0 0 1 1.7 1v.2-.1c.2-.7.7-1.7 1.6-2h.8c1 0 2 .3 2.7 1h.5l.4-.2.9-.3c.2 0 .5.1.7.3.4.5.5 1.8.5 2.4-.1 1-.8 1.9-1.3 2.3l-.3.1h-.3m1-1.9a.7.7 0 0 0-.6-.3c-.4 0-.7.3-.8.5.2.5.4.7.6.7.3 0 .7-.4.8-.9m-7.2-.3.2-1c-.6-.3-1-.4-1.4-.4h-.5c0 .5 1 1.1 1.6 1.4zm-2.2-5.3h-.1l-.2-.5h.1l.3.1 2.9 1.1v.1l.2.5-3.2-1.3m6.7.9-.5-.7-.7.4h-.2l-.4-.7v-.2l.8-.4h.2l.4.7.7-.4h.2c0 .2.3.5.4.6v.2l-.8.5h-.1m4.7-.2-3.1-1.3h-.1l-.2-.5c0-.1 0-.1.1 0h.3l2.8 1.2h.1l.1.5m2 15-.6-.9v-.2c.3 0 .6-.3.9-.4h.2l.5.8v.2l-.9.5h-.2m1.3-1.6-.5-.9c-.1 0 0-.1 0-.2l.8-.4h.3l.4.8v.2l-.9.5h-.1m-2-.3-.6-.8.1-.3.8-.4h.2l.5.8v.2l-.8.5h-.2m1.4-5.6-.2-.5c0-.1 0-.1 0 0h.4l3.6 1.5.2.5-4-1.5m5 .1v-.2s0-.2 0 0l.3.2.8.2.7-.2-1.2-.7-.2-.3h.2l.9.3c.5.2.6.5.7.5h.1l.3.6-.4.1-1 .3c-.4 0-.9-.2-1.1-.8m6-1.1-2.6-1h-.1l-.2-.5c0-.1 0-.1.1 0h.3l2.3.9.2.5m-4-1.3-.2-.6v-.2c.1-.4.3-1 .2-1.2h-1.5l.2.7c0 .3-.2.3-.3.1 0-.2-.2-.4-.4-.6l-.6-.4c-.8-.5-2.3-.8-3.6-.8-1.4 0-3.7.5-2.6 2.9.2.3 0 .3-.2 0-1.7-2.8.2-4 2.7-4 1.4.1 3.2.4 4.2 1.4l1.2-.3c.5-.1.9-.1 1.1.5a4 4 0 0 1 0 2.6h-.1m2.8-1.9 1-1.2c-1-3.2-3.7-3.3-5.4-3-.5.1-.5 0 0-.3.5-.2 2.6-.6 3.6-.3.7.3 1.3 1 1.8 2 .3.7.5 1.9 0 2.8-.2.6-.6 1-1 1v-1m-3-2-.5-.7-.7.4h-.2l-.5-.7.1-.2.8-.4h.1l.4.7.8-.4h.1l.4.6v.2l-.7.5h-.2m-5.1-1.5a7 7 0 0 1-.4-.6v-.2l.7-.4h.2l.3.7c.1 0 .1.1 0 .1-.1.2-.5.3-.6.4h-.2m16.4 13.7-3.9-1.6-.2-.5.4.1 3.5 1.4h.2v.5c.1 0 0 0 0 0m-1.5-2.2-.4-.9.3-.7c.3-1.7.5-3.7 0-5.5-1 1.9-3.8 4.3-5.6 5.2-.2.1-.2-1.3 0-1.8l1.3-.7c.2 0 .3 0 .4.3 1.1-1 2.8-2 3.6-3.5-.2-.5-.5-1-1.3-1.6l-.6-.2c-.1 0-.2-.7-.1-1l2.8.6c.3.6 0 1.7-.3 2.2.6 1.4.7 3.4.4 5.7l.4.6c0 .2-.6.7-.7 1.1l-.1.2h-.1m.2-8.8-1.2-.2c.3.2.7.6.8 1l.4-.8m32.5 10.7-.7-1.3-.5.2c-.2 0-.3 0-.3-.2a5 5 0 0 1-.4-.7v-.3s0-.1 0 0l.5.6c.6-.3 1.4-.2 2 .2.4.3.7.8.6 1.3 0 .2-.3.4-.5.4l-.6-.3m.7-.4v-.3c0-.2-.7-.4-1-.5h-.2l.5.7c.2.2.4.3.7 0m-5.6-.2-.1-.2s0-.2 0 0l.3.2.8.2c.3 0 .7-.2.7-.3l-1.2-.6-.2-.3h.2l1 .3c.4.2.5.5.6.5h.1c.2.1.3.5.3.6l-.4.1-1 .3c-.4 0-.9-.2-1.1-.8m-16.5-2.7-.1-.1-.2-.5h.1l.3.1 3.6 1.4h.1l.1.5-4-1.4m18.3 1.2-.4-1 .3-.6.8-3.9.4-2.6c-.3-.4-1.1-.6-1.5-.6-.3 0-.5 0-.7.2-.2.2-.2.5-.1.7v.1h.3c.2.3.5 1.3.3 2 0 .4-.6.6-1.4.6l-1.7-.2c-1-.2-4.5-.8-7-.8-1.3 0-2.1.2-2.5.5.3.7 2.7 2.4 3.9 2.6.2.2.4.7.3 1-1-.2-2.5-1.3-3.3-2-.7-.5-1.4-1.5-1.4-2.4 0-.4 1-.5 1.8-.6h1c1.9 0 3.7.3 5.5.6a57.9 57.9 0 0 0 3 .4c.9 0 1.3-.3 1.4-.7-4-.7-7.4-1.4-10.5-1.6h-.7c-1 0-2.6.1-3.3 1v.3h-.1c-.5-1-1.7-1.4-2.7-1.4-.6 0-1.1.2-1.4.5v.3l.1.3v.2c-.5-.7-1-1-1.6-1.2-1.2-.4-2.3-.6-3.3-.6-.7 0-1.3 0-1.8.3-1 .4-1.2 1-.9 1.9v.3l-.1-.2c-.2-.3-.7-1-.4-1.9.2-.5.8-1.2 2.5-1.4h.7c1.9 0 3.6.7 4.4 1.4.3-.5.9-.8 1.7-.8 1 0 2.2.6 2.4 1.2v.1h.1c.3-.8 1.5-1.3 3.5-1.3 3 0 7.3 1 9.8 1.5l1.2.2c-.1-.8-.3-1.9.7-2h.3a2 2 0 0 1 1.7.8c.2.3.2 1.1.1 1.4 0 .8-.2 1.9-.5 2.9l-.5 2.7.4.7-.3.4-.4.7h-.1m2.4-.9-.2-.9v-.4c.5-2.3 1-4.5 1.2-6.7 0-.2 0-.2 0 0 .2.4.2.9.2 1.4 0 1.9-.8 4.7-1 6.6l-.2.2v-.2m-25-.4c-.4 0-.9-.6-1-1.2v-.5l1-.3a7.6 7.6 0 0 0-2-1.8c-.4-.2-.3-.4 0-.2 1.4.6 2 1.3 2.4 1.9l.3-.1.2.2v.3h-.4v1.2c-.2.4-.3.5-.6.5m.1-.6c0-.1.2-.3.2-.7v-.2h-.2l-.6.3c-.1 0 0 .2 0 .2l.2.3h.2c0 .1.2.1.2 0m6.8-.5-.5-.7-.7.4h-.2l-.4-.7v-.2l.8-.4h.1l.5.7.7-.4h.2c0 .2.3.5.4.6l-.1.2-.7.5h-.1m-3.7-.1-.2-.5.3-.4c.4-.7.7-1.5.6-2.5 0-.1-.1-.2 0-.2.2 0 .3.8.3 1.2 0 1-.4 1.8-.9 2.4h-.1m7.2-9.2h-.1l-.2-.5c0-.1 0-.1.1 0h.3l3.6 1.5h.1l.2.5-4-1.5m-11.7.7-.4-.6.1-.2.6-.4h.2l.4.7v.1l-.7.4h-.2m42.4 11.4-3.1-1.2-.1-.1-.2-.5h.1l.3.1 2.8 1.1.1.1.2.4m-12.8-1.7-.3-.5.4.1 3.6 1.4h.1l.1.5-4-1.5m6.8 1-.5-.8v-.2c0-.2.3-.5.4-.6.2-2.2 1-5 1.2-6.2-.1-.7-1-.6-1.5.2-.8 1.1-.8 4.9-1.3 7.2-.1.3-.3-.5-.4-1l.9-5.4c-.8-1.2-4.4-2.2-5.8-1.2-.9.8-.4 1.6-.1 2.1 0 .3 0 .4-.2.2-1-1-1-2.7 0-3.3 1.7-1.1 5.9.1 6 1.6.2-.8.7-1.6 1.4-1.9.5-.2 1 .2 1 .6.2.6.2 1.4.2 2-.2 1.6-.7 3.3-1 4.8.2.2.5.5.5.7 0 .2-.5.4-.7 1.2-.1.1-.2 0-.2 0m1.8-1.8-.2-.5.3-.4c.5-.7.7-1.5.6-2.5v-.1c.2 0 .3.7.3 1.1 0 1-.4 1.8-.9 2.4m2-.4a7 7 0 0 1-.3-.7v-.2l.7-.3h.2l.3.6v.2l-.7.4m-8.2-.5c-.3-.4-.8-1.1-.8-1.7l.2-.4.5-.2.6-.1v-.1c-.6-.5-1.2-.7-2-.5-.3 0-.4-.2-.1-.3.7-.3 1.6-.4 2.2.2.3.2.6 1 .4 1.4-.2.2-.5.2-1 .2 0 0-.2 0-.3.2v.4l.3.3h.2l.1-.1c0-.1.2-.1.2 0l.2.5v.3l-.1.1-.2.1-.4-.3m8.6-2-.2-.4.1-.7c1-.4 1.6-1 1.7-2l-2-.3c-.4 0-.3.2-.4.2-.1 0-.2-.1-.2-.4 0-.6 0-1 .6-.9.8 0 1.8.3 2.1.6.2.2.3 1 .3 1.4 0 1.3-1 2.2-1.9 2.5m-4.6-6.2h-.1l-.2-.5h.4l2.3 1h.1l.2.4-.1.1-2.6-1m27.4 14.2c-.6-.5-1.5-1-2.2-1-.5 0-.8.2-1 .4h-.3c-.1-.3-.4-.8-.4-1.1v-.2l.4.7c.4-.2.9-.3 1.4-.3.7 0 2 .5 2.1 1.4m-1.6-2.1-.3-.7v-.3l.2-.5 1-5.6.2-1.1c-.3-.3-1.1-.6-1.9-.6-.4 0-1 .1-1.5.5a3 3 0 0 0-.5.7l-.4.4-.2.1c-.2 0-.3 0-.4-.2-.3-.2-1.2-1.1-.6-2-.1-.8-2.6-2-3.4-2.5l-.1-.1h.2c1 .2 3.2.7 3.5 2.4.4-.2 1.4-.5 1.8-.5.2 0 .2.2.2.5.4-.2.9-.3 1.3-.3l1 .1c.5.2 1 .4 1.1.8.3.5.2 1.4.2 1.8l-.6 3.3a29.3 29.3 0 0 0-.3 2.2l.3.4-.3.4-.4.8m-3.5-7.7c.2-.1.3-.4.4-.7 0-.2 0-.4.2-.5-.5 0-1.3.3-1.5.6.1.4.5.6.8.6h.1m6 7.4v-.2l-.2-.8v-.5c0-.6.2-1.2.3-1.7l.7-3.6c.2-1 .4-2 .4-2.8 0-.1.1-.1.1 0 .2.5.2 1 .2 1.5l-.3 2.4-.7 3a26.5 26.5 0 0 0-.5 2.7zm-4.6-2.6c-1-.6-2-.9-3.1-.7-.3 0-.5 0-.7.2-.2 0-.3-.1-.3-.3 0 0-.4-.8-.2-.8l.2.4.5-.1c.6-.2 1.3-.1 1.9 0 .5.1 1 .4 1.5.7.2 0 .4.2.4.5s0 .2-.2.1m-69.4 27.8-.9-1.2-.5.2-.3-.2-.3-.7-.1-.3c0-.1 0-.1.1 0 .2.1.3.6.4.5.6-.3 1.4-.1 2 .3.4.3.7.8.6 1.3 0 .2-.2.4-.5.4-.2 0-.4-.2-.5-.3m.6-.4.1-.3c0-.2-.7-.5-1-.5h-.2c0 .3.2.5.5.7.2.2.4.2.6 0m17.1 0-.8-1.2-.5.2-.3-.2a5 5 0 0 1-.3-.7l-.1-.3c0-.1 0-.1 0 0 .2.1.4.6.5.5.6-.3 1.4-.1 2 .3.4.3.7.8.6 1.3 0 .2-.3.4-.5.4l-.6-.3m.7-.4.1-.3c0-.2-.7-.5-1-.5h-.3l.5.7c.2.2.5.2.7 0m10.7 0-.8-1.2-.5.2c-.1 0-.2 0-.3-.2l-.3-.7-.1-.3s0-.1.1 0l.4.6c.6-.3 1.4-.2 2 .2.4.3.7.8.6 1.3 0 .2-.3.4-.5.4l-.6-.3m.7-.4.1-.3c0-.2-.7-.4-1-.5h-.2l.5.7c.2.2.5.3.7 0m-20-2.2v-.1l-.2-.5.4.1 3.6 1.4v.1l.2.4v.1l-4-1.5m12.2-.2-.1-.1-.2-.5h.1l.3.2 3.6 1.3.1.1.2.5h-.1l-4-1.5m-22.7 1.3-.2-.8v-.5l.4-1.7.7-3.7.4-2.7c0-.2.1-.2.1 0 .2.4.2 1 .2 1.5l-.4 2.3-.6 3c-.2 1-.4 1.8-.4 2.6 0 .2-.1.2-.2.2v-.2m-2.3 0-.4-.7v-.2l.3-.7c.2-2 .6-3.3 1.2-6.4-.6-.5-1.7-.5-2-.2-.1.2-.2.1-.3-.2 0-.7.2-.9.4-1-1-2.4-3.2-3-5.7-2-.2 0-.3-.1 0-.3 2.8-1.5 5.4-1.1 6.1 2.2l1.2.3c1 .6.5 2.5.3 3.5l-.7 3.6.5.6v.2l-.7 1.2c0 .1 0 .2-.2 0m19.9-.3-.1-.9v-.4l.3-1.8.7-3.6c.2-1 .4-1.9.4-2.7 0-.2.1-.2.1 0 .2.4.2.9.2 1.4l-.3 2.4-.7 3-.4 2.6-.1.1-.1-.1m-13.4-1.5-.1-.1-.2-.5h.1l.3.1 3.6 1.4.1.1.2.4-.1.1-4-1.5m-11.5 0v-.2l-.2-.5.4.2c.5.2 3 1 3.6 1.4h.1l.1.5-4-1.5m22.7 1.3c-.1-.3-.5-.7-.4-.8l.2-.7 1.2-6.3c-.8-.4-1.6-.4-2-.1 0 .1-.1 0-.1 0-.2-.7 0-1.1.3-1.2-.4-1-1-1.7-1.8-2-.9-.6-2.4-.7-4 0 0 0-.2-.2 0-.3 1.1-.6 3-1.1 4.2-.7 1.2.4 1.9 2 2 2.9.4 0 1.2 0 1.5.5.3.4.3 1.5.1 2.6l-.8 4.2c.3.3.6.5.5.6 0 .2-.5.5-.7 1.3 0 .1-.1 0-.2 0m13.8-.2v-.1l-.2-.9v-.5l.4-1.7.7-3.6.4-2.7c0-.2 0-.2.1 0l.2 1.5-.4 2.3-.6 3-.5 2.6v.2zm-2.8-1.2-.2-.3v-.2l.1-.3c-.2-.3-.4-.3-.6-.2l-.2.5v.1c-.3-.1-.2-.1-.2-.2 0-.5-.3-.7-.7-.8-.3 0-.4.2-.3.7 0 .1 0 .2-.1 0-.4-.8-.2-1.2.2-1.2.3 0 .7 0 .9.6.2-.3.4-.3.7-.3.4.1.4.3.5.6v1m-19-1-.1-.2s0-.2 0 0c.2 0 .2.1.3.2l.8.2.7-.2-1.2-.7-.2-.2.2-.1 1 .3c.4.2.5.4.6.5h.1c.2.1.3.4.3.6h-.4c-.3.1-.6.3-1 .3s-.9-.2-1.1-.7m6.6.4-.2-.3v-.1l.1-.4c-.2-.2-.4-.3-.6-.1l-.2.4v.1c-.3-.1-.2 0-.2-.2 0-.5-.3-.7-.7-.8-.3 0-.4.2-.3.7 0 .1 0 .2-.1 0-.4-.7-.2-1.2.2-1.2.3 0 .7.1.9.6.1-.3.4-.3.7-.3.3.1.4.3.5.6v1m-17.9-.3-.1-.3v-.5c-.2-.2-.4-.3-.6-.1l-.1.5c0 .1 0 .2-.1 0l-.2-.1c0-.6-.3-.8-.7-.8-.2 0-.4.1-.2.6 0 .1 0 .3-.2 0-.4-.7-.1-1.1.2-1.2.4 0 .7.1 1 .6 0-.2.4-.3.6-.2.4 0 .5.2.6.5v1c-.1.1-.1 0-.2 0m8.3-.8-.2-.5s0-.2.3-.4c.4-.7.7-1.5.5-2.5v-.2c.3 0 .4.8.4 1.2 0 1-.4 1.8-1 2.4m42.6-1-.1-.2s0-.2 0 0l.3.2c.3.2.5.2.8.2l.7-.2-1.2-.7-.2-.2c0-.1.1-.1.2 0 .4 0 .6 0 1 .2s.5.5.6.5h.1l.3.6-.4.1-1 .3c-.4 0-.9-.2-1.1-.8m-19.7-.5-.2-.8v-.2c.3-1.1.7-1.6 1.2-2.7 0-.3-.2-.5-.6-.4-.6.2-1.3.6-1.6 1.8l-.3 2.1c0 .3 0 .3-.1 0l-.3-.6v-.2l.4-2.4c-.2-.7-1.6-1.7-2.4-.9-.4.5-.3 1.7-.3 3.4 0 0 0 .2 0 0-.2-.1-.2-.2-.3-.4v-.5c-1-.3-1.5-.5-2-1-.3-.4-.5-1-.7-1.6l.1-.3c1.6 0 1.6 0 2.6.7 0-1.3.5-1.7 1.2-1.7s1.6.7 2 1.7c.3-.6 1.3-1.3 1.7-1.3.3 0 .5.1.6.3l.3 1.2c0 .8-.4 1-.7 2.2l-.4 1.6c0 .1-.2.3-.2 0m-4.6-3.5c-.3-.3-1.5-.3-2-.1.4.6 1 .8 2 1.1v-1m-15.9 2.3c0-.2 0-.2.2-.1.6.2 1.2.7 3-.4-1 0-1.7-.2-2.6-.5-1.4-.5-1.1-1.9-2.6-1.5-.4 0-.4.2-.6.5l-.2.4c-.1.2-.1.2-.2 0l-.2-.7v-.3c.3-.3.5-.7.6-1.3v-.2c-1.5-2.3-6.7-3.6-9.6-3.8-2.9-.2-5.8 0-8.6 1a17.8 17.8 0 0 0-4.8 2.2l.2-.4a9 9 0 0 1 4.8-3c3-.9 6.6-1.1 10-.6 2.8.4 8.7 2.1 8.4 5.4.5-.4 1.1.1 1.4.5 0-.6.5-.8 1-1l1 .1c.3.3.3.7.3 1 0 .4-.1 1-.5 1.2.7.2 3.4.8 4.9.2l.6.8v.1c-1.1.1-1.8.3-2.4.5-1.7.6-1.8 1.2-2.5 1.2-.6 0-1.2-.3-1.6-1.3m1-2.8a3 3 0 0 0-1.3.4c.1.3.3.4.4.4.5 0 .9-.5 1-.8m-5.3 3.9-.4-.7v-.2l.7-.3h.1l.4.6v.2l-.7.4h-.1m48.7-1.4c.5-.7 1-1.4 1.3-2.4.1-.4-1.4 0-1.8 0l.1.6c0 .2-.1.1-.2 0-.2-.7-.4-1.2-.6-1.3l-1 .4.3.7v.2c-.9-1.2-2-1.7-3.2-1l.2.7c0 .1 0 .2-.2 0-.7-.5-3-1.2-5.8-1.3-2-.1-4.3.1-5.7.9a3 3 0 0 0-.9.8l-.1.2h-.1c-.2.2-.3.2-.5 0-.7-.5-1-1.6-.6-2.2-.6-1-2.5-1.8-3.6-2.4-.2 0-.1-.3 0-.2 2.2.4 3.3.9 4 2.5l1.8-.5.3.5a16 16 0 0 1 11 .7c.5-1.6 2-1 2.6-.4.4-.3 1.1-.6 1.3-.6.2 0 .5.5.8 1 .3-.3 1.4-.7 1.8-.5l.3.6c.4 1.8-.5 3-1.3 4l-.2-1m-17.2-3c-.7 0-1 .2-1.3.4 0 0-.1 0 0 0 0 .3.3.8.5.7.2 0 .4-.5.8-1.1m-46.2 2.3c0-.1 0-.2.2-.1.8.7 2.5.2 3.9-.3-1.5-.5-3.4-1.6-4.4-.7v.6l-.4-.4c-.5-.4-1.2-.6-2.1-.9-1.7-.2-3.4-.3-4.6 1.3-.2.3-.3.6-.6.6-.4 0-.9-.5-1-1.1-.2-.5-.2-1.2 0-1.4-.9-1-1.6-1.4-3.3-2.3-.2-.2-.1-.3.1-.3.6.1 3.2 1 3.6 2.5l1.7-.5.3.6c1.8-.9 4.8-.4 6.1.8.5-.4.8-.7 1.3-.7 1.2 0 2.4.8 3.4 1.2 1 .4 1.6.5 2.7.2l.6 1c-1.1 0-1.9 0-2.8.2-2 .4-2.4 1-3.2 1-.8 0-1.4-.8-1.5-1.3m-8-.6c0-.1.1-.5.5-1.1a3 3 0 0 0-1.2.4v.2c0 .1.3.6.5.6h.1m12.6-1.6-3.1-1.2v-.1l-.2-.5.4.1 2.7 1.1.1.1.1.4v.1m-5.5-1.2c0-.3-.3-.5-.4-.8l-.7.5h-.2a12 12 0 0 1-.4-.7v-.2l.8-.4h.1l.4.7.8-.5h.1l.4.7c.1.1 0 .2 0 .2l-.7.5h-.2m33.1-1.4v-.1l-.2-.5h.4l2.3 1 .2.5-2.7-1m32.2.8a7 7 0 0 1-.4-.7v-.2l.7-.3h.1l.4.6v.2l-.7.4h-.1m-74.7-1.8-.2-.5c0-.1 0-.1 0 0h.4c.5.3 2 1 2.7 1.2h.1l.2.5h-.1l-3-1.2m55-.2v-.1l-.2-.5h.1l.3.1 2.8 1.2.2.5-3.1-1.2m18-1h-.1l-.2-.5h.1l.3.1 3.6 1.4.1.1.2.4v.1l-4-1.5m-48.8-.3v-.1l-.2-.5c.2 0 .3 0 .4.2l3.6 1.3v.1l.2.5-4-1.5" fill="#231f20" fill-rule="evenodd"/></g></g></svg>