<svg xmlns="http://www.w3.org/2000/svg" xml:space="preserve" viewBox="0 0 283.3 399"><defs><clipPath clipPathUnits="userSpaceOnUse" id="g"><path d="M115.9 295h2v-4h-2z"/></clipPath><clipPath clipPathUnits="userSpaceOnUse" id="a"><path d="M0 547h382.7V0H0z"/></clipPath><clipPath clipPathUnits="userSpaceOnUse" id="c"><path d="M0 547h382.7V0H0z"/></clipPath><clipPath clipPathUnits="userSpaceOnUse" id="d"><path d="M151.2 337.7h1.3v-4h-1.3z"/></clipPath><clipPath clipPathUnits="userSpaceOnUse" id="e"><path d="M133.8 316h1.7v-3.9h-1.7z"/></clipPath><clipPath clipPathUnits="userSpaceOnUse" id="f"><path d="M202 295h2.6v-4H202z"/></clipPath><clipPath clipPathUnits="userSpaceOnUse" id="b"><path d="M85.1 423.2h212.5V123.9H85z"/></clipPath><clipPath clipPathUnits="userSpaceOnUse" id="h"><path d="M147.2 273h1.9v-2.8h-2z"/></clipPath><clipPath clipPathUnits="userSpaceOnUse" id="i"><path d="M191 252.3h2.4v-4H191z"/></clipPath><clipPath clipPathUnits="userSpaceOnUse" id="j"><path d="M160.3 209.5h2.5v-4h-2.5z"/></clipPath><clipPath clipPathUnits="userSpaceOnUse" id="k"><path d="M0 547h382.7V0H0z"/></clipPath><clipPath clipPathUnits="userSpaceOnUse" id="l"><path d="M168.1 406.9h46.5v-13.6H168z"/></clipPath><clipPath clipPathUnits="userSpaceOnUse" id="m"><path d="M111.3 346.8h160.4V201.5H111.3z"/></clipPath></defs><g clip-path="url(#a)" transform="matrix(1.33333 0 0 -1.33333 -113.5 564.2)"><g clip-path="url(#b)"><path d="M85.1 423.2V124h212.5v299.2zm92-7.5 32.1-.1c1.6-.3 2-2 2.3-2.7 1.6 0 3.4-1 3.7-1.2-1-2.6 0-3.7.4-4.3.4-.7 1.3-1.1 2-1.3 1.3-.5 2.7.2 3 .5l.8.6-.2-1.6c0-.4.6-1 1-1.3 1.3-.6 1.8.6 1.9 1.2 0 .5-.3.9-.4 1.2 0 0 1.5.3 2-.3 1-.6.6-2.5.5-3 2.3 1 3.2-.6 3.5-.9a49 49 0 0 1 2.6-2.4l.2-.2-.2-.2a49 49 0 0 1-2.6-2.4c-.3-.3-1.2-1.9-3.5-1 0-.3.5-2.3-.4-2.8-.6-.7-2.1-.3-2.1-.3.1.3.5.6.4 1.2-.1.5-.6 1.7-2 1.2-.3-.3-.9-1-.9-1.3 0-.4 0-.9.2-1.7l-.8.7c-.3.2-1.7 1-3 .5-.7-.2-1.6-.7-2-1.3-.4-.6-1.3-1.8-.4-4.3-.3-.2-2.1-1.3-3.7-1.3-.3-.7-.7-2.4-2.3-2.6l-32-.1v.7-.7l-3.8.1c-1.5.3-2 2-2.3 2.7-1.6 0-3.3 1-3.7 1.2 1 2.6 0 3.7-.3 4.3-.4.7-1.4 1.1-2 1.3-1.4.5-2.7-.2-3-.5l-.8-.6c.2.8.1 1.2.1 1.6 0 .4-.6 1-1 1.3-1.3.6-1.8-.6-1.8-1.2-.1-.5.2-.9.3-1.2 0 0-1.4-.3-2 .3-1 .6-.5 2.5-.5 3-2.3-1-3.2.6-3.5.9a49 49 0 0 1-2.5 2.4l-.3.2.2.2a49 49 0 0 1 2.6 2.4c.3.3 1.2 1.9 3.5 1 0 .3-.5 2.3.4 2.9.7.6 2.1.2 2.1.2 0-.2-.4-.6-.3-1.2 0-.5.5-1.7 1.9-1.2.3.3 1 1 1 1.3 0 .4 0 .9-.2 1.7l.7-.7c.4-.2 1.7-1 3.1-.5.6.2 1.6.7 2 1.3.4.6 1.3 1.8.3 4.3.4.2 2.1 1.3 3.7 1.3.3.7.8 2.4 2.3 2.6h1.4l2.3.1zm57.5-65.5a88.1 88.1 0 1 0-88-152.6 88.1 88.1 0 0 0 88 152.6" fill="#bfe8c1" fill-rule="evenodd"/></g><path d="M151.2 342.4h-.1a.8.8 0 0 1-.9-.7 1 1 0 0 1-.7-1.1 4 4 0 0 1-2-1.8 6.2 6.2 0 0 1-.9-3.4c0-1.2.3-2.2.8-2.9.5-.8 1-1.4 1.7-1.7 0-.4.4-.8.9-.8a.9.9 0 0 1 1-.3l.2-.2.2-.1a1 1 0 0 1 .2-.1h.6l.2.2.2.2.3-.1c.3 0 .6.1.8.4.4 0 .8.4.9.9.5.3 1.2.8 1.7 1.6.4.7.7 1.7.7 3a4.7 4.7 0 0 1 0 .3c0 1.3-.3 2.2-.7 3a4 4 0 0 1-2 1.8v.2c0 .4-.4.8-.8.9 0 .4-.4.7-.8.7h-.2c0 .4-.3.7-.7.7-.3 0-.5-.3-.6-.7M134 320.9h-.1a.8.8 0 0 1-.9-.7 1 1 0 0 1-.7-1.1 4 4 0 0 1-2-1.8 6.2 6.2 0 0 1-.9-3.4c0-1.2.3-2.2.8-2.9.5-.8 1-1.4 1.7-1.7 0-.4.4-.8.9-.8a.9.9 0 0 1 1-.3l.2-.2.2-.1a.9.9 0 0 1 .2-.1h.6a1.6 1.6 0 0 1 .2 0l.2.2.2.2a.9.9 0 0 1 1 .3c.5 0 1 .4 1 .9.5.3 1.2.8 1.7 1.6.4.7.7 1.7.7 3a4.9 4.9 0 0 1 0 .3c0 1.3-.3 2.2-.7 3a4 4 0 0 1-2 1.8 1 1 0 0 1-.8 1.1c0 .4-.4.7-.8.7h-.2c0 .4-.3.7-.7.7-.5 0-.7-.3-.8-.7M116.2 299.7h-.1a.8.8 0 0 1-.9-.7 1 1 0 0 1-.7-1.1 4 4 0 0 1-2-1.8 6.2 6.2 0 0 1-.9-3.4c0-1.2.3-2.2.8-2.9.5-.8 1-1.4 1.7-1.7 0-.4.4-.8.9-.8a.9.9 0 0 1 1-.3.9.9 0 0 1 .4-.3 1 1 0 0 1 .2-.1h.6l.2.2.2.2.3-.1c.3 0 .6.1.8.4.4 0 .8.4.9.9.5.3 1.2.8 1.7 1.6.4.7.7 1.7.7 3a4.7 4.7 0 0 1 0 .3c0 1.3-.3 2.2-.7 3a4 4 0 0 1-2 1.8 1 1 0 0 1-.8 1.1c0 .4-.4.7-.8.7h-.2c0 .4-.3.7-.7.7-.3 0-.5-.3-.6-.7M202.6 299.7h-.1a.8.8 0 0 1-.9-.7 1 1 0 0 1-.7-1.1 4 4 0 0 1-2-1.8 6.2 6.2 0 0 1-.9-3.4c0-1.2.3-2.2.8-2.9.5-.8 1-1.4 1.7-1.7 0-.4.4-.8.9-.8a.9.9 0 0 1 1-.3l.2-.2.2-.1a1 1 0 0 1 .3-.1h.5a.9.9 0 0 1 .3.2l.2.2a.9.9 0 0 1 1 .3c.5 0 1 .4 1 .9.5.3 1.2.8 1.7 1.6a6.2 6.2 0 0 1 .7 3v.3c0 1.3-.3 2.2-.7 3a4 4 0 0 1-2 1.8v.2c0 .4-.4.8-.8.9 0 .4-.4.7-.8.7h-.2c0 .4-.3.7-.7.7-.4 0-.6-.3-.7-.7M147.4 278.3h-.1a.8.8 0 0 1-.9-.7 1 1 0 0 1-.7-1.1 4 4 0 0 1-2-1.8 6.2 6.2 0 0 1-.9-3.4c0-1.2.3-2.2.8-2.9.5-.8 1-1.4 1.7-1.7 0-.4.4-.8.9-.8a.9.9 0 0 1 1-.3l.2-.2.2-.1a1 1 0 0 1 .2-.1h.6a1.6 1.6 0 0 1 .2 0l.2.2.2.2.3-.1c.3 0 .6.1.8.4.4 0 .8.4.9.9.5.3 1.2.8 1.7 1.6.4.7.7 1.7.7 3v.3c0 1.3-.3 2.2-.7 3a4 4 0 0 1-2 1.8v.2c0 .4-.4.8-.8.9 0 .4-.4.7-.8.7h-.2c0 .4-.3.7-.7.7-.5 0-.7-.3-.8-.7M191.5 257h-.1a.8.8 0 0 1-.9-.7 1 1 0 0 1-.7-1.1 4 4 0 0 1-2-1.8 6.2 6.2 0 0 1-.8-3.4c0-1.2.3-2.2.8-2.9.5-.8 1-1.4 1.7-1.7 0-.4.4-.8.9-.8a.9.9 0 0 1 1-.3l.2-.2.2-.1a.9.9 0 0 1 .2-.1.8.8 0 0 1 .4 0 1.4 1.4 0 0 1 .2 0l.2.2.2.2.3-.1c.3 0 .6.1.8.4.4 0 .8.4.9.8.6.4 1.2.9 1.7 1.7a6.2 6.2 0 0 1 .7 3v.3c0 1.3-.3 2.2-.7 3a4 4 0 0 1-2 1.8 1 1 0 0 1-.8 1.1c0 .4-.4.7-.8.7h-.2c0 .4-.3.7-.7.7-.4 0-.6-.3-.7-.7M160.9 214.3h-.1a.8.8 0 0 1-.9-.7 1 1 0 0 1-.7-1.1 4 4 0 0 1-2-1.8 6.2 6.2 0 0 1-.8-3.4c0-1.2.3-2.2.8-2.9.5-.8 1-1.4 1.7-1.7 0-.4.4-.8.9-.8a.9.9 0 0 1 1-.3.9.9 0 0 1 .4-.3.9.9 0 0 1 .2-.1h.5a1.6 1.6 0 0 1 .2 0l.2.2.2.2.3-.1c.3 0 .6.1.8.4.4 0 .8.4.9.9.5.3 1.2.8 1.7 1.6a6.2 6.2 0 0 1 .7 3 4.7 4.7 0 0 1 0 .3c0 1.3-.3 2.2-.7 3a4 4 0 0 1-2 1.8 1 1 0 0 1-.8 1.1c0 .4-.4.7-.8.7h-.2c0 .4-.3.7-.7.7-.5 0-.7-.3-.8-.7" fill="#bfe8c1" fill-rule="evenodd"/></g><g clip-path="url(#c)" transform="matrix(1.33333 0 0 -1.33333 -113.5 564.2)"><g clip-path="url(#d)"><path d="m151.4 337.7-.2-.8.2-.2a6 6 0 0 0 1-2.7v-.3l.1.3c.1.6 0 1.3-.1 2-.2.5-.6 1-1 1.7" fill="#231f20" fill-rule="evenodd"/></g><g clip-path="url(#e)"><path d="M134.5 316c-.7-.2-.8-1.2-.5-1.8.4-.7.7-1.2.8-2h.2c0 1-.2 1.8-.7 2.5l-.1.3.6.2h.7l.2.8a2 2 0 0 1-1.2 0" fill="#231f20" fill-rule="evenodd"/></g><g clip-path="url(#f)"><path d="m204.5 294.9-.1-.5c-.2-.2-.7-.2-.8 0v.5h-.1c0-.2 0-.3-.2-.4-.2-.4-.6-.3-.9 0l-.3.3c0 .1 0 .1 0 0l-.1-.6v-.3l.6-1.2.3-1.5.1-.2.1.1c.1.7 0 1.4-.3 2.1v.1h.1c.3 0 .5.2.6.4.3-.3.7-.3 1 0 .1.3.1 1 0 1.2" fill="#231f20" fill-rule="evenodd"/></g><g clip-path="url(#g)"><path d="M116.7 294.9c-.3-.3-.8-.7-.8-1.4l.1-.5c.3-.2.6-.2.6-.4l-.5-1c0-.5.3-.7.5-.7.6 0 1 .6 1.3 1h-.8c-.4 0-.6 0-.6.2l.5 1v.4c-.3.2-.8.3-.8.5s.3.3.5.4v.5c.1 0 .1.1 0 0" fill="#231f20" fill-rule="evenodd"/></g><g clip-path="url(#h)"><path d="M147.2 271.4c0-.6.3-1.2.9-1.2.7 0 1 .5 1 1.3 0 .5-.4 1.5-1 1.5s-.9-1.2-.9-1.6m1.7 0c0-.2-.4-.4-.7-.4-.3 0-.7.2-.7.5s.2.6.6.6c.4 0 .7-.4.8-.7" fill="#231f20" fill-rule="evenodd"/></g><g clip-path="url(#i)"><path d="M191 252.3v-.6c0-.2.3-.4.5-.4h1l.1-1.3c0-.6.2-1.1.5-1.6l.2.6v.2c-.3.8-.3 1.4-.5 2.4 0 .3 0 .6-.5.5l.1.1h-.7l-.7.1" fill="#231f20" fill-rule="evenodd"/></g><g clip-path="url(#j)"><path d="M162.5 209.4c-.4-.8-.7-1.7-.8-2.3-.1.3-.6 1.6-1.2 2.3h-.1v-.9c.6-1 1-1.8 1.3-3h.2c.2 1.2.4 2.1.9 3v.9c-.2.2-.3.1-.3 0" fill="#231f20" fill-rule="evenodd"/></g></g><g clip-path="url(#k)" transform="matrix(1.33333 0 0 -1.33333 -113.5 564.2)"><g clip-path="url(#l)"><path d="M197.3 406.5c-.2-.2-.3-.8 0-1l.5-.3c-1-1.3-1.7-1.5-2.5-1.7-.1-.1-.1-.2 0-.2 0 0 .9.2 1.8.9.6.4.9 1 .9 1l.2-.2.2-.1c.1.4 0 .6-.2.7.1-.1.3.5-.1 1.1 0 0-.4.4-.8-.2m.6-.1c.2-.3.2-.6.2-.7l-.5.2c-.1 0-.2.1-.1.2.2.3.3.3.4.3m-4 .4-.3-.8.1-.4 1.2-8.4.2-2v-.2l.3 1.1c0 .6 0 1.4-.2 2.6l-.8 6 .5-.5.1.1-1 2.4c0 .1 0 .2 0 0m-2.5 0-.2-.5 1.3-9c0-.4.2-.8-1.2-1-.2-.1-1-.1-1.5.4.3.2.9.6.9 1.7-.2 1.6-1 1.6-1.3 1.5-.2 0-.7-.3-.8-1.4 0-.4 0-1 .3-1.4-.7-.4-2.7-1.4-4.1-1-.4 0-1.4 0-1.8 1.9l-.5 4-.5 3.6-.2 1.1c-.1.2-.1.2-.2.1s-.3-.4-.2-1l.6-3.2.4-4c0-.3 0-3.1 2.1-3.5.5-.1 1.4-.2 3 .4l1.7.8c.2-.3.6-1.2 2.2-1 .3 0 1.1.2 1.5 1.2 0 .2.1.8 0 1.6l-1 6.8.6-.5s.1 0 0 .1l-.9 2.3c0 .1 0 .2 0 0m-1.4-8.6c.2-.4-.7-1-.8-1l-.4 1c0 .2 0 .5.3.6.4.2.7-.2 1-.6m-4.5 8.4c-.4-.5-.4-1.2-.5-2 0 .2-.3 1.2-1.4 1.8 0 0-.2 0-.2-.3v-.5l.4-.4h.2c0 .1 0 .3.1.2.1-.1.6-.5.9-1.5h.2l.1 1.5c0 .2.2.9.6.6l.2-.2c.1 0 .2-.2.2 0 0 .1.2.4 0 .6 0 0-.4.7-.8.2m4.6-1.8a1293.5 1293.5 0 0 0-7-3.9v-.2c0-.2 0-.3.2 0l6.6 3.5.3.3v.2c.1.1.2.2-.1.1m-1.7-3-.4-.6.7-.6.5.6-.7.6zm-2.8-1.8c0-.2-.4-1-.3-1.8 0-.2.2-.6.5-.6.2 0 .4 0 .6.6v.3s0 .1-.1 0c-.1-.3-.4-.6-.7-.2 0 0-.2.4 0 1.3l.2.4c0 .1 0 .2-.2 0m22.4 6.6c-.4-.5-.4-1.2-.5-2 0 .2-.4 1.2-1.4 1.8 0 0-.2 0-.2-.3v-.5l.4-.3h.2s0 .2.1.1c0 0 .6-.5.9-1.4 0-.1.1-.1.2 0l.1 1.4c0 .3.2 1 .6.6l.2-.1.2-.1v.6c0 .1-.4.7-.8.3m3.4-.2c-.1-.3-.2-.8 0-1l.5-.3c-1-1.3-3-2.2-3.5-2.6-.2 0-.2-.1 0-.1 0 0 1.6.4 3 1.6l.8 1 .2-.3c.1 0 .2-.1.2 0 .1.4 0 .6-.2.7 0 0 .2.6-.2 1.2 0 0-.4.4-.8-.2m.6-.2c.2-.2.2-.6.2-.6l-.4.1c-.2.1-.3.2-.2.3.2.3.3.3.4.2m-8.1.3-4.1-2.4-.2-.2v-.2s0-.2.1 0l4.2 2.3.3.2v.3c.1 0 .1.2-.1 0m-25.4 0c-.1-.2-.4-.8-.3-1.4 0-.2 0-.5.3-.5.1 0 .3.1.4.5v.2c-.1-.2-.4-.4-.5-.1 0 0-.2.4 0 1l.1.3c0 .1 0 .2 0 0m-4.5-.3c-.3-.5-.4-1.1-.4-1.9 0 .2-.4 1.2-1.4 1.7 0 0-.2 0-.2-.3v-.5l.5-.3s.1.2.2 0c.1 0 .6-.4.9-1.2 0-.1.1-.2.1 0l.2 1.3c0 .3.2.9.5.6l.2-.2s.1-.2.2 0v.5c0 .1-.4.7-.7.3m-3.7-1c-.1-.3-.5-1-.4-2 0-.1.2-.5.5-.5.2 0 .4.1.6.6v.3s0 .1 0 0c-.2-.3-.5-.6-.8-.2 0 0-.2.4 0 1.3l.2.4c0 .2 0 .3-.1 0m6.2-1.2-3.6-1.8c-.2 0-.3 0-.3-.2v-.2s0-.2.2 0l3.5 1.7c.2 0 .2 0 .3.2l.1.2c0 .1 0 .2-.2 0m28-.3c-.1-.2-.4-.9-.4-1.6 0-.2.2-.5.5-.5 0 0 .3 0 .4.5v.2s0 .1 0 0c-.2-.2-.4-.4-.6 0 0 0-.2.3 0 1l.2.3c0 .2 0 .3-.1 0m-25.6.6-.3-.5-.8.5-.4-.6.7-.6.4.5.8-.5.4.6-.7.6zm33-.9c0-.2-.3-.8-.3-1.5 0-.1.1-.5.4-.5 0 0 .2.1.3.5v.2s0 .1 0 0c0-.2-.3-.4-.5 0 0 0-.2.3 0 1l.2.3s0 .2 0 0m-44-.7c-.1-.4-.6-1.5-.4-3 0-.3.3-.9.7-.9.2 0 .5.2.6 1v.5s0 .2 0 0c-.2-.6-.6-1-1-.3 0 .1-.2.7 0 2l.2.6c0 .3 0 .4-.1.1m30 .7-.4-.5-.7.5-.5-.6.8-.6.4.5.7-.5h.1l.4.6-.7.6zm3-1-.4-.6v-.2l.3-.6 1-2c0-.1.1-.3 0-.4-2.7-2.8-7.9-4.6-8-4.7-.2 0-.2-.1.1-.1.4 0 2.8.5 3.4.8.5.2 2 1 3.3 2v-1.2c0-2.3 2-1.9 2.6-1.8 1.6.4 3.6 2.6 3.8 3 .1.5.2 1 .1 1.3.5.2 1.4 1 1.4 1 0-1 .8-1.3 1-1.3 1.1-.2 1.7.7 2 1 .2-.5.6-.6 1-.6.9-.2 1 .5 1.1.6.3 1-.2 1.7-.3 1.8l-.2-.1-.1-.7.2-.5c0-.2 0-.3-.2-.3-.6 0-1 .3-1.2.4-.2.2 0 .5.1.8.1.3 0 .3-.2 0-.5-1.3-1.2-1.4-1.4-1.5-1.7-.5-1.5 1-1.5 1.3 0 .3-.2.2-.4 0-.7-.6-1.3-.9-1.6-1-.2.5-.6.8-.7 1-1.8 1.2-2-1.4-2-1.7.3-1.1 2.2-.5 2.4-.4.3 0 .2-.4 0-.6a7 7 0 0 0-1-1.3c-1.8-1.5-2.7-1.4-3-1.4-1.7 0-1.5 2-1.4 2.4.5.4 1 .9 1.2 1.4 0 .3.3 1 0 1.7l-.8 1.3h.5s.1 0 0 .2l-1 1s-.1.1-.1 0m5.4-3.8s-.3-.2-1-.1c-.6 0-.5.2-.4.3 0 .1.8.5 1.4-.2m-27.9 3.4s-.4-.3-.7-.8c-.3-.5-.7-1.2-1.6-1.7l-1.5-.9-.3-.6s0-.2.1-.1c.3.2 3.3-.3 3.3-.3-.1-.1-1.3-1-2.6-1.2-.5-.1-1.4-.3-2 .8 0 .2-.3 1.3-1.1 1a3 3 0 0 1-1.8-1.9c-.2-.8-.5-1.5-.9-1.5-.3 0-1.2.5-1.3 1.8l.1 1.1c0 .2 0 .4-.1.1-.1-.2-.7-2.7.8-3.6.2-.1.8-.4 1.2.3.1.3.7 2 1.5 2.6.3.1.8.4 1 0 .3-.3.5-1.5 1.8-1.6.1 0 .8-.2 2.7.8.2.1 1.8 1 2.4 1.1l1.4.2.4.8s.1.1 0 0h-2.7l-2.4.3c.1.1 1 .9 1.4 1.6l.7.8c.2 0 .4 0 .5-.2v-1c.1 0 .2-.2.3 0 0 .2.2.8 0 1.4 0 .2-.1 1-.7.7m20.4-.3-1.3-1.7-.9.6.5.1v.2l-1.3.5s0 .1-.1 0v-.8l.3-.3 1-.9s-.4-.8-.4-1.5 0-1.6 1-1.3c.2 0 1.2.4 1.5 1.2 0 .2.3.7-.1 1.2-.2.3-1 .7-1 .7l.6 1.1.3.9c0 .2 0 .2-.1 0m-.2-3.5c-.3-.4-1-.7-1.2-.7-.2 0-.7 0-.5.6l.6 1c.3 0 1.5-.7 1.1-1m-27.1 3-.4-.6-.7.5-.5-.6.8-.6.4.6.7-.6.5.6-.7.6zm41-4.2v-.7c0-.1-.4-.3-.7 0v.2s0 .2 0 0l-.3-.5c-.1-.1-.2-.5-1-.1-.1 0-.3.2-.7-.2-.8-.7-1.3-.7-2.2-1-.1-.1-.3-.3 0-.3.2 0 1.3 0 2 .7 0 .1.2.5.7.3.2-.1.7-.5 1.3.3.3-.2.8-.1.9.1l.1.6.1.6m-31.2-.4-3.7-1.5-.3-.2v-.2c0-.1-.1-.2.1 0l3.7 1.4.2.2.1.3h.1s0 .1-.2 0m6.5-.8c0-.2-.4-.8-.3-1.4 0-.2.1-.5.4-.5 0 0 .3.1.4.5v.2h-.1c-.1-.3-.3-.4-.5-.1v1l.2.2c0 .2 0 .2-.1 0m-14.3-.6-2.2-.7c-.2-.1-.3-.1-.3-.3v-.2h.1l2.2.8s.2 0 .2.2l.1.2s.1.1-.1 0" fill="#231f20" fill-rule="evenodd"/></g><g clip-path="url(#m)"><path d="M181.9 346.5c-.3-.3-.7-.8-.8-1.2l-.5.2c-.2.1-.3 0-.3-.2a5 5 0 0 1-.4-.7v-.3s0-.1 0 0l.5.6c.6-.3 1.3-.2 2 .2.3.3.7.8.6 1.3-.1.2-.3.4-.5.4l-.6-.3m.7-.4v-.3c0-.2-.7-.4-1-.5h-.2l.5.7c.2.2.4.3.7 0m-1.5-2-.1-1v-.5l.3-1.7.8-3.7.4-2.7c0-.1 0-.1 0 0 .2.4.2 1 .2 1.5l-.3 2.3-.6 3-.5 2.7-.1.1v-.1m-2.3-.2-.5-.6v-.2l.3-.7c.2-1.9.6-3.3 1.2-6.4-.6-.5-1.6-.5-1.9-.2-.2.2-.2.1-.3-.2-.1-.7.1-.8.4-1-1-2.4-3.2-3-5.7-2-.3.1-.4-.1-.1-.2 2.8-1.6 5.4-1.2 6.2 2.1l1.2.4c1 .5.5 2.4.3 3.4l-.7 3.7.4.5v.2l-.6 1.2c-.1.1-.1.2-.2 0m-5.1-1.9h-.1l-.2-.5c0-.1 0-.1.1 0h.3l3.6 1.5h.2v.5l-4-1.5m3.7-1-.2-.3v-.5c-.1-.2-.4-.2-.5 0l-.2.4c0 .1 0 .2 0 0-.3 0-.2 0-.2-.1-.1-.5-.3-.8-.7-.8-.3 0-.5.2-.3.7 0 0 0 .2-.1 0-.4-.8-.2-1.2.2-1.3.3 0 .7.2.9.6.1-.2.4-.3.7-.2.3 0 .4.2.5.5v1c0 .1 0 0-.1 0m-8.3-4.5s0-.2.2 0c.9.6 2.5 0 4-.4-1.5-.5-3.5-1.6-4.4-.7v.6l-.4-.4c-.6-.4-1.3-.6-2.2-.8-1.6-.3-3.4-.4-4.6 1.2-.2.3-.3.6-.6.6s-.8-.5-1-1c-.2-.6-.2-1.2.1-1.5-1-1-1.7-1.4-3.3-2.3-.3-.2-.2-.3 0-.2.7 0 3.2 1 3.6 2.4l1.7-.5.3.6c1.8-.9 4.8-.4 6.2.8.4-.4.8-.7 1.2-.7 1.2 0 2.5.8 3.5 1.2.9.4 1.5.5 2.6.2h.1l.5 1c-1 0-1.8 0-2.7.2-2.1.4-2.4 1-3.2 1-.9 0-1.5-.8-1.6-1.3m-8-.6.5-1.1a3 3 0 0 0-1.2.4v.2c.1.1.4.6.6.6m9.6-2.8-.1-.1-.2-.5.4.1 2.8 1.1v.1l.2.5-3.1-1.2m-2.4 0-.5-.7-.6.4h-.3l-.4-.7.1-.2.7-.4h.2l.4.7.7-.4h.2l.4.6v.2l-.8.5h-.1m-9.4-2.5h-.1l-.2-.5h.1l.3.1 2.8 1v.2l.2.4c-.8-.2-2.5-1-3.1-1.2m40.9 15.5-.9-1.2-.4.2c-.2.1-.3 0-.4-.2l-.3-.7v-.3s0-.1 0 0l.4.6c.6-.3 1.4-.2 2 .2.4.3.8.8.6 1.3 0 .2-.2.4-.4.4-.3 0-.5-.1-.6-.3m.6-.4.1-.3c0-.2-.7-.4-1-.5h-.2c0 .3.2.5.5.7.2.2.4.3.6.1m-8.4-2.9-.1-.1-.2-.5.4.2 3.5 1.2.1.1.1.5-4-1.5m7 .7v-.8c-.1-.2-.1-.2 0-.4 0-.6.1-1.2.3-1.7l.7-3.7.4-2.7c0-.2 0-.2.1 0l.2 1.4-.4 2.4-.6 3a26.5 26.5 0 0 0-.6 2.7m-13.6-1.7v-.1l-.2-.5c.2 0 .3 0 .4.2l3.6 1.3v.1l.2.5-4-1.5m11.2 1.2-.5-.8c0-.2 0-.3.3-.7.3-2.2.6-3.5 1.2-6.3-.9-.4-1.6-.4-2 0-.1 0-.2 0-.2-.2-.2-.5 0-1 .4-1.1-.5-.9-1.1-1.7-1.8-2-1-.6-2.5-.7-4 0-.1 0-.2-.2 0-.2 1-.7 3-1.2 4.1-.8 1.2.4 2 2 2 2.9.4 0 1.2 0 1.5.5.4.4.4 1.5.2 2.6-.3 1.5-.7 3.2-.8 4.3l.5.5c-.1.2-.6.6-.7 1.3 0 .2-.2.1-.2 0m-8-2.4v-.1s0-.2 0 0l.3.2c.2.2.5.2.8.2l.7-.2-1.3-.7v-.2c0-.1.1-.1.2 0 .4 0 .6 0 .9.2l.7.5c.2.1.3.5.3.6l-.4.1-.9.3c-.4 0-1-.2-1.2-.8m6.7.4-.2-.3v-.5c-.2-.2-.4-.3-.6-.1l-.1.5c0 .1 0 .2-.1 0-.2 0-.2 0-.2-.2 0-.5-.3-.7-.7-.7-.2 0-.4.1-.2.6 0 .1 0 .2-.2 0-.3-.7-.1-1.2.3-1.2.3 0 .7.1.8.6.2-.2.5-.3.8-.2.3 0 .4.2.5.5v1c0 .1-.1 0-.1 0m-9.6-1-.2-.6.3-.4c.5-.7.8-1.5.6-2.5v-.1c.2 0 .3.7.3 1.1 0 1-.4 1.8-.9 2.4m2.4-2.7c0-.2 0-.2.1-.1.6.3 1.3.7 3.1-.4-1 0-1.8-.2-2.7-.5-1.3-.5-1-1.9-2.6-1.5-.3 0-.4.2-.5.5l-.3.4c0 .2 0 .2-.2 0l-.1-.7v-.3c.2-.3.4-.7.5-1.3v-.2c-1.4-2.3-6.5-3.6-9.5-3.7-2.8-.2-5.7.1-8.5 1a17.7 17.7 0 0 0-4.8 2.2l.2-.4a9 9 0 0 1 4.8-3c2.9-.9 6.5-1.1 10-.6 2.8.4 8.7 2.2 8.3 5.4.6-.3 1.2.1 1.5.5 0-.6.4-.8.9-1 .3 0 .8 0 1 .2.4.2.4.6.4 1 0 .3-.2.9-.6 1.1.7.2 3.4.8 4.9.2l.7.8-.1.1c-1 .1-1.8.3-2.4.5-1.7.6-1.8 1.2-2.5 1.2-.6 0-1.2-.3-1.5-1.3m1-2.8a3 3 0 0 0-1.3.4c-.1 0-.1 0 0 .1 0 .2.2.3.4.3.4 0 .8-.5.9-.8m-5.4 3.8c0-.3-.2-.5-.3-.7-.1 0-.1-.1 0-.2l.6-.3h.2l.3.6c.1.1.1.2 0 .2l-.6.4h-.2m-.6-9.3h-.1l-.2-.6h.1l.3.2 3.6 1.3.1.1.2.5h-.1l-4-1.5m28.1 16.4c-.3-.2-.7-.8-.9-1.2l-.4.2c-.2.1-.3 0-.3-.2l-.4-.7v-.1c0-.1 0-.2 0 0 .2.1.4.6.5.5.5-.3 1.3-.2 1.9.2.4.3.8.8.6 1.4 0 .2-.2.3-.4.3s-.5-.1-.6-.3m.6-.4.2-.2c-.1-.2-.8-.5-1-.6h-.3l.5.8c.2.2.4.2.6 0m-7.8-2.7-.2-.5c0-.1 0-.1 0 0h.4l3.6 1.5.1.1.1.5-4.1-1.6m6.3.4v-.1l-.2-.9v-.4c0-.6.2-1.2.4-1.8l.7-3.6.3-2.7c0-.2.1-.2.2 0 .1.4.2 1 .1 1.5l-.3 2.3-.6 3-.5 2.7h-.1zm-2.8-1.3-.2-.4v-.5c-.2-.2-.4-.2-.6 0l-.1.4c0 .2 0 .2-.1.1l-.2-.2c0-.5-.2-.7-.7-.8-.2 0-.4.2-.2.7 0 0 0 .2-.2 0-.3-.8-.1-1.2.3-1.2.3 0 .7 0 .9.6.1-.3.4-.3.7-.3.3.1.4.3.5.5v1c0 .2-.1.1-.1 0m1-3-.1-.8v-.2c.2-1.2.7-1.7 1.1-2.8.1-.3-.1-.5-.5-.4-.6.3-1.4.6-1.6 1.8l-.3 2.1c0 .3-.1.3-.2.1l-.2-.7v-.1c0-.7.2-1.7.4-2.5-.3-.7-1.6-1.7-2.4-.9-.4.5-.4 1.8-.3 3.4 0 .1 0 .2-.1 0l-.2-.4-.1-.5c-1-.3-1.5-.5-1.9-1-.4-.4-.5-1-.8-1.6 0-.2 0-.2.2-.3 1.6 0 1.6 0 2.5.7 0-1.3.6-1.7 1.2-1.7.8 0 1.7.7 2 1.7.4-.6 1.3-1.2 1.8-1.2.2 0 .4 0 .6.2l.3 1.2c0 .8-.4 1.1-.8 2.3l-.3 1.6c0 .1-.1.3-.2 0M204 335c-.4-.3-1.5-.3-2-.1.3.6.9.8 2 1.2V335m-2.7-3.5-.1-.1-.2-.5h.1l.3.1 2.3.8.1.1.2.5-2.7-1m27 7.6-.2-.3s0-.2.1 0l.3.2c.2.2.5.2.8.2l.7-.2-1.3-.7s-.2-.1-.1-.2c0-.1 0-.1.2 0 .4 0 .5 0 .9.2s.5.5.6.5h.2l.2.6-.4.1-.9.3c-.5 0-1-.2-1.2-.7m4.4-2.1c.5-.7.9-1.4 1.2-2.4.2-.4-1.3 0-1.7 0v.6c0 .2 0 .1-.1 0-.3-.7-.4-1.2-.6-1.3l-1 .4.3.7c0 .2 0 .3-.1.2-.8-1.2-2-1.7-3.2-1l.3.7c0 .2-.1.3-.3.1-.7-.6-3-1.3-5.8-1.4-2-.1-4.2.1-5.6.9a3 3 0 0 0-1 .8v.2h-.2c-.1.2-.2.2-.5 0-.7-.5-1-1.6-.5-2.2-.6-1-2.5-1.8-3.7-2.4-.1 0 0-.3.1-.2 2.2.4 3.2.9 4 2.5l1.8-.5.2.5a16 16 0 0 1 11 .7c.5-1.6 2.1-.9 2.6-.4l1.4-.6c.1.1.5.5.7 1 .4-.2 1.4-.7 1.8-.5.2.1.3.4.4.6.4 1.8-.6 3-1.3 4l-.2-1m-17.3-3c-.7 0-1 .2-1.2.4-.1 0-.2 0-.1.1 0 .2.4.7.6.7.2 0 .3-.6.7-1.2m18.1-1.7a7 7 0 0 1-.3-.7v-.2l.6-.3h.2l.4.7v.1l-.7.4h-.2m-19.5-2v-.1l-.2-.5c.2 0 .3 0 .4.2l2.7 1 .1.2.2.4h-.2c-.8-.2-2.4-1-3-1.2m18-1h-.2l-.1-.5c.2 0 .3 0 .4.2l3.6 1.3.1.1.1.5-4-1.5m-41.1-112.1-.2-.3v-.2l.1-.3c-.2-.3-.4-.3-.6-.2l-.2.5v.1c-.3-.1-.2-.1-.2-.2 0-.5-.3-.7-.7-.8-.3 0-.4.2-.3.7 0 .1 0 .2-.1 0-.4-.8-.2-1.2.2-1.2.3 0 .7.1.9.6.1-.3.4-.3.7-.3.4.1.4.3.5.6v1m20.7-.4-.9-1.2-.5.2c0 .1-.2 0-.3-.2a5 5 0 0 1-.3-.7l-.1-.2c0-.2 0-.2.1-.1.2.2.3.7.4.6.6-.3 1.4-.2 2 .2.4.3.7.8.6 1.3 0 .2-.2.4-.5.4-.2 0-.4-.1-.5-.3m.6-.4.1-.2c0-.3-.7-.5-1-.6h-.2c0 .3.2.6.5.7.2.2.4.3.6.1m-16.6-.3c-.5-.5-1.5-1-2.2-.9-.5 0-.8.1-1 .3h-.2l-.5-1.1v-.2.1l.4.7c.4-.3.9-.4 1.4-.3.7 0 2 .4 2.2 1.4h-.1m8.1-1-4.7-1.6-.1-.1-.2-.6h.1l.3.2 4.4 1.5h.1l.2.6m-14-.4-.4-.8v-.1l.4-.6v-.1a60.7 60.7 0 0 1 1.3-6.7c-.1-.3-.4-.4-.7-.4-.5 0-1.2.4-1.5 1.1-.3.6-.4 1.3-.5 1.8l-.2 1-.1.1c-.1-.4-.3-.9-.6-1.1-.3-.3-.8-.4-1-.4h-.5v.2c0 .2-.2.5-.4.5l-.1-1c.3-.4.5-1 .6-1.5-1-2-4.8-2.6-8-2.6a17 17 0 0 0-6.7 1.2 14.2 14.2 0 0 0-2.3 1.2v-.1c.5-.7 1-1.3 1.5-1.7 1-.7 2.4-1.2 4.1-1.5l2.9-.2c2.6 0 6 .5 7.6 1.9.8.7 1.1 1.4 1 2.6h.2c.7 0 1.2.5 1.5 1.3 0-.4.3-1.7.7-2.7.3-.7.8-1 1.5-1.1.3 0 .6 0 .8.3.4.5.4 1.4.4 2l-.7 3.8-.4 1.9.3.5-.1.3-.5.9h-.1m17.5-.3-.4-.8.3-.6c.1-1.3.4-2.8.7-4l.4-2c-.3-.6-2.3-1.2-3-1.2.4.5.8 1.2.7 1.8-.1.4-.2.6-.5.7-.2.2-.4.2-.7.2a2 2 0 0 1-.9-.2c-.5-.3-1-.8-1.5-1.3l-1.6-1.4a4 4 0 0 0-1.7.6l-.2.1-.4-.2c-.7-.7-1.6-.8-2.1-.8s-1 .1-1.3.3c-.6.2-1 .8-1.1 1.7l-.3 2.3-.6 4.2h-.1l-.3-.9.5-3c.1-1.7.3-3.6.8-4.5.3-.6.7-1 1.4-1l.6-.1c1.1 0 2.2.4 2.7 1v.1l.4-.2.7-.4-.2-.5-.3-1v-.3l.2.2.2.6.3.8h2c1.9 0 4.5.3 5.8 1 .7.5 1 1.2 1 2.3 0 .7-.2 1.5-.4 2.5l-.5 2.4.4.6-.3.4-.4.7h-.1m-1.7-7.4a5.2 5.2 0 0 0-3.8-1.6h-.3l.3.4c.5.5 1.4 1.4 2.1 1.6h.4c.3 0 .8 0 1.2-.4m5.2 7h-.1l-.2-1v-.4l.4-1.7.7-3.6c.2-1 .4-2 .4-2.8 0-.1.1-.1.1 0 .2.5.2 1 .2 1.5l-.4 2.4-.7 3.1-.4 2.6-.1.1zm-8.3-1.2-.2-.4.1-.5c-.2-.2-.4-.2-.6 0-.1 0-.2.2-.1.4 0 .2 0 .2-.2.1l-.1-.2c0-.5-.3-.8-.7-.8-.2 0-.4.2-.3.7 0 0 0 .2-.1 0-.4-.8-.2-1.2.2-1.3.3 0 .7.2 1 .6 0-.2.4-.3.6-.2.4 0 .4.2.5.5v1c0 .1 0 .1 0 0m-1-2.7a7 7 0 0 1-.3-.6v-.2l.7-.4h.2c0 .3.2.5.3.7.1 0 .1.1 0 .2l-.7.4h-.1m-20.1 1.6-4.8-1.6v-.1l-.3-.6h.1l.4.2 4.3 1.5h.2l.1.6m-2-3.6-.4-.6v-.2l.7-.4h.2c0 .3.2.5.3.7v.2l-.7.4h-.1m8-4-.4-.7-.7.5h-.2l-.4-.7v-.2l.8-.4.2.2.4.7.7-.5h.2l.4.7v.2l-.8.4c0 .1-.1.1-.1 0m1.3-2.2v-.1l-.2-.5a121.4 121.4 0 0 0 3.5 1.4l.1.1.2.5h-.1l-3.5-1.4m28.8 13h-.1l-.2-.5c0-.1 0-.1.1 0h.3l3.6 1.5h.1l.2.5-4-1.5m2.2-.7-.5-.9.4-.8c.3-1.7.5-3.8 0-5.8-1 2-4 4.5-6 5.5-.1.1-.1-1.3.1-1.8.2-.3 1-.7 1.3-.8.2 0 .3 0 .5.3 1.1-1 2.9-2 3.8-3.7-.3-.5-.6-1-1.4-1.6l-.7-.2s-.2-.8 0-1c1 .1 2.5.4 2.9.6.2.6 0 1.7-.4 2.3.6 1.5.8 3.6.5 6l.4.6c0 .2-.7.8-.8 1.2v.2h-.2m.2-9.3-1.2-.3c.3.3.6.7.8 1.2l.4-1m6 6.8-3.5-1.4-.1-.1-.2-.5h.1l.3.1 3.2 1.3.2.5m-1.3-3.7h-.3a2 2 0 0 1-.6-1c-.2-.6-.3-1.6.2-2 .5-.3 1-.5 1.6.5-.9-3.5-4.6-3.4-5.8-3.1-.4.1-.6-.2-.1-.4 1-.4 2.8-.6 3.9-.2 1.6.7 2.3 2.3 2.4 3.7a3 3 0 0 1-.9 2.4l-.4.2zm.5-1.9c-.4-.4-1-.3-1.2.2.1.3.3.6.5.6.3 0 .5-.2.7-.8m-75.8 29.5-.1-.1-.1-.5.3.1 3.6 1.4h.1l.2.5-4-1.4m1.9-2.2v-.3c.2-1.7.5-3.5.9-5.1-.1-.4-.3-.9-.9-1-.2 0-.9.1-1.3.4l.1.6v.3-.1c-.7-1.2-4.7-1.7-6.2-1.7h-.4c.7.5 1.8 1.3 1.9 2.9 0 .2-.2.7-.4.9l-.3.1c-.2 0-.4 0-.6-.3-.5-.7-.8-1.6-1-2.4l-.1-.4c-.6-.3-1.8-.5-3-.5-.7 0-1.9 0-2.6.5-.6.4-.9.8-1.1 1.1l-.3.4-.2.1h-.3a2 2 0 0 1-.9-1.5c0-.4.1-.7.4-1-.6-.8-2.8-2-3.4-2.3l-.3-.2h.5l.2.2c1 .2 3 .7 3.3 2.2.4-.2 1.3-.5 1.7-.5l.2.4v.1c.5-.3 1.6-.6 2.7-.6.8 0 1.5.1 2 .3v-.5h1.1c.5-2.8 2.4-2.4 2.4-2.4.3 0 .5.4.6 1 .2.6.1 1.3-.1 1.5 1 .2 3 .7 3.6 1.3h.1c.3-.4 1-.8 1.6-.8h.3c.3.2.5.7.8 1.2v.1c.4-1.4 1.4-1.7 2.2-1.7.8 0 2 .4 2.9 1l1.3 1c.1.3.2.7.1.8-.7-.6-1.3-1.1-2.4-1.5h-.3c-.6 0-1.4.7-1.5 1.8.3.5 1.4 1 2.3 1l.6-.1h.2v.2c-.4.4-1.1.6-1.6.6h-.3c-1-.3-1.8-1.6-1.7-2.5 0-.4.1-.8.4-1.2-.6 0-1.4.2-1.7 1.1-.4 1-.6 2.5-.8 3.9l-.5 2.8s-.3-.7-.2-1.2m-6.2-4.5c-.2-.5-1-1.2-1.7-1.4 0 .6.5 1.5.8 1.9h.3c.3 0 .5-.2.6-.5m-9.4-.6c.2 0 .2-.2.3-.5l.4-.7c-.4 0-1 .2-1.4.5 0 .2 0 .4.2.5.1.2.3.3.4.3h.1zm10.1-3.5c0-.3-.4-.6-.8-.6-.6 0-1.2.4-1.7 1.2h.3c.6 0 1.8-.1 2.2-.6m7.5 8.2h-.1l-.1-.6.3.2 3.6 1.3.1.1.2.5-4-1.5m-18.8-1v-.3s0-.2 0 0l.3.2c.2.2.5.2.8.2l.7-.2-1.3-.7-.1-.2c0-.1.1-.1.2 0 .4 0 .6 0 1 .2h-.1l.7.5.3.6-.4.1-.9.3c-.4 0-1-.2-1.2-.8m12.9-.1-.1-.2v-.1l.3.3c.3.1.5.2.8.1l.7-.2-1.2-.7c-.1 0-.2 0-.2-.2h.2c.5.1.6 0 1 .2l.6.5h.1l.3.6-.4.2-1 .2c-.4 0-.9-.2-1.1-.7m2.5-7.3-.5-.7-.6.4h-.3l-.4-.6.1-.3.7-.4.2.1.4.6.7-.4h.2l.4.6v.3l-.8.4h-.1m-3-2.1-4-1.5v-.1l-.2-.5.4.1 3.6 1.4.1.1.1.4v.1m56.9 15v-.2s0-.2 0 0l.3.2.8.2.7-.2-1.3-.7-.1-.2.2-.1 1 .3h-.1c.5.2.6.4.7.5.2.1.3.4.3.6h-.4l-.9.3c-.4 0-.9-.2-1.2-.7m5.3.4c-.3-.3-.7-.8-.8-1.2l-.5.2c-.2 0-.3 0-.3-.2a5 5 0 0 1-.4-.7v-.3s0-.1 0 0c.2.2.3.7.5.6.6-.3 1.3-.2 1.9.2.4.3.8.8.7 1.3 0 .2-.3.4-.5.4l-.6-.3m.6-.4.2-.3c-.1-.2-.8-.4-1-.5h-.3l.5.7c.2.2.4.3.6 0m-4.3-1.5zm0 0-.4-.8v-.3l.4-.6.3-1.6.9-4.4c-.1-.4-.8-.6-1.5-.6-.6 0-1.4 0-1.9.3-.4.2-.8.5-1.2 1.1 0 .2-.2.3-.3.2l-.4-.1a3 3 0 0 1-.6-.8c-1-1.4-2.4-1.7-3.4-1.1.3.3.6.7.7 1.1v.5c0 .1-.1.3-.4.4-.3.2-.8.3-1.3.3-.4 0-.8 0-1-.2-.4-.2-.6-.6-.8-1.2v-.2h.2l.4.2h.4l.8-.6a12 12 0 0 0-4.5-1c.4.2.6.6.8 1l.3 1.1c0 .3 0 .4-.2.6l-.7.3c-.5.1-1 0-1.5-.3-.9-.6-2.2-2-3.2-2.6a2 2 0 0 0-1 .2l-1 .5.2.5v.2h-.2c-.2-.2-.7-.5-1.3-.7a6 6 0 0 0-1.5-.4l-.5 1.4-.3.5-.5.1c-.1 0-.3 0-.5-.2l-.4-.7c-.2-.5-.4-1.1-.1-1.6.1-.3.5-.5.8-.5h1a4.6 4.6 0 0 0-2.5-2.7c-1-.3-2.1-.3-3.2-.1h-.2v-.1c-.1 0 0 0 0-.1l.2-.1c1.6-.5 3-.7 4-.2.9.4 1.6 1.5 2.1 3.3l1 .3c.5.1 1 .3 1.4.6.3-.3.7-.9 1.3-1.2-.2-.4-.5-1-.5-1.5v-.2l.1.1.7 1.5c1.2-.3 3-.3 4.4-.2 2 .2 4.4.6 5.8 1.5.7-.9 1.4-1 2-1a3 3 0 0 1 1.8 1.4c0-.2.2-.4.4-.5.4-.3 1.2-.4 1.9-.5h.2l.1.2v.4c1-.3 2.2-.3 3 0 .3 0 .6.3.7.6.3.9.2 1.8-.1 3.1l-.7 3.4.3.5v.3a3 3 0 0 0-.7 1v.2h-.1m-3.8-7.3.1-.1.7-1.1c-.5 0-1.1.2-1.5.5-.1 0-.1 0 0 .2 0 .2.3.3.5.4 0 .1.1.2.2.1m-9.3-.7c-.6-.7-2.7-1.6-4.4-1.4.7.6 1.6 1.5 2.3 1.9l.7.1c.5 0 1.1-.3 1.4-.6m-11.1 0 .5-1c-.5 0-1 .1-1.2.4-.1 0-.1.1 0 .2 0 .2.2.3.3.4h.4m7.7 8c-.4 0-.9-.5-1-1v-.6l1-.3a7.6 7.6 0 0 0-2-1.8c-.4-.2-.3-.4 0-.2 1.4.6 2.1 1.3 2.4 1.9l.3-.1.2.2v.3l-.3.1v.1l-.1 1c-.1.4-.3.5-.5.5m0-.6.3-.7v-.2h-.4l-.6.3v.2l.3.3v.1h.3m19.3-.3-.1-.5v-1.1l.4-1.8.6-3.7v-1.4c.1-.2.3.3.3.3a22.7 22.7 0 0 1 .2 1.8l-.9 4.8-.2 1.3c0 .3-.2.8-.3.3m-13.8-.8-.1-.2v-.1l.3.2c.3.2.5.2.8.2l.7-.2-1.2-.7-.2-.2c0-.1.1-.1.2 0l1 .3c.4.1.5.4.6.4h.1l.3.6-.4.1c-.3.1-.6.3-1 .3s-.9-.2-1.1-.7m4.8-1.5h-.1l-.1-.6.3.2 3.6 1.3.1.1.2.5h-.1l-4-1.5m-3.4-.7-.4-.7.1-.1.6-.4h.2l.4.7v.1l-.7.4h-.2m-7-.6a7 7 0 0 1-.3-.7v-.1l.6-.4h.2l.4.7v.1l-.7.4h-.2m-12-1h-.1l-.1-.3-.1-.6c.3-.3.7-.8.9-1.4-1.1-.8-3.2-1.3-5.5-1.5a28 28 0 0 0-7 0c-1.6.3-2.8.9-4.1 1.5l-.2.1v-.2c.5-.7 1.1-1.2 2-1.7a16 16 0 0 1 6.5-.9c2.6 0 5.4.5 7.4 1.4.5.3.9.6 1 1 .2.3.3.8.2 1.4 0 .4-.5 1-1 1.3zm-6.1-6.3-.4-.7v-.1l.7-.4h.1l.4.7v.1l-.7.4h-.1m-1.9-3-.3-.6h.1l.4.1 4.3 1.5.1.1.2.5v.1l-4.8-1.7m51 12.6-.2-.6.4.1 4.4 1.6.3.5h-.1l-4.7-1.6m-5.2-.4v-.2c-.1-.1 0-.2 0-.1l.3.3.7.2c.3 0 .8-.2.8-.3l-1.3-.6c0-.1-.2-.2-.1-.3h.2l.8.3c.5.2.6.4.7.5h.2l.2.5-.4.2-.9.2c-.5 0-1-.2-1.2-.7m7.5-.7-.3-.7c-.1 0-.1-.1 0-.2l.6-.3h.2l.3.7c.1 0 .1 0 0 .1l-.7.4h-.1m-.8-4.8c-.1-.7.1-1 .4-1.4-.2 0-1.1-.3-2.1-.3-.6 0-1 0-1.5.2-1.1.4-1.5 1.6-1.7 2.7 0 .4-.2.7-.3.8l-.1.1-.1-.1v-.3l-.1-.3c-.2-.5-.4-.9-1-1a2 2 0 0 0-.6-.1l-.3.1v-1h.7c-.8-2.9-3-3.3-4.2-3.3-.8 0-1.5.2-2 .4h-.2v-.2c.5-.3 2.2-.8 3.4-.8h.8c1.3.4 2.5 2.5 2.5 4 .6.1 1.3.6 1.3 1.2l.1-.4c.2-.7.4-1.5.7-2 .4-.7 1.6-.8 2.5-.8a12.7 12.7 0 0 1 6.5 2c.2.2.3.7.2.8l-2.5-1.1h-.3c-.7 0-1.5.6-1.5 1.6.4.4 1.2 1 2 1 .5 0 .8-.2 1-.4h.2v.2c-.2.3-1.2.8-1.7.8-1.2 0-1.9-1.3-2-2.3m-4.2-3.7-.5-.7-.6.4h-.3l-.4-.7.1-.2.7-.4h.2l.4.7.7-.4h.2l.4.6v.2l-.8.5h-.1m-6.7-3-.2-.5.4.1 3.6 1.4h.1l.1.5-4-1.5m31.9 14.2v-.1l-.2-.5.4.1 2.7 1.1.1.1.1.5-3.1-1.2m1.5-2.2c.2-2 .5-3.9.9-5.4-.1-.4-.3-1-.8-1-.3 0-1 0-1.3.4v.8c-.7-1.3-3.8-1.8-5.3-1.8h-.5c1 .7 1.8 1.5 1.8 3 0 .2-.1.6-.3.8l-.3.2c-.2 0-.4-.1-.6-.4-.6-.6-.8-1.6-1-2.4l-.2-.4c-.6-.3-1.6-.5-2.5-.5-.9 0-1.7.2-2.3.6-.6.3-.8.7-1 1l-.3.4-.3.2-.2-.1a2 2 0 0 1-1-1.5c0-.3.2-.7.5-.9a15.8 15.8 0 0 0-3.7-2.6l.5.1.2.1c1 .2 3 .8 3.3 2.2l1.7-.5.2.5c.5-.3 1.3-.5 2.2-.5.6 0 1.2 0 1.6.2v-.4h1.1c1-2.8 2.4-2.4 2.4-2.4.4.1.6.5.7 1 .2.6.1 1.3-.1 1.5.8.2 2 .6 2.7 1.2h.1c.4-.3 1-.8 1.6-.8h.2c.4.2.6.8.8 1.3v.1-.1c.4-1.3 1.4-1.6 2.2-1.6.9 0 2 .3 3 .9l1.2 1.1c.1.2.2.7.1.8-.6-.6-1.3-1.1-2.4-1.4h-.2c-.7 0-1.5.6-1.6 1.7.3.5 1.4 1 2.3 1h.6l.2-.2v.3c-.4.4-1.1.6-1.6.6h-.3c-1-.3-1.8-1.6-1.7-2.5 0-.4.2-.8.4-1.2-1.5 0-2 1.6-2.2 3l-.3 2-.5 2.8s-.3-.7-.2-1.2m-5.3-4.5c-.1-.5-1-1.2-1.6-1.4 0 .6.5 1.5.8 1.8l.3.2c.2 0 .5-.3.5-.6m-8.5-.6.3-.5.3-.7v-.1c-.4 0-1 .3-1.3.6 0 .1 0 .3.2.5l.4.2h.1zm7-2.8c1.6-.2 2.2-.7 2.2-.7 0-.4-.4-.6-.8-.6-.6 0-1.2.4-1.6 1.2h.2m9.3 7.5-.1-.1c0-.1 0-.4-.2-.5h.1l.3.1 3.6 1.4h.2v.5c.1 0 0 0 0 0l-4-1.4m-17.3-.6v-.3c-.1 0 0-.1 0 0l.3.2c.2.2.5.2.8.2l.7-.2-1.3-.7s-.2-.1-.1-.2c0-.1 0-.1.2 0 .4 0 .5 0 .9.2s.6.5.6.5h.2l.2.6-.4.1-.9.3c-.5 0-1-.2-1.2-.7m11.1-.2v-.2c-.1-.1 0-.2 0-.1l.3.2c.2.2.5.2.8.2l.7-.2-1.3-.7s-.2-.1-.1-.2c0-.1 0-.1.2 0 .4 0 .5 0 .9.2s.6.5.6.5h.2l.2.6-.4.1-.9.3c-.5 0-1-.2-1.2-.7m3-7.4-.4-.7-.7.5h-.2l-.5-.7.1-.2.8-.4h.1l.4.7.8-.5h.1l.4.7v.2l-.7.4c-.1.1-.2.1-.2 0m-6.3-4v-.2l-.2-.4.4.1 2.8 1.1v.1l.2.5-3.2-1.3m-99.1 39.5-.1-.1-.2-.5h.1l.3.1 3.6 1.4.1.1.1.4v.1l-4-1.5m1.3-1.4v-.4l.6-.3-.4-.3v-.3l2 .6.2.4h-1a2 2 0 0 0-1 .5l.6.2c.3 0 .4-.3.4-.3l.3.5s-.3.4-.5.4c-.3 0-1-.6-1.2-1m1.3-1.9-.1-.8v-.5c0-.6.2-1.2.3-1.7l.7-3.7c.2-1 .4-1.9.4-2.7 0-.2.1-.2.1 0 .2.4.2 1 .2 1.5l-.3 2.3-.7 3a26.9 26.9 0 0 0-.5 2.8l-.1-.2m-4.4-.8v-.2c-.1 0 0-.2 0 0l.3.2.7.2.8-.2-1.3-.7-.1-.2.2-.1.9.3c.4.2.5.4.6.5h.2l.2.6h-.4l-.9.3c-.5 0-1-.1-1.2-.7m-12.7-.6-4-1.6-.2-.5.4.1 3.6 1.4h.1l.1.5m3.8-.9-.1-.2v-.1l.3.2c.3.2.5.3.8.2l.7-.2-1.2-.7-.2-.2h.2c.4.1.6 0 1 .2l.6.6h.1l.3.5-.4.2-1 .2c-.4 0-.9-.2-1.1-.7m10.5-.2-.4-.7v-.2l.7-.3h.1l.4.7v.1l-.7.4h-.1m-1.7 0-3.5-1.4v-.1l-.2-.5.4.1 3.1 1.3.1.1.2.5h-.1m-14-1.8-.5-.7-.7.4h-.2l-.4-.7v-.2l.8-.4h.1l.4.7.8-.4h.1l.4.6c.1.1 0 .2 0 .2l-.7.5h-.2m16.7-1.4c.3-.4.7-1 1-1.8-.2-.4-.8-.6-1.4-.6-.3 0-.6 0-1 .2.4.4.6.8.6 1l-.2.5c-.3.2-.9.4-1.4.4l-1-.2c-.4-.2-.5-.6-.7-1v-.2h.2l.5.1c.3 0 .7-.1.9-.3-.8-.5-2.2-.9-3.5-.9-.9 0-1.6.2-2.2.5-.7.4-1 .8-1.2 1.1l-.1.2-.2.2-.4-.2-.6-.6c-.4-.5-.9-1-1.2-1l-.4-.1c-.5 0-.8.2-1 .5.2.3.3.7.3 1h-.1c-.5-.5-.8-.8-1.4-1-.9-.5-2.6-1-4.1-1l-1.3.2c-.7.2-1.3.6-1.5 1.1-.2.5-.2 1 .1 1.5v.2l-.2-.1c-.3-.5-.7-1.4-.5-2.2a2 2 0 0 1 1.4-1.4c.4-.2 1-.2 1.8-.2 1.6 0 4 .5 4.9 1.3l.1.1c.3-.5 1-1 1.4-1h.1c.3 0 .8.4 1.3 1 .1-1 1.9-1.2 2.2-1.2l.1.6a5 5 0 0 1 2.4-.5c1.5 0 3 .4 4.2 1v.1a2 2 0 0 1 1.6-.8c.5 0 .9.2 1.2.4.7.5.7 1.6.4 2.5-.2.8-.8 1.5-1 1.6 0 0-.2-.8-.1-1m-9.5-2.1.2-.5c-.3 0-1.3.2-1.3.5s.5.6.7.6c.2 0 .2-.2.4-.6m29.5 12.3-4-1.5v-.1l-.2-.5h.1l.3.1 3.6 1.4.1.1.2.4-.1.1m2.1-1.7-.8-1.2-.5.2c-.1 0-.2 0-.3-.2l-.3-.7-.1-.3c0-.1 0-.1.1 0 .2.2.3.7.4.6.6-.4 1.4-.2 2 .2.4.3.7.8.6 1.3 0 .2-.2.4-.5.4l-.6-.3m.7-.4.1-.3c0-.2-.7-.4-1-.5h-.3l.5.7c.3.2.5.3.7 0m-3.6 0-.2-.3v-.5c-.2-.2-.4-.3-.6-.1l-.1.5c0 .1 0 .2-.1 0-.2 0-.2 0-.2-.2 0-.5-.3-.7-.7-.7-.2 0-.4.1-.2.6 0 .1 0 .2-.2 0-.4-.7-.1-1.2.3-1.2.3 0 .6.1.8.6.2-.2.5-.3.8-.2.3 0 .4.2.5.5v1c0 .1-.1 0-.1 0m2.1-2.2v-.2l-.2-.8v-.5l.4-1.7.7-3.6.4-2.8c0-.1 0-.1.1 0l.2 1.5-.4 2.4-.6 3-.5 2.6v.1zm-2.9-.2-.4-.8v-.2l.4-.5c.2-2.5 1-4.8 1.5-7.1-.2-.5-.9-.5-1.4 0-1 .8-1.2 3.2-1.6 4.5 0 .2-.1.2-.2 0v-1c0-.7.3-1.2.4-1.9-.3-.9-2.5-1.2-3-1-.2.1-.2.4-.3.1-.1-.5-.1-1 .2-1.2.4-.2 2 0 2.8.6l.5.8c.2-1.1.7-1.8 1.2-2.1.3-.2 1-.4 1.4 0 .3.3.3.9.3 1.3 0 1.5-.8 4.2-1.3 6.7l.4.8c0 .1-.5.5-.7 1-.1.1-.1 0-.2 0m-12.2-1.5v-.1l-.2-.5.4.1 3.1 1.3h.1l.1.5-3.5-1.3m9.4-.2-.3-.7v-.1l.6-.4h.2l.4.7v.1l-.7.4h-.2m-7.5-2.2-.4-.7v-.2l.7-.3h.1l.4.7v.1l-.7.4h-.1m4.2-1.1.5-1a3 3 0 0 0-1.8-.4c-.1 0-.2 0-.3.2l-.4.7c-.1.3-.2-.5-.2-1 .4-.7.7-1.2.7-2.4-.7-1.6-3.2-2-4.2-1.3-1 .8-.5 2.3-.4 3 0 .1 0 .4-.2 0-.4-.9-1-3 .4-4 1-.8 3.1-.7 4.4 1 .3.6.5 1.3.4 2.7.7 0 1.5.2 1.8.6l.2 1a3 3 0 0 1-.7 2c-.2.1-.2-.8-.2-1.1m.7-5.4-.5-.7-.6.4h-.3l-.4-.6.1-.3.7-.4.2.1.4.6.7-.4h.2l.4.6v.3l-.8.4h-.1m4.9-.4-3.1-1.4h-.1l-.2-.5c0-.1 0-.1.1 0h.3l2.8 1.2h.1l.1.5m10.7 11-.3-.7v-.1c0-.3.2-.5.3-.7.2-2.4.7-3.6.8-6.3-.3-.4-.9-1-1.2-1.1-1-.1-2.5.1-3.2.3-.5.2-.2 0-.1-.2.5-.5 1.4-1 2.3-1.1 1.9-.4 5 .2 6.2 1.4.2.3.8 1 .7 1.7 0 1-1.4 1.1-2 1-1-.2-1.7-1.2-2.5-1.9l.2 1.2c0 2-.5 3-.7 4.7l.5.7c0 .3-.6.6-.8 1.1 0 .1-.1.1-.2 0m5-7.4c-.7-.9-3.6-1.6-4.7-1.5.8.5 1.8 1.7 2.6 2 .6.2 1.7 0 2-.5m-3.1 4.8v-.1l-.2-.5c.1 0 .3 0 .4.2l3.1 1.2.1.1.1.5-3.5-1.4m6-.8-.2-.6h.1l.3.2 2.8 1v.2l.2.4-3.1-1.2m-1.7-.6-.2-.5.3-.4c.5-.7.8-1.4.6-2.4v-.2c.2 0 .4.7.4 1.1 0 1-.4 1.8-1 2.4 0 .1 0 .1 0 0m9.8-2c-.8-.6-1.7-1.8-2.7-2.5l-1.3.6v.7c-1-.5-2.5-1-3-1v-.9h.3c-.6-2.4-2.8-3.5-5.3-2.5-.2 0-.5 0-.1-.3a5 5 0 0 1 3.3-.7c1.1.2 2.2 1 2.5 3.5l2 .8c0-.4.2-.6.6-.9l-.3-1.4c0-.2 0-.4.2 0l.4 1.3 1.4-.2c1.2 0 2.6.2 3.5 1.2.4.4.8 1.2.8 1.8 0 .8-1.4 1.1-2.3.5m1.8-1c-.6-1-2.4-1.6-3.9-1.5.6.5 1.3 1.3 1.9 1.7.6.3 1.6.2 2-.2m-4-4.7v-.1l-.3-.5h.1l.4.1 3.5 1.4h.2v.5l-3.9-1.4m55.7 14.7c-.3-.2-.6-.8-.8-1.1l-.5.1c-.1.1-.2 0-.3-.1l-.4-.8v-.2c0-.1 0-.2 0 0 .2.1.4.6.5.5.6-.3 1.4-.2 2 .2.4.3.7.8.6 1.4 0 .2-.3.3-.5.3l-.6-.3m.7-.4v-.2c0-.2-.7-.5-1-.5 0 0-.2-.1-.2 0l.5.7c.2.2.4.2.7 0m-6-.4-.1-.2v-.1l.3.3.8.2.7-.3-1.3-.7-.1-.2h.2c.4.1.6 0 1 .2h-.1l.7.5.3.6-.4.2-.9.2c-.4 0-.9-.2-1.2-.7m1.5-1.4a3 3 0 0 1-.4-.7v-.2l.2-.4.2-.4c0-1.1.3-2.2.6-3.3l.6-2.8c-.3-.4-1-.5-1.5-.5-.3 0-.6 0-.9.2-.6.2-1 .7-1.2 1l-.2.3-.3.1h-.1l-1-1.1a4 4 0 0 0-.7-1 .8.8 0 0 0-.6-.2 2 2 0 0 0-.9.3l.2.8-.1.2c-.3-.7-.5-1.3-.8-1.7h-.1a2 2 0 0 0-1 .3l.3 1v.2h-.1c-.2-.4-.4-.8-.8-1-.4-.5-1.1-.5-1.7-.5h-.2c.2.3.4.9.4 1.4-.3-.9-1.2-1.1-2-1.3l-1.1-.2c-1.3 0-2.4.5-2.8 1.1l-.3.2-.2-.1a3 3 0 0 0-2.3-1c-.5 0-1 0-1.4.2.6.7.8 2.2 0 3.1-.1.2-.3.3-.4.3l-.2-.1c-1-.7-1.7-2.1-1.4-3.2-.5-.2-1.1-.3-1.8-.3-.8 0-1.6.2-2 .4-1 .6-1.4 1.9-1.5 2.6l-.1.3v.2c-.1-.1-.2-.4-.2-1a1.6 1.6 0 0 0-1.5-1.3h-.5l-.5-.1c-.4-.2-.9-.6-.9-1.2 0-.4.1-.8.3-1-.6-1-2.7-2-3.4-2.4l-.3-.2h.4s2.8.4 3.7 2.4c.2-.2 1-.3 1.5-.3h.4l.1.2c.4.5 0 1.6-.2 1.8v.1c.6.2.9.7 1 1.1v.1l.2-.2c.1-.6.3-1.1.7-1.6.6-.6 1.5-.9 2.6-.9 1 0 2 .2 3 .6.6-.4 1.4-.6 2.3-.6 1 0 1.9.4 2.4 1l.2.2.2-.2c.5-1 1.8-1.1 2.6-1.1.9 0 1.8.1 2.3.4.2-.2.6-.3 1-.3.7 0 1.4.2 1.7.5.2-.2.8-.5 1.3-.6h.1l.7 1.2c.2-.2.8-.6 1.3-.6.3 0 .8.6 1 1h.1c.3-.6 1.4-.8 2-.8h.2c.2 0 .2.3.2.5l1.1-.2c.7 0 1.4.2 1.7.5.2.3.3 1 .3 1.9a25.5 25.5 0 0 1-1 5v.2l.3.6c0 .1 0 .2-.2.3-.2.2-.4.4-.5.8v.1h-.1m-20.8-7h.1c.3 0 .5-.4.7-1a2 2 0 0 0-1.2-.8c-.3 0-.6.4-.7.6.2.6.8 1.2 1.1 1.2zm18.2-1 .2-.6h.1-.1c-.5 0-1 .2-1.3.4 0 .4.4.7.6.7.2 0 .4-.3.5-.6m-27.5-1c.4 0 .9-.3 1.1-1h-.2c-.6 0-1.4.2-1.7.6.2.4.5.5.8.5zm11.6 7-.1-.2-.1-.4h.3l3.7 1.5.2.5-4-1.5m21.4.7c-.1-.7.2-1.4.3-2l.2-1.4.5-2.7.3-1.8c0-.3.2.3.2.3v1.3c0 1.4-.4 2.8-.7 4.2l-.2 1.1-.2 1c0 .2 0 .8-.2.8s-.2-.7-.2-.8m-6.1.3c-.4-.1-.8-.6-1-1.2l.1-.5c.2-.2.5-.3.9-.4a7.7 7.7 0 0 0-2-1.7c-.3-.2-.3-.4 0-.2 1.5.6 2.1 1.3 2.4 1.8h.3c.2 0 .1-.1.2.2l.1.2-.4.2v1.1c-.2.4-.4.5-.6.5m0-.6c.2-.1.3-.3.3-.7v-.2h-.2l-.6.3c-.2 0 0 .2 0 .2l.2.3h.4m-17.7-1.2-.5-.7-.7.4h-.2a12 12 0 0 1-.4-.6v-.3c.3 0 .6-.3.8-.4l.1.1.5.6.7-.4h.2c0 .2.3.5.4.6l-.1.3-.7.4h-.1m11.5-.7-.2-.3v-.1l.3.3c.3.1.5.2.8.1l.7-.2-1.2-.7c-.1 0-.2 0-.2-.2h.2l.9.3.7.4h.1l.3.6-.5.2-.9.2c-.4 0-.9-.2-1.1-.7m-19.9.2-3-1.2-.1-.1-.2-.5h.1l.3.1 2.8 1.1v.1l.2.4v.1m13.2-.5-.5-.7-.7.5h-.2l-.4-.7v-.2l.8-.4h.1l.4.7.8-.5h.1l.5.7-.1.2-.7.4c0 .1-.1.1-.1 0m-10.7-7.6-.4-.8-.7.5h-.2a12 12 0 0 1-.5-.7l.1-.2.8-.4h.1l.4.7.8-.4h.1l.4.6v.2l-.7.5h-.2m3.7-1.4-.1-.1c0-.1 0-.4-.2-.5h.1l.4.1 3.1 1.3h.1l.1.5-3.5-1.3m56.2 15.5-.8-1.2-.5.2c-.1 0-.2 0-.3-.2l-.3-.7-.1-.3s0-.1 0 0c.2.2.4.7.5.6.6-.3 1.4-.2 2 .2.4.3.7.8.6 1.3 0 .2-.3.4-.5.4l-.6-.3m.7-.4.1-.3c-.1-.2-.8-.4-1-.5h-.3l.5.7c.2.2.5.3.7 0m-3.8-2c-.2-.1-.4-.5-.5-.7v-.2l.4-.6v-.1c.3-2.5 1.1-6 1.1-6.1-.6-.7-2.3-1.1-2.9-1.2.4.5.9 1.3.9 2 0 .5-.7.8-1.3.8-.4 0-.8 0-1.1-.3-.4-.2-.8-.7-1.2-1.2l-1.6-1.3c-.4 0-1.2.4-1.7.8v.9h-.2c-.7-.4-2.6-1-3.3-1.2h-.1l-.1-.9h.4c-.8-1.8-2.1-2.7-3.7-2.7-.7 0-1.5.2-2.3.6h-.4l.2-.3c.5-.3 2-1 3.2-1 .4 0 2.9.2 3.3 3.4l2.4.8c.1-.3.7-1 1.1-1.2v-.2l-.3-1.3v-.2l.2.1.1.6.3.9 2-.2c2.2 0 4.8.6 5.8 1.3.6.5.7 1.3.6 1.9 0 .8-.2 1.9-.5 2.9l-.4 2.2.1.1c.2.2.4.4.4.6 0 0 0 .2-.2.3-.1.1-.4.4-.5.8l-.1.1h-.1m-1.5-7.5c-.6-1-2.5-1.6-4-1.6h-.1l.6.5c.5.5 1 1 1.5 1.2 1.1.6 1.9.3 2.1 0m4 7.1V256a235.2 235.2 0 0 1 1.6-8.1v1.5l-.3 2.3-.6 3a25.9 25.9 0 0 0-.6 2.8v-.2m-22.5 0-.4-.8v-.2l.4-.6c.2-2.4.7-3.6.8-6.3l-1.2-1.1c-1-.1-2.6.2-3.2.3-.5.2-.3 0-.2-.2.6-.4 1.5-1 2.3-1.1 2-.4 5.2.2 6.3 1.4.2.3.8 1 .7 1.7-.1 1-1.4 1-2 1-1-.3-1.7-1.2-2.5-1.9l.2 1.2c-.1 1.9-.5 3-.7 4.7l.4.7c.1.2-.5.6-.7 1 0 .2-.1.2-.2.1m5-7.4c-.7-.9-3.6-1.6-4.7-1.5.7.5 1.8 1.7 2.6 2 .6.2 1.7 0 2-.5m2.6 5.2h-.1c0-.2 0-.4-.2-.5h.5c.4.3 2.9 1.2 3.5 1.5h.2v.5l-4-1.5m-2.6 1.5-3.1-1.3h-.1c0-.1 0-.4-.2-.5 0-.1 0-.1.1 0h.4c.5.3 2 1 2.7 1.2h.1l.1.5m12.4-1.1-.2-.4.1-.5c-.2-.2-.5-.2-.6 0l-.2.4v.1c-.3-.1-.2-.1-.2-.2 0-.5-.3-.8-.7-.8-.3 0-.5.2-.3.7 0 0 0 .2-.1 0-.4-.8-.2-1.2.2-1.2.3-.1.7 0 .9.6.1-.3.4-.4.7-.3.3.1.4.3.5.5v1c0 .2 0 .1 0 0m-11.3-1.5-.2-.5.3-.4c.5-.7.7-1.4.6-2.5v-.1c.2 0 .3.7.3 1.1 0 1-.4 1.8-.9 2.4h-.1m9.4-8.8h-.2l-.2-.5h.4l3.6 1.5h.1l.2.5-4-1.5m-118.1 35.9-.8-1.3-.5.2c-.2.1-.3 0-.3-.2a5 5 0 0 1-.4-.7v-.3c.2.2.4.7.5.6.6-.3 1.3-.2 2 .2.3.3.7.8.6 1.4 0 .1-.3.3-.5.3l-.6-.3m.7-.4v-.2c0-.3-.7-.5-1-.6h-.2c.1.3.3.6.5.7.2.2.4.3.7.1m-1.1-2.5-.2-1v-.4l.4-1.7.7-3.6.4-2.8c0-.1.1-.1.1 0 .2.5.2 1 .2 1.5l-.4 2.3-.6 3.1c-.2.9-.4 1.7-.4 2.6l-.1.1-.1-.1m-23.4-1.8-.2-.6.4.1 4.4 1.5v.1l.2.5-4.8-1.6m-4.7 1.6-.2-.9v-.1c.2-.5.2-1.2.3-1.6l.5-3.1c.2-1.6.2-3.2 1.8-3.6a15.1 15.1 0 0 1 7.3.7l.7.3.2 1.1c0 1-.5 1.7-1 2.2-.1 0-.1.1-.2 0l-.1-1v-.1c.7-.5.9-1 1-1.3-1.6-.7-4-1.2-6-1-.7 0-1.5 0-2.1.3-.3 0-.5.2-.6.4-.3.4-.4 1-.6 1.9l-.5 3.5c0 .8-.2 1.8-.3 2.3 0 .1-.1 0-.2 0m22.8-1.4v-.3s0-.1 0 0l.3.2c.2.2.5.3.8.2l.7-.2-1.3-.7s-.2-.1-.1-.2h.2c.4 0 .6 0 .9.2l.7.5.3.6-.4.1-.9.3c-.5 0-1-.2-1.2-.7m-15.1-1.2a7 7 0 0 1-.4-.6v-.2l.7-.4h.1l.4.7v.1l-.7.4h-.1m6.8-1.1a3 3 0 0 1 0-.8l.7-2.4c-.3-.8-1.8-1.2-2.7-1-.6 0-.5.3-.6.3l-.2-.3.1-.9c.4-.5 1.7-.1 2.3.1.7.3.8.3 1.2 1.4.4-.9.8-1.6 1.3-2 1.4-1 5.6-.5 7.7.6.8 0 1.9-.5 2-.5h.5c.2.1.3.5.4.8.1.8 0 1.3-.5 1.9-.6.7-1.4 1.4-2.4 2l-.6.1s-.2 0-.2-.2v-.8c0-.1 0-.2.2-.3-.4-.6-.8-1.6-.4-2.4-1.7-.6-5.2-1.1-6.5-.1-1.2.7-1.7 3.2-2.1 4.5 0 0-.1.1-.2 0m10.8-3.6-.7-.4c-1 0-1 .2-1 .4 0 .4.4 1 .8 1 .3 0 .7-.5.9-1m1.4-.4.3-.5s-.1-.2-.3-.2l-1.3.4c.2.4.2 1 .2 1.4l1.1-1m-14.1-4.2-.1-.1-.2-.5h.1l.3.1 3.2 1.3.2.5-3.5-1.3m67.3 12.4v-.1l-.2-.5.4.1 3.6 1.4.2.5-4-1.4m-27.3-.3c-.4 0-.8-.6-1-1.2l.1-.5.9-.3a7.7 7.7 0 0 0-2-1.8c-.3-.1-.3-.3 0-.2 1.5.7 2.1 1.3 2.4 1.9h.3c.2-.1.1-.1.2.1l.1.3-.4.1v1.2c-.2.3-.4.4-.6.4m0-.6c.1-.1.3-.3.3-.7v-.2h-.3l-.5.3c-.2 0 0 .2 0 .2 0 .1 0 .2.2.3l.1.1h.3m15-1v-.1l-.2-.5h.1l.3.1 3.6 1.4h.2v.5l-4-1.4m14.7.5-.4-.7v-.2l.7-.3h.1l.4.7v.1l-.7.4m-4-2.1v-.3l.3.3.8.2c.3 0 .7-.2.7-.3l-1.2-.7c-.1 0-.2 0-.2-.2h.2c.5.1.6 0 1 .2l.6.5h.1l.3.6-.4.2-1 .2c-.4 0-.9-.2-1.1-.7m-8 0-.5-.6-.7.4h-.2l-.4-.6v-.3l.8-.4h.1l.4.7.8-.4h.1l.4.6v.3l-.7.4h-.2m12.8-1.7a8 8 0 0 0 1.2-2.4c.2-.4-1.3 0-1.7.1v.6c0 .1 0 0-.1 0-.2-.8-.4-1.3-.6-1.3l-1 .3.3.7c0 .2 0 .4-.1.2-.4-.6-.7-.9-1-1a4 4 0 0 0-1.7-.4c.1.2.4.7.4 1.1 0 .3 0 .4-.1.2-.9-1.4-2.7-1.6-4.2-1.7-1.4 0-2.7.2-3.3 1.1-.1.1-.2.2-.4 0-1.1-1.5-2.6-1.4-3.7-.8.4.3.8 1 .6 1.3-.2.5-1 .8-1.7.8-.9 0-1.8-.5-1.9-1.3 0-.3 0-.3.2-.2.6.2 1-.1 1.3-.4-2-.9-3.8-.8-4.5.5-.3.5-.3 1.6-.7 2.6-.1.3-.4.2-.4 0-.3-.6-.5-1.2-1.2-1.2-.3 0-.4 0-.5.3l-.2.4c0 .2-.1.1-.2 0l-.2-.9c.3-.4.6-.9.7-1.5-.5-.7-1.4-1.3-2.7-1.8-2.1-.9-5.3-1-6.6-.7-2.1.2-4.7 1.4-5.6 2.1 0 0-.2.1-.2 0v-.2a9.8 9.8 0 0 1 6.8-3c2 0 4.2.3 5.8 1 1.1.4 1.9 1 2.3 1.6.4.5.5 1.1.5 1.6.8 0 1.1.8 1.3 1.4 0 .1.1.1.1 0 .5-1.6.4-3.4 2.3-3.8 1.3-.2 2.8.3 3.8 1 1.3-1.5 3.3-1.3 4.6.2 0 .1.1.1.2 0 .6-.7 1.5-1 2.5-1.1 1.3-.1 2.8.1 4 .6 1.6-.1 2.3.1 2.8.6l1.4-.6c.1 0 .5.5.7 1 .4-.3 1.4-.7 1.8-.5.2 0 .3.3.4.6.4 1.8-.6 3-1.3 4l-.2-1m-31-.6a7 7 0 0 1-.3-.6v-.2l.6-.4h.2l.4.7v.2l-.7.4h-.2m8.1-5.2-.4-.7-.7.4c-.1.1-.1.1-.2 0-.2-.1-.3-.4-.4-.6v-.2l.8-.4h.1l.4.7.8-.5h.1l.4.7c.1.1 0 .1 0 .2l-.7.4h-.2m3.9-1.6h-.1l-.2-.6h.1l.3.2 3.6 1.3.1.1.2.5h-.1l-4-1.5m41.1 12.5v-.6c.2-.3.2-.6.2-1 .2-.5 1-5.2 1-5.2l.2.8v1.2l-.6 3-.2 1.3c0 .2-.1 1.4-.3 1.4-.2 0-.2-.8-.3-1m-17.6-1-.2-.5c0-.1 0-.1 0 0h.4l3.6 1.5h.1l.1.5-4-1.5m5 .9-.5-.9.5-.7 1.3-6.6c-2.5-.4-4.5-.5-6.5-.5-.2 0-.2.2-.3.2l-.2-.7c-.1-.5.2-.5.6-.5 2.1 0 4 .2 6.1.6.4 0 .4.2.5.8l-.1 1.8-1 5 .4.6c-.3.2-.6.6-.8 1h-.1m10.7-.3-4.8-1.7v-.1l-.3-.6h.1l.4.2 4.3 1.5h.2l.1.6m-7.8-.3-.2-.9v-.1l.2-1.4.5-3c.2-1.6.2-3.3 1.8-3.6 1.5-.4 3.8-.2 5.8.4.2 0 .6.1.7.3.2.2.3.7.3 1 .1 1-.4 1.7-.9 2.2-.1.2-.1.2-.2 0l-.1-.9v-.1c.6-.5.7-1 .8-1.4a11 11 0 0 0-6.6-.4c-.8.4-1 1-1.2 2.3l-.5 3.5c0 .8-.1 1.6-.3 2.1 0 .1-.1 0-.1 0m7-2.2-.2-.4v-.5c-.2-.2-.4-.2-.6 0l-.1.4c0 .1 0 .2-.1 0l-.2-.1c0-.5-.3-.8-.7-.8-.2 0-.4.2-.2.7 0 0 0 .2-.2 0-.3-.8-.1-1.2.3-1.3.3 0 .7.2.9.6.1-.2.4-.3.7-.2.3 0 .4.2.5.5v1c0 .1-.1 0-.1 0m-13-1.3c0-.3-.2-.8 0-1 .4-.3.8 0 1-.2.3-.2 0-.2-.1-.3l-.5-.3h-.3c-.3-.1-.6-.2-1-.1 0 0-.4 0-.3-.2 0-.2.5-.2.7-.2.3 0 .6-.2 1 0l.4.1c.4.2.5.5.6.8 0 .3.1.5 0 .8 0 .4-.5.3-.8.3l-.3.2c-.1 0 0 .1 0 .2l.3.4c.3.2.3-.5.5 0 0 .2.2.5.1.8-.4.6-1.1-1-1.3-1.3m16.1-3.7.1-.4.5-.3-.3-.2v-.4c.3.2 1.4.5 1.9.6l.2.4v.1l-1-.1a2 2 0 0 0-1 .5l.6.3c.3 0 .4-.4.5-.4l.2.5c0 .1-.2.4-.4.4-.4 0-1-.6-1.3-1m.4-2v-.1l-.2-.5.4.1 1.9.7.2.5-2.3-.7m-3.3-1-.2-.8-.7.5h-.3l-.4-.7v-.2l.8-.4h.1l.4.7.8-.5h.1l.4.7c.1.1 0 .1 0 .2l-.7.4c-.1.1-.1.1-.2 0m10 9.7-3.9-1.4v-.1l-.2-.5.4.2 3.6 1.3v.1l.2.5m-2-5.9c0-.7 0-1.4.9-1.5.3 0 .7.2 1 .7.3-.5-.7-2-1.4-2.6-1.4-1.3-2.9-1.3-4.7-1-.2 0-.3-.2 0-.3 1.2-.5 3.4-.7 4.3-.1 1.5.7 2.5 3 2 4.9-.2.7-.6 1.5-1 1.5-.5 0-1-.9-1-1.6m1.4-.2c-.3-.3-.7-.5-1.1 0v.3c.4.5.7.5 1.1-.3m19.9 6.2-.1-.1-.2-.5h.1l.3.1 3.6 1.4.1.1.2.4-.1.1-4-1.5m-13.7 1.4c-.3 0-.8-.6-1-1.2 0-.2 0-.4.2-.5l.9-.3a7.7 7.7 0 0 0-2-1.8c-.4-.2-.3-.3 0-.2 1.4.6 2 1.3 2.4 1.9h.3c.1-.1 0-.2.2.1v.3l-.3.1v.2l-.1 1c-.1.3-.3.4-.6.4m.1-.6.3-.7v-.2h-.4l-.6.3c-.1 0 0 .2 0 .2l.2.3.2.1h.2m4.5-.8c-.4 0-.8-.6-1-1.2l.1-.5.9-.3a7.6 7.6 0 0 0-2-1.8c-.3-.2-.3-.4 0-.2 1.4.6 2.1 1.3 2.4 1.9l.3-.1c.2 0 .1 0 .2.2v.3l-.3.1v1.1c-.2.4-.4.5-.6.5m0-.6c.1-.1.3-.3.3-.7v-.2h-.3l-.5.3c-.2 0 0 .2 0 .2 0 .1 0 .2.2.3l.1.1h.3m11.5-.9-.3-.6v-.2l.6-.4h.2l.4.7v.1l-.7.4h-.2m-4.6-1.1-.1-.2v-.1l.3.3c.3.1.5.2.8.1l.7-.2-1.2-.7c-.1 0-.2 0-.2-.2h.2c.5.1.6 0 1 .2l.6.5h.1l.3.6-.4.2-1 .2c-.4 0-.9-.2-1.1-.7m-11.5-.5v-1.2l.5-1.8c-.3-.8-1.8-1.3-2.7-1.2-.6 0-.5.5-.7.5l-.1-.4c0-.4 0-.7.2-1 .3-.4 1.7 0 2.4.2.6.4.7.4 1 1.4.4-1.1.7-1.9 1.3-2.3 1.2-.9 2 .5 2.4.9h.3c.6-.7 2.2-1.2 4-1.1 1.6 0 4.5.6 5.8 1.4 1-1.2 3-1 3.5 0 .5.8.4 1.7 0 2.4a4 4 0 0 1-.8 1.2h-.1l-.1-1v-.1a4 4 0 0 0 1-1.7c-.6-.8-2-.6-2.5-.2.3.3.6 1 .5 1.2-.1.6-1 .9-2 .8-.8-.1-1.2-.5-1.5-1.3 0-.2 0-.3.2-.2.3.3 1 .1 1.3-.4a14 14 0 0 0-6.2-1c-1.3 0-2.3.4-3 1-.2 0-.3 0-.4-.2-.8-1.2-2-1.1-2.8.1-.5 1-.9 2.7-1.3 4 0 .2 0 .2 0 0m4.1-7-.3-.5v-.2l.7-.3h.1l.4.6v.2l-.7.4h-.2m20.3 11.7-3.6-1.6-.2-.5c0-.1 0-.1 0 0h.4l3.1 1.4h.1l.1.5m14-.6-.2-.9v-.4c0-.6.2-1.2.3-1.7l.7-3.7.3-2.8c0-.1 0-.1.1 0l.2 1.5-.3 2.3-.6 3.1-.4 2.6-.1.1m-12.7-.2-.4-1 .3-.6c.2-2 1-5.4 1.2-6.5-.5-.2-4.8-.8-6-.5l-.1.2h-.2c-.3-.7 0-1.1.3-1.2.7-.2 4.6.1 5.7.4.1 0 .3 0 .3.2.3.4.4 1.4.3 2-.2 1.6-.8 3.7-1 5.2.2 0 .4.5.4.6 0 .2-.5.7-.6 1.2 0 .1-.1 0-.2 0m6-1.7h-.1l-.2-.6.4.1 4.4 1.6.2.5v.1l-4.8-1.7m-3.2.2c.4-1.4.4-5.8 1-7.1a2 2 0 0 1 1.3-1c1.5-.5 5.2 0 6 .4.9.4.9 1.6.7 2.3 0 .4-.3 1-.8 1.3-.2.2-.3-.8-.2-1l.7-1.4c-.8-.5-3-.8-4.6-.7-1 0-2.4.1-2.8 1.3-.5 2-.4 5-1 7 0 .3-.3-.6-.3-1m6.9-1-.2-.4v-.5c-.1-.2-.4-.3-.5-.1-.2 0-.2.2-.2.5 0 .1 0 .2 0 0-.3 0-.2 0-.2-.1-.1-.6-.3-.8-.7-.8-.3 0-.5.1-.3.6 0 .1 0 .3-.1 0-.4-.7-.2-1.1.2-1.2.3 0 .7.1.9.6.1-.2.4-.3.7-.2.3 0 .4.2.5.5v1c0 .1 0 0-.1 0m-11.6-.8c-.4-.4-.8-1.2-.8-1.7l.1-.5h.5l.6-.2v-.1c-.5-.5-1.2-.7-2-.5-.3 0-.4-.2 0-.3.6-.3 1.6-.4 2.1.2.3.2.6 1 .4 1.4-.2.2-.5.2-.9.2-.1 0-.3 0-.4.2l.1.4.3.3h.2v-.1c.1-.1.2-.1.2 0l.3.5v.3l-.2.1-.2.1-.3-.3m15.2-7.8.1-.4.5-.3-.4-.3v-.3l2 .6.2.4h-1a2 2 0 0 0-1 .5l.6.2c.3 0 .4-.3.5-.3l.2.5s-.2.4-.4.4c-.4 0-1-.6-1.3-1m-3.2.7-.5-.8-.6.5h-.3l-.4-.8v-.2l.8-.4h.2l.4.7.7-.4h.2l.4.6v.2l-.8.5h-.1m5.9-2-2.2-.7-.1-.1-.2-.5.4.1 2 .7.2.5h-.1m-120.8 37-.9-1.2-.5.2c0 .1-.2 0-.3-.2a5 5 0 0 1-.3-.7l-.1-.2c0-.1 0-.2.1 0 .2.1.3.6.4.5.6-.3 1.4-.2 2 .2.4.3.7.8.6 1.4 0 .2-.2.3-.5.3-.2 0-.4-.1-.5-.3m.6-.4.1-.2c0-.2-.7-.5-1-.6h-.2c0 .3.2.6.5.8.2.1.4.2.6 0m-1.3-2v-.2l-.2-.9v-.5l.3-1.7.7-3.6c.2-1 .4-1.9.4-2.7 0-.2.1-.2.1 0 .2.4.2 1 .2 1.5l-.3 2.3-.7 3a26.7 26.7 0 0 0-.5 2.8zm-2.4-.7-.4-1 .2-.4 1.3-7h-.1c-.3-.6-1.2-.5-1.6 0-.5.6-.8 1.8-1 2.6a53.1 53.1 0 0 0-.6 1.9v-1c0-.8.3-1.4.4-2-.3-.7-1.2-1-1.8-1.1l-1.2-.2c-.3 0-.3.3-.3.3-.1 0-.2 0-.2-.2 0-.4-.2-1 .3-1 .5-.2 2 .1 2.6.5.4.2.7.6.8 1.2.3-1 .4-1.6 1-2.2.3-.2 1.2-.7 1.7.3s.3 1.8 0 2.9l-.7 4.6.4.7-.7 1c0 .2 0 .2-.1 0m-2-.4-.1-.3v-.5c-.2-.2-.4-.2-.6-.1l-.1.5c0 .1 0 .2-.1 0l-.2-.1c0-.6-.3-.8-.7-.8-.2 0-.4.1-.2.6 0 .2 0 .3-.2 0-.4-.7-.1-1.1.3-1.2.3 0 .6.1.8.6.2-.2.5-.3.7-.2.4 0 .5.2.6.5v1c0 .1-.1 0-.1 0m-4.6-4.4-.2-.9.3-.8c-.3-.2-.7-.3-1.2-.3-.4 0-.4.1-.6.4l-.2.4c0 .1-.1.1-.1 0l-.2-.9c.2-.4.5-.9.6-1.5-.4-.7-1.3-1.3-2.7-1.9-2-.8-5.3-.9-6.6-.7-1.7.3-4 1-4.9 1.7 0 0-.2.1-.2 0-.1 0 0-.1 0-.2 1.6-1.9 3.9-2.4 6.2-2.5 2-.1 4 .3 5.7 1 1.2.4 1.9 1 2.3 1.5.4.6.5 1.2.5 1.7.7 0 1.2.2 1.4.4.5.5.4 1.9 0 2.6 0 .2 0 .2-.1 0m-8.3-1-.4-.7.1-.2.6-.3h.2l.4.6v.2l-.7.4h-.2m14-5c-.7-.4-3.2-1.3-3.9-1.6l-.2-.5h.4l3.6 1.5h.1l.1.5m-6-.2-.5-.7-.7.4h-.2l-.4-.7v-.2l.8-.4h.1l.4.7.8-.4h.1l.4.6v.2l-.7.5h-.2m-8.7-3.4h-.1l-.2-.5h.1l.3.1 3.6 1.4h.1l.2.5h-.1l-4-1.5m29.5 13-.1-.1-.2-.5h.1l.3.1 3.6 1.4h.1l.2.5h-.1l-4-1.4m-2.5-2.2v-.2l.3.2c.2.2.5.3.8.2l.7-.2-1.3-.7-.1-.2h.2c.4.1.6 0 .9.2l.7.5.3.6-.4.1-.9.3c-.4 0-1-.2-1.2-.7m4.7-.8v-1.1a4 4 0 0 0 1-1.3 5 5 0 0 0-2-1c-.3.9-.8 1.9-1.3 1.9-.3 0-.6-.2-.8-.8-.4-.8-.3-1.8 0-2 .5-.4 1.2-.3 1.9-.1-.5-1-1.2-1.9-2.2-2.4a6 6 0 0 0-4-.4c-.3 0-.3-.2-.2-.3 2-.6 3.6-.7 4.8 0 1 .6 1.7 1.7 2 3.2.8.2 1.4.5 1.7.8.6.5.5 1.5.4 2-.3.6-.7 1.1-1.1 1.5h-.2m-1.6-3.5c-.8-.2-1.4 0-1.4.3s.3.6.6.6c.2 0 .6-.4.8-.9m-6.1 2.3c-.8-1.1-.8-2-.6-2.3-.9-1-2.4-2-3.8-2.8-.2-.1 0-.3.1-.3 1.6.6 3.5 1.2 4 3 .3-.2 1.2-.3 1.9-.3.2 0 .2 0 .3.4.1.5 0 .6-.1 1.2l-.7 1.3c-.4.6-.9.3-1.1-.2m1.2-1.6a3 3 0 0 0-1.5.3v.1c.2.5.4.7.6.6.4 0 .7-.5 1-1m-2.5-3.4v-.1l-.2-.5.4.1 2.8 1.1v.1l.2.5-3.2-1.2m10.4 0-.4-.6-.7.4h-.2l-.4-.7v-.2l.8-.4h.1l.4.7.8-.4h.1l.4.6c.1.2 0 .2 0 .2l-.7.5h-.2m26.1 9.1-.2-.6.4.2 3.5 1.4h.2l.1.5-4-1.5m-5.4 1c0-.5-.1-.6-.2-.9v-.2l1.3-6.7c0-.9-1.2-.5-1.6 0l-.5 2-1 5.4c0 .2 0 .2-.1 0l-.2-.8v-.2l.8-4.3c-1.4-1.4-4.8-2.1-7.5-2.3-3.6-.3-7.3.3-9.4 1.7-.3.2-.4 0-.2-.2.8-.8 1.2-1.5 2.4-1.9 3.4-1 7.6-.9 11.1 0 1.7.5 3.2 1.2 3.7 2l.4-2c.3-.5.9-1.1 1.7-1 .5 0 .8.9.8 2.3.5-.9 1.5-1.3 3.4-1.3 1.5.1 2.2.3 2.6 1.5.5-.5 1.5-.6 2.1-.6.2 0 .2 0 .3.4.2.4 0 .5 0 1.1a8 8 0 0 1-.6 1.4c-.2.4-.5.4-.7.3-.4-.3-.7-.9-.9-1.3-.2-.4-.3-1-.6-1.2-.4-.4-1.1-.5-1.8-.6-1.3 0-2.2 0-2.8.5-.7.5-1 1.6-1.3 2.5a53.1 53.1 0 0 0-1 4.3m9-6.4c-.7 0-1.1.3-1.4.4v.1c.2.5.4.7.6.7h.1c.4 0 .6-.7.7-1.2m-17.2 4.1c-.2-.1-.4-.4-.5-.7-.2-.3-.6-1-.4-1.3.2-.3.7-.3 1-.3.3-.1-.3-.3-.4-.4-.4-.2-.8-.2-1.2-.1-.1 0-.4.2-.5 0-.2-.2 0-.3.3-.4.6-.2 1.5-.4 2 .2.2.3.6 1 .3 1.4-.2.3-1 0-1 .3-.2.2.3.9.5.7l.2-.3.3.3c0 .1.3.5.1.6-.2.3-.4.3-.7 0m11.3.1-.2-.5.3-.4c.5-.7.7-1.5.6-2.5v-.2c.2 0 .3.8.3 1.2 0 1-.4 1.8-.9 2.4h-.1m-3.8-8.8v-.1l-.2-.5.4.1 3.6 1.4v.1l.2.4v.1l-4-1.5m-5.5 1.3-4.1-1.5h-.1l-.1-.5c0-.1 0-.1 0 0h.3l3.8 1.5.2.5m59.8 14.5-.8-1.2c-.2 0-.4 0-.5.2-.2 0-.3-.1-.3-.2l-.4-.7v-.3c0-.1 0-.2 0 0l.5.6c.6-.4 1.3-.3 2 .1.3.4.7.9.6 1.4 0 .2-.3.4-.5.4l-.6-.3m.7-.5v-.2c0-.2-.7-.5-1-.5h-.2l.5.7c.2.2.4.2.7 0m-9-3.2v-.1l-.2-.5h.1l.3.1 3.2 1.3.2.5-3.5-1.3m7.5 1-.1-.9v-.4l.3-1.8.8-3.6.3-2.7c0-.2.1-.2.2 0l.1 1.4-.3 2.4-.7 3-.4 2.6-.1.1-.1-.1m-2.6-.2-.4-.5v-.3l.3-.6 1.1-6c-.5-.3-1.5-.4-1.8 0-.1.3-.3.2-.3-.3 0-.6.2-1 .6-1-1-2.5-3.1-3.5-5.7-2.4-.3 0-.4-.2-.2-.3 2.6-1.3 5.2-1.6 6.4 2.7.3 0 .7 0 1 .3.8.6.3 2.4.1 3.5l-.7 3.3.4.5v.2l-.7 1h-.1m-2-2-.1-.3v-.5c-.1-.2-.4-.3-.6-.1 0 0-.1.2 0 .4 0 .2 0 .3-.2.1-.2-.1-.1 0-.1-.2-.1-.5-.3-.7-.7-.8-.3 0-.5.2-.3.7 0 .1 0 .2-.2 0-.3-.7-.1-1.2.3-1.2.3 0 .7.1.9.6.1-.3.4-.3.7-.3.3.1.4.3.5.6v1h-.1m-6.9-3.6c-.9 0-1.3-.8-1.5-1.3 0-.1.1-.3.2-.1 1 .7 2.6 0 4-.5l-2.7-1c-.7-.2-1.1-.3-2 0l.2.7c0 .3 0 .2-.2 0-.6-.5-1.5-.9-2.5-1.1-1.8-.4-3.8-.6-5.5-.3-1.3.3-2.4.8-3 1.7-.3.3-.4.7-.7.7-.4 0-.9-.6-1-1.2-.2-.5-.1-1 .1-1.3-1-1-2.3-1.8-4-2.6-.2-.2-.1-.2 0-.2 1.2 0 3.9 1 4.3 2.6a7 7 0 0 1 1.8-.5c.1 0 .2 0 .3.5a7 7 0 0 1 3.8-.8c2.3 0 5 .5 6.2 1.5.3-.3.5-.6 1.1-.7.5-.2 2.1.4 3 .8 1.3.6 2.4 1 3.8.6l.6 1c-.8 0-1.9 0-2.7.3-2.2.4-2.8 1.2-3.6 1.2zm-13.8-1.8.8-1.3c-.6.1-1.2.4-1.4.6v.2c0 .1.3.5.6.5zm13.7-3.3v-.1l-.2-.5.4.1 3.6 1.4.1.1.1.4v.1l-4-1.5m-2.5-.2-.4-.7-.7.4c-.1.1-.2.1-.2 0l-.5-.6.1-.2.8-.4h.1l.4.7.8-.5h.1l.4.7v.2l-.7.4h-.3m-12.8-1.9-.2-.6.4.2 3.6 1.3.1.1.1.5-4-1.5m57.7 15c-.3-.2-.6-.8-.8-1.1l-.5.2c-.2 0-.2 0-.3-.2a5 5 0 0 1-.3-.7l-.1-.3s0-.1 0 0c.2.2.4.7.5.6.6-.3 1.4-.2 2 .2.4.3.7.8.6 1.3 0 .2-.3.4-.5.4l-.6-.3m.7-.4v-.3c0-.2-.7-.4-.9-.5h-.3l.5.7c.2.2.5.3.7 0m-9.4-3.1-.2-.6.4.2 3.6 1.3.1.1.1.5-4-1.5m8 1.2v-.1l-.2-1.1v-.5l.3-1.7.7-3.6.3-2.8c0-.1 0-.1.1 0 .2.5.2 1 .2 1.5l-.3 2.4-.6 3a26.4 26.4 0 0 0-.5 2.8zm-2.8-.3-.5-.7v-.1l.3-.7c.2-1.9.6-3.4 1.2-6.6-.6-.5-1.9-.4-2.1 0-.2.3-.3.2-.4-.2 0-.7.3-1 .6-1.1-1-2.5-3.6-3.4-6.3-2.1-.3 0-.4-.2-.2-.3 2.6-1.4 5.8-2 7 2.2.3 0 .9.1 1.2.3 1 .6.5 2.5.3 3.6l-.7 3.8.4.6c.1 0 .1 0 0 .2l-.7 1c0 .2 0 .2-.1 0m-17-2.4-.2-.5c0-.1 0-.1 0 0h.4l3.1 1.3.1.1.2.5h-.1l-3.5-1.4m15.3.5-.2-.3v-.5c-.1-.2-.4-.3-.6-.1l-.1.5c0 .1 0 .2-.1 0l-.2-.1c0-.6-.2-.8-.6-.8-.3 0-.5.1-.3.6 0 .1 0 .3-.2 0-.3-.7-.1-1.1.3-1.2.3 0 .7.1.9.6.1-.2.4-.3.7-.2.3 0 .4.2.5.5v1c0 .1-.1 0-.1 0m-7.4-.9c-.2 0-.4-.2-.5-.4l-.1-.2c0-.2.2-.1.2 0 .3.1.6.4 1 .3l.9-.2-.7-.3-.5-.3-.3-.1c0-.2 0-.3.2-.3a4.4 4.4 0 0 1 1.8.9s.5.5.2.5l-1.2.3c-.4.1-.7 0-1-.2m-9.5 0-.2-.5.3-.4c.5-.7.8-1.4.6-2.5v-.1c.2 0 .3.7.3 1.1 0 1-.4 1.8-.9 2.4 0 .1 0 .1 0 0m-3.2-2.5-.4-.6.1-.2.6-.4h.2l.4.7v.1l-.7.4h-.2m13.2-.7c-.5 0-1.1-.3-1.5-1.2 0-.2 0-.3.1-.2 1.2.6 2.2.2 3.8-.6-1.4-.5-2.9-.6-4.4-.7-.9 0-1.6 0-2.2.2-.9.3-1.2.4-1.6 1l-.6.8c-.2 0-.6-.3-.9-.6-.2-.4-.4-.9-.9-1-.8-.5-2-.4-2.2 0-.2.2-.3.5-.4.9-.1.1-.1 0-.1 0l-.2-1c.4-.9.6-1.4.7-2.3-.7-1-1.7-1.3-2.7-1.4-1.3 0-2.3.6-2.2 1.8 0 .5.2 1 .4 1.6.1.2 0 .3-.2.1l-.6-1.7c-.4-1.9 1-3 2.8-2.8 1.3.2 2.1.7 2.5 1.4.3.7.4 1.5.3 2.1 1.1-.2 2.1.3 2.5.9.1-.7 1-1 2.2-1.1l.2.6c2.2-1 4.6-.5 6.6.2 1.2.4 2.2.8 4 .4h.1l.6.8-.1.1c-.9 0-1.6.1-2.3.3-2.4.7-2.7 1.2-3.5 1.4l-.1-.1m-6.6-1.4c.3 0 .3-.8.6-1.2a3 3 0 0 0-1 .4c-.1.1-.2.1-.1.2.1.2.4.6.6.6zm-7.4-7.5h-.1l-.2-.5c0-.1 0-.1.1 0h.3l3.6 1.4.1.1.2.5h-.1l-4-1.5m-66.1 37.4-.2-.3s.1-.1.2 0c.2.1.3.4.6.4.4.1.8 0 1.2-.1l-1.3-.7v-.2c0-.1 0 0 .2 0l.7.2s1.5.9 1 1l.1.1c-.3.2-.8.2-1.2.3-.6.1-1-.1-1.3-.7m5.2.2-1-1.2-.4.2c-.2.1-.3 0-.4-.2a5 5 0 0 1-.3-.7v-.3c.2.2.3.7.4.6.6-.3 1.4-.2 2 .2.4.3.8.8.6 1.3 0 .2-.2.4-.4.4-.3 0-.5-.1-.6-.3m.7-.4v-.3c0-.2-.7-.4-1-.5h-.1l.5.7c.2.2.4.3.7.1m-18.2-1.8-.1-.1-.2-.5h.1c.1 0 .2 0 .3.2l3.6 1.3.1.1.2.5-4-1.5m13.7.3-.4-.8c0-.3 0-.4.3-.7l1.2-6.4c-.2-.5-1-.8-2-.4.5.5.8 1 .6 1.3-.4.8-3 1.2-3.5-.6 0-.2 0-.3.2-.2.3.4 1 0 1.4-.3-2-1-6-1.3-7.6-.4-.7.5-.8 1.5-1 2.6a268.9 268.9 0 0 0-1 4.8l-.1-.8v-.1l.9-5.5c-.2-.5-1.5-1-2.6-.6-.7.1-1.2.7-1.5 1.2-.3.4-.5.3-.7 0-1-.6-1-1.6-2.3-1.7-1.5 0-1.6 1.1-1.8 2.1-.1.5-.3 1.6-.6 1.8l-.2-.1c-.1-.2-.2-.6-.4-.7l-.8-.5c-.4 0-.5 0-.6.2a6 6 0 0 1-.4.5l-.2-1c.2-.4.5-.8.6-1.5a5.5 5.5 0 0 0-3-2.1c-2.1-.8-4.7-1-7-.5-1.7.3-3.2 1-4.2 1.7-.2.1-.3.2-.4.1l.2-.4c1.8-2 4-2.6 6.4-2.7 3.1 0 6.5.6 8 3 .3.4.5.9.4 1.6 1 .2 1.2.7 1.5 1.3.4-1.6.3-2.7.9-3.4.6-.5 1.3-.6 2-.3.5.2.8.5 1 .8.2-.6 1-.8 2.4-1l.2.6c1.3-.4 2.8-.2 3.2 1 .2-1 1-1.6 2-1.8 2.6-.6 5.9.4 7.3 1.1.9-1 2.3-1 2.9 0 .3.8.2 1.7.1 2.3l-.9 4.7c.2.3.5.6.4.7l-.7 1.1-.1.1zm-15.7-7.3h.1c.2 0 .3-.6.8-1.2a3 3 0 0 0-1.4.5c-.1.1-.2.1 0 .2.1.3.4.5.5.5zm18.5 6.4v-.9c0-.6 0-1.2.2-1.9l.6-3.7c0-.5 0-1 .2-1.4l.2.4v1.7l-.1.6-.9 4.6v.7c-.1.2-.2 0-.3 0m-8.1-2h-.1c0-.2 0-.4-.2-.6h.1l.4.2 3.5 1.3.2.1v.5l-4-1.5m-1.8-1-.2-.6.3-.4c.4-.7.7-1.4.5-2.5v-.1c.3 0 .4.8.4 1.2 0 1-.4 1.7-1 2.3 0 .1 0 .1 0 0m-19.3 1.2-4.7-1.7h-.1l-.2-.6h.1l.3.1 4.4 1.6h.1l.2.6m-2.4-3.7-.4-.7v-.2l.7-.3h.1l.4.7v.1l-.7.4h-.1m8.4-4-.4-.6-.7.4h-.2l-.5-.6.1-.3.7-.4h.2l.4.7.7-.4h.2l.4.6v.3l-.7.4h-.2m3.2-1.6h-.1l-.2-.5c0-.1 0-.1.1 0h.3l3.7 1.5.2.5-4-1.5m42.8 9h-.1s0-.4-.2-.5h.1l.3.1 3.6 1.4.2.1v.5l-4-1.5m-7.2-.5.1-.2c0-.1.1-.2 0-.2l-.2-.2h-.2c-.3 0-.3.2-.3.4l-.1.3h-.1v-.3l-.1-.2-.1-.3a.8.8 0 0 0-.4-.2h-.5v.7c.1 0 .1 0 0 0 0 0-.2 0-.2-.2l-.1-.6c0-.2 0-.3.2-.4l.3-.1c.2 0 .4 0 .5.2l.3.4c.2-.2.4-.3.7-.3.3 0 .5.4.6.7l-.1 1zm5.4-1.7-.2-.9v-.1c.6-.4 1-1 1-1.4-1.2-.8-4.4-1.5-8-1.7-3.7-.2-7.5-.1-10.2 1.5-.6.3-.6.2-.3-.2.7-.7 1.6-1.6 3-2a29 29 0 0 1 14.9 1.3c.8.3 1 .7 1.2 1.1.2.8-.3 1.8-1.1 2.5-.2.1-.2 0-.2 0m4.5-.8-.1-.8v-.1c.7-.7 1-1.1 1.2-1.6v-.2c-.4-1-1-1.7-1.7-2.2-1.3-.8-2.7-.7-4.3-.4-.2.1-.4 0 0-.2 1-.5 3-1 4.2-.5 1.4.5 2.3 2.4 2.2 3.6 0 .9-.5 1.7-1.4 2.5l-.1-.1m-11-5.8a7 7 0 0 1-.3-.6v-.2l.6-.4h.2l.4.7v.2a8 8 0 0 1-.7.4h-.2m-2-3.4-.2-.6h.1l.3.1 4.4 1.8h.1l.2.6-4.8-1.7m19.2 15v-.1l-.2-.5c.2 0 .3 0 .4.2.5.2 3 1 3.6 1.4h.1l.1.5-4-1.5m3.2-1.3.1-.2v-.2h-.2l-.3-.1c-.2 0-.3.2-.3.4v.3l-.2-.1v-.4l-.2-.3a.8.8 0 0 0-.4-.3h-.4v.8l-.3-.3v-.5l.1-.4.4-.1.5.1.3.5c.1-.2.3-.3.7-.3l.3.2.3.5-.1 1zm1.3-2.4-.2-.9c.3-1.4.8-2.4 1.3-3.5.1-.3-.1-.5-.5-.4-.6.2-1.4.6-1.6 1.8l-.4 2.5c0 .3 0 .3-.2 0l-.2-.6v-.2l.6-2.9c-.3-.7-1.6-1.7-2.4-.9-.4.5-.3 1.8-.3 3.5 0 0 0 .2-.1 0l-.2-.4v-.6c-1.1-.3-1.7-.6-2.1-1-.4-.5-.6-1-.8-1.7l.1-.2c1.8-.2 1.9 0 2.8.8 0-1.3.5-1.7 1.2-1.7.8 0 1.6.7 2 1.7.3-.7 1.2-1.3 1.7-1.3s.7.5.8 1c.2 1.4-.4 2-.8 3.4l-.4 1.4c0 .2-.1.4-.2.1m-4.4-3.1v-1.1c-.4-.2-1.8-.4-2.3-.2.4.6 1.2.9 2.3 1.3zm3.4-5.3h-.1l-.2-.5c0-.1 0-.1.1 0h.3l3.6 1.5h.1l.1.5-4-1.5m-6.7-.5-.1-.1-.2-.5h.1l.3.2 3.6 1.3.1.1.1.5-4-1.5m41.6 14.5-.8-1.2-.5.2c-.1.1-.2 0-.3-.2-.1-.2-.3-.4-.3-.7l-.1-.2c0-.2 0-.2 0 0 .2 0 .4.6.5.5.6-.3 1.4-.2 2 .2.4.3.7.8.6 1.4 0 .1-.3.3-.5.3l-.6-.3m.7-.4.1-.2c-.1-.3-.8-.5-1-.6h-.3l.5.8c.2.1.5.2.7 0m-6.2-.3v-.2c-.1-.1 0-.2 0-.1l.2.3.8.2c.3 0 .7-.2.7-.3l-1.2-.6-.2-.3h.3l.9.3c.4.2.5.4.6.5h.1c.2.1.3.4.3.5l-.4.2-1 .2c-.4 0-.9-.2-1.1-.7m-20.8-.8c-.4 0-.8-.6-1-1.2l.1-.5 1-.3a7.7 7.7 0 0 0-2.1-1.8c-.3-.1-.2-.3.1-.2 1.4.7 2 1.3 2.4 1.9h.2c.2-.1.2-.1.3.1v.3l-.4.1v1.2c-.2.3-.4.5-.6.4m0-.6c.2 0 .3-.3.3-.6v-.3l-.2.1-.6.2v.3l.2.3h.4m22.3-.4-.5-1 .4-.6a47.3 47.3 0 0 1 1.3-6.9c-.5-.4-1-.5-1.7-.6-.9 0-1.4.4-1.2 1.3.3 0 .4 0 .6-.2h.1l.5 1c.1.1.1.1 0 .1-.7 0-1.5 0-2.3.2-2.7.4-3.2 1-4.2 1.2-.6 0-1.3-.4-1.6-1.3 0-.3.1-.3.2-.2.3.3.7.4 1.2.4.6 0 1.4-.2 2.8-.7a18 18 0 0 0-4-1.2c-2.2-.4-4.6-.5-6.5 0-1 .4-1.9 1-2.5 1.8-.5.7-1.3-1-1.5-1.5-.3-.4-.4-.7-1-.8-1.2-.1-1.7.9-2 1.9l-1 3.5c0 .2 0 0 0 0l-.2-.8c.1-.9.4-1.9.6-2.6-.3-.6-1-1-1.7-1-.4-.1-1-.2-1.4-.1-.3 0-.3.3-.4.3l-.1-.4c0-.3-.1-.7.1-1 .5-.4 2.2 0 2.9.5.2.1.5.4.7 1 .4-1.2 1-2.6 2.2-2.5.5 0 1.1.3 1.5 1.2.3-.6.9-.7 2.5-1 .1 0 .2 0 .3.7 1.2-.6 3-.8 4.6-.7 2 .2 4 .6 5.5 1.2s2.5 1.1 3.8.9c-.2-.7-.2-1.5 0-1.8.2-.3.7-.6 1.7-.5.5.1 1 .2 1.4.6.4.4.7.8.3 3.1l-.6 2.6-.4 2 .5.6c0 .1-.6.6-.8 1.2h-.2m-16.8-8.6c-.6.1-1.5.4-1.7.6.2.2.4.8.8.8.2 0 .4-.7.9-1.4m19.8 8.6zm0-.1-.2-.9v-.5l.4-1.7.7-3.6.4-2.8c0-.1 0-.1 0 0 .2.5.3 1 .2 1.5l-.3 2.4-.6 3a26.3 26.3 0 0 0-.6 2.6m-12-2v-.1l-.2-.6h.1l.4.2 4.3 1.4v.2l.3.5-4.8-1.6m-10-.4-.1-.2v-.1l.3.2c.3.2.5.3.8.2l.7-.2-1.2-.7-.2-.2h.2c.4.1.6 0 1 .2h-.1c.5.2.6.5.7.5h.1l.3.6-.4.1c-.3.1-.6.3-1 .3s-.9-.2-1.1-.7" fill="#231f20" fill-rule="evenodd"/></g></g></svg>