<svg width="20" height="20" viewBox="0 0 20 20" fill="none" xmlns="http://www.w3.org/2000/svg">
<g opacity="0.65">
<path d="M12.6666 13.3333H7.01288C6.30292 13.3333 5.94794 13.3333 5.62218 13.4068C5.04545 13.5368 4.51999 13.8343 4.11179 14.2619C3.88122 14.5035 3.69858 14.8079 3.33331 15.4167V6.5C3.33331 4.61438 3.33331 3.67157 3.9191 3.08579C4.50489 2.5 5.44769 2.5 7.33331 2.5H12.6666C14.5523 2.5 15.4951 2.5 16.0809 3.08579C16.6666 3.67157 16.6666 4.61438 16.6666 6.5V9.33333C16.6666 11.219 16.6666 12.1618 16.0809 12.7475C15.4951 13.3333 14.5523 13.3333 12.6666 13.3333Z" fill="#7E869E" fill-opacity="0.25"/>
<path d="M16.6666 10V13.5C16.6666 15.3856 16.6666 16.3284 16.0809 16.9142C15.4951 17.5 14.5523 17.5 12.6666 17.5H5.41664C4.26605 17.5 3.33331 16.5673 3.33331 15.4167V15.4167C3.33331 14.2661 4.26605 13.3333 5.41665 13.3333H12.6666C14.5523 13.3333 15.4951 13.3333 16.0809 12.7475C16.6666 12.1618 16.6666 11.219 16.6666 9.33333V6.5C16.6666 4.61438 16.6666 3.67157 16.0809 3.08579C15.4951 2.5 14.5523 2.5 12.6666 2.5H7.33331C5.44769 2.5 4.50489 2.5 3.9191 3.08579C3.33331 3.67157 3.33331 4.61438 3.33331 6.5V15.4167" stroke="white" stroke-width="1.2"/>
<path d="M7.5 6.66667L12.5 6.66667" stroke="white" stroke-width="1.2" stroke-linecap="round"/>
</g>
</svg>
