<svg width="20" height="15" viewBox="0 0 20 15" fill="none" xmlns="http://www.w3.org/2000/svg">
<path d="M0 7.09683C0.848872 5.75321 1.94457 4.73779 3.52202 4.45955C4.46486 4.29314 5.39913 4.46661 6.31 4.77083C6.72917 4.91186 7.15731 5.02428 7.58487 5.13489C7.66831 5.15665 7.78119 5.13388 7.85879 5.09036C8.8596 4.53094 9.85697 3.96568 10.8509 3.39457C10.9386 3.3442 11.0178 3.24729 11.0626 3.1528C11.3539 2.53771 11.6187 1.90851 11.9234 1.30067C12.2158 0.71841 12.627 0.25462 13.2661 0.0591915C13.6377 -0.0542375 14.0005 0.0188968 14.3661 0.0835695C14.7441 0.15066 15.1224 0.216139 15.5014 0.276782C15.9669 0.350924 16.1716 0.67469 16.0432 1.14432C15.996 1.31698 15.9457 1.48904 15.8899 1.69052C16.226 1.47695 16.5512 1.30772 16.9186 1.32666C17.1864 1.34015 17.4645 1.38347 17.7146 1.47736C18.1597 1.64377 18.589 1.85633 19.0228 2.05417C19.4114 2.23127 19.5276 2.60097 19.3125 2.98437C18.9737 3.58879 18.629 4.18877 18.2792 4.80508C18.9304 5.11777 19.3246 5.70909 19.7923 6.21539C20.0848 6.5321 20.0653 6.86675 19.7533 7.16755C18.0361 8.81465 16.3175 10.46 14.5977 12.1036C14.2273 12.4592 13.7726 12.6037 13.2862 12.6605C10.861 12.9446 8.43673 13.2262 6.01346 13.5053C5.35429 13.5814 4.69414 13.6475 4.03477 13.7235C3.93177 13.7369 3.83079 13.7635 3.73414 13.8026C2.81131 14.1653 1.88894 14.5293 0.96702 14.8946C0.465573 15.0931 0.27061 15.0266 0 14.5632V7.09683ZM10.5393 6.409H10.3274C9.72869 6.409 9.12995 6.40417 8.53141 6.41021C7.74997 6.41775 6.97282 6.29 6.23221 6.03225C5.77664 5.87631 5.31076 5.75457 4.83822 5.66799C3.81173 5.47921 2.88566 5.73226 2.09761 6.44849C1.81531 6.70497 1.55425 6.98864 1.30275 7.27775C1.22593 7.366 1.17739 7.51388 1.1768 7.63476C1.1692 9.51793 1.17154 11.4013 1.17154 13.2845V13.5178L1.35792 13.4444C2.03133 13.1781 2.70415 12.9099 3.37872 12.6472C3.49921 12.6003 3.62554 12.5577 3.75247 12.543C5.2065 12.3756 6.66152 12.2171 8.11556 12.0502C9.71192 11.8669 11.3069 11.6715 12.9039 11.4948C13.3657 11.4436 13.7488 11.2917 14.0974 10.9462C15.2152 9.83807 16.3627 8.76301 17.4986 7.67506L18.58 6.63868C18.441 6.48798 18.3122 6.34735 18.1821 6.20793C17.7762 5.77215 17.3428 5.76328 16.9248 6.18517C15.9519 7.16735 14.9769 8.14731 14.0107 9.13654C13.8067 9.34547 13.587 9.43875 13.2996 9.43875C11.3539 9.4319 9.40817 9.43593 7.46243 9.43653C6.968 9.43653 6.49073 9.51531 6.05499 9.7748C5.71965 9.97446 5.37788 9.90878 5.20163 9.60698C5.02129 9.29792 5.12364 8.94212 5.46074 8.73339C5.88556 8.46886 6.34958 8.30325 6.84088 8.27222C7.49577 8.23193 8.15357 8.23535 8.81002 8.22367C9.75364 8.20694 10.5189 7.41334 10.5393 6.409ZM11.1324 8.22367C11.7824 8.22367 12.4131 8.21964 13.0431 8.22669C13.1778 8.2283 13.272 8.18639 13.3671 8.08949C14.285 7.15606 15.2011 6.22103 16.1323 5.30211C16.3302 5.10689 16.5881 4.97714 16.8146 4.81294C16.8856 4.76156 16.9669 4.70857 17.0096 4.63524C17.3182 4.10637 17.6185 3.57227 17.9205 3.03917C17.9419 3.0013 17.9558 2.95858 17.979 2.90519C17.7105 2.78733 17.4613 2.6465 17.195 2.57276C17.0273 2.53186 16.8512 2.54943 16.6942 2.62273C16.5199 2.70936 16.3666 2.86349 16.2352 3.01661C15.3953 3.99657 14.5638 4.9854 13.7249 5.96858C13.6412 6.06207 13.5449 6.14262 13.439 6.20773C12.8477 6.58549 12.2523 6.9564 11.66 7.33235C11.5957 7.37265 11.52 7.41939 11.4865 7.48386C11.364 7.71676 11.257 7.95933 11.1324 8.22367V8.22367ZM14.7494 1.38488C14.4544 1.3321 14.1778 1.29482 13.9071 1.23116C13.6365 1.16749 13.4084 1.24869 13.2429 1.45862C13.087 1.65542 12.953 1.86972 12.8434 2.09749C12.5566 2.69909 12.2999 3.3164 12.0074 3.91497C11.9209 4.08449 11.7921 4.22706 11.6345 4.32799C11.2077 4.59615 10.7612 4.83167 10.3231 5.07969C10.2765 5.10628 10.2334 5.14013 10.1477 5.19835H11.0928C11.536 5.19835 11.7126 5.34261 11.8199 5.80761C12.1123 5.62427 12.4012 5.44677 12.6859 5.26262C12.7806 5.20504 12.8676 5.13486 12.9446 5.0539C13.2885 4.66909 13.6291 4.28065 13.9627 3.88536C14.0387 3.79561 14.0965 3.69099 14.1325 3.57771C14.2559 3.17476 14.3665 2.76799 14.4798 2.36222C14.5689 2.04168 14.6566 1.72074 14.7494 1.38488Z" fill="white" fill-opacity="0.65"/>
</svg>
