<svg width="13" height="10" viewBox="0 0 13 10" fill="none" xmlns="http://www.w3.org/2000/svg">
<path d="M0.500008 4C0.223865 4 7.62939e-06 4.22385 7.62939e-06 4.5C7.62939e-06 4.77614 0.223865 5 0.500008 5H12.1667C12.4428 5 12.6667 4.77614 12.6667 4.5C12.6667 4.22385 12.4428 4 12.1667 4H0.500008Z" fill="white" fill-opacity="0.65"/>
<path d="M0.500008 8.16666C0.223865 8.16666 7.62939e-06 8.39052 7.62939e-06 8.66666C7.62939e-06 8.94281 0.223865 9.16666 0.500008 9.16666H12.1667C12.4428 9.16666 12.6667 8.94281 12.6667 8.66666C12.6667 8.39052 12.4428 8.16666 12.1667 8.16666H0.500008Z" fill="white" fill-opacity="0.65"/>
<path d="M0.5 0C0.223858 0 0 0.223857 0 0.5C0 0.776142 0.223858 1 0.5 1H12.1667C12.4428 1 12.6667 0.776142 12.6667 0.5C12.6667 0.223857 12.4428 0 12.1667 0H0.5Z" fill="white" fill-opacity="0.65"/>
</svg>
