<svg width="13" height="15" viewBox="0 0 13 15" fill="none" xmlns="http://www.w3.org/2000/svg">
<path d="M4.0393 1.22378C4.2536 1.08465 4.36075 1.01508 4.48346 0.979055C5.02142 0.821108 5.56729 1.20311 5.60316 1.76263C5.61135 1.89026 5.55189 2.14857 5.43297 2.6652C5.02233 4.44921 5.30769 6.39116 6.38329 8.04787C7.45889 9.70458 9.11663 10.7555 10.9133 11.1064C11.4337 11.2081 11.6938 11.2589 11.8071 11.3183C12.3035 11.5787 12.4303 12.2328 12.0671 12.66C11.9843 12.7574 11.8771 12.8269 11.6628 12.9661C8.4203 15.0713 4.08511 14.1492 1.97993 10.9067C-0.125259 7.66416 0.796754 3.32897 4.0393 1.22378Z" fill="#7E869E" fill-opacity="0.25" stroke="white" stroke-width="1.05"/>
</svg>
