<svg width="15" height="18" viewBox="0 0 15 18" fill="none" xmlns="http://www.w3.org/2000/svg">
<path d="M12.7219 17.3359H2.88675C2.3159 17.3353 1.76863 17.1082 1.36498 16.7045C0.961334 16.3009 0.734264 15.7536 0.733582 15.1828V2.21566C0.734264 1.64482 0.961334 1.09755 1.36498 0.693901C1.76863 0.290252 2.3159 0.0631824 2.88675 0.0625001H9.33635C9.42101 0.0624617 9.50484 0.0791007 9.58307 0.111467C9.66129 0.143833 9.73237 0.191292 9.79225 0.251133L14.6864 5.14441C14.7462 5.20429 14.7937 5.27538 14.8261 5.3536C14.8584 5.43182 14.8751 5.51566 14.875 5.60031V15.1823C14.8745 15.7533 14.6474 16.3006 14.2438 16.7044C13.8401 17.1081 13.2928 17.3353 12.7219 17.3359ZM2.88675 1.35156C2.65764 1.35179 2.43799 1.4429 2.27598 1.6049C2.11398 1.7669 2.02287 1.98656 2.02264 2.21566V15.1828C2.02287 15.4119 2.11398 15.6315 2.27598 15.7935C2.43799 15.9555 2.65764 16.0466 2.88675 16.0469H12.7219C12.951 16.0466 13.1706 15.9555 13.3326 15.7935C13.4946 15.6315 13.5857 15.4119 13.586 15.1828V5.86715L9.07038 1.35156H2.88675Z" fill="white"/>
<path d="M14.2305 6.24484H10.8458C10.275 6.24416 9.72773 6.01709 9.32408 5.61344C8.92044 5.20979 8.69337 4.66253 8.69268 4.09168V0.707031C8.69268 0.536091 8.76059 0.372152 8.88146 0.251279C9.00234 0.130406 9.16541 0.0625001 9.33635 0.0625001C9.50729 0.0625001 9.67138 0.13026 9.79225 0.251133C9.91313 0.372006 9.98175 0.536091 9.98175 0.707031V4.09168C9.98197 4.32078 10.0731 4.54044 10.2351 4.70244C10.3971 4.86444 10.6167 4.95555 10.8458 4.95578H14.2305C14.4014 4.95578 14.5655 5.02354 14.6864 5.14441C14.8073 5.26529 14.875 5.42937 14.875 5.60031C14.875 5.77125 14.8071 5.93519 14.6862 6.05607C14.5654 6.17694 14.4014 6.24484 14.2305 6.24484Z" fill="white"/>
<path d="M11.2424 8.57031H4.36745C4.19651 8.57031 4.03257 8.50241 3.9117 8.38153C3.79082 8.26066 3.72292 8.09672 3.72292 7.92578C3.72292 7.75484 3.79082 7.5909 3.9117 7.47003C4.03257 7.34916 4.19651 7.28125 4.36745 7.28125H11.2424C11.3271 7.28125 11.4109 7.29792 11.4891 7.33031C11.5673 7.3627 11.6383 7.41018 11.6982 7.47003C11.7581 7.52988 11.8055 7.60093 11.8379 7.67913C11.8703 7.75733 11.887 7.84114 11.887 7.92578C11.887 8.01042 11.8703 8.09423 11.8379 8.17243C11.8055 8.25063 11.7581 8.32168 11.6982 8.38153C11.6383 8.44138 11.5673 8.48886 11.4891 8.52125C11.4109 8.55364 11.3271 8.57031 11.2424 8.57031Z" fill="white"/>
<path d="M11.2424 11.2344H4.36745C4.19651 11.2344 4.03257 11.1665 3.9117 11.0456C3.79082 10.9247 3.72292 10.7608 3.72292 10.5898C3.72292 10.4189 3.79082 10.255 3.9117 10.1341C4.03257 10.0132 4.19651 9.94531 4.36745 9.94531H11.2424C11.4134 9.94531 11.5773 10.0132 11.6982 10.1341C11.8191 10.255 11.887 10.4189 11.887 10.5898C11.887 10.7608 11.8191 10.9247 11.6982 11.0456C11.5773 11.1665 11.4134 11.2344 11.2424 11.2344Z" fill="white"/>
<path d="M11.2424 13.8984H4.36745C4.19651 13.8984 4.03257 13.8305 3.9117 13.7097C3.79082 13.5888 3.72292 13.4248 3.72292 13.2539C3.72292 13.083 3.79082 12.919 3.9117 12.7982C4.03257 12.6773 4.19651 12.6094 4.36745 12.6094H11.2424C11.4134 12.6094 11.5773 12.6773 11.6982 12.7982C11.8191 12.919 11.887 13.083 11.887 13.2539C11.887 13.4248 11.8191 13.5888 11.6982 13.7097C11.5773 13.8305 11.4134 13.8984 11.2424 13.8984Z" fill="white"/>
</svg>
