<svg width="62" height="62" viewBox="0 0 62 62" fill="none" xmlns="http://www.w3.org/2000/svg">
<g clip-path="url(#clip0_25_447)">
<path d="M30.725 51.8332C30.1639 51.8336 29.6092 51.713 29.0988 51.4797C28.5885 51.2464 28.1344 50.9059 27.7674 50.4813L25.4581 47.8082C25.4517 47.8005 25.4449 47.7929 25.4388 47.7849C25.3931 47.7267 25.3347 47.6798 25.268 47.6478C25.2013 47.6158 25.1281 47.5997 25.0541 47.6005H1.04867C0.858234 47.6005 0.675597 47.5249 0.540937 47.3902C0.406278 47.2556 0.330627 47.0729 0.330627 46.8825V15.1743C0.330627 14.9838 0.406278 14.8012 0.540937 14.6665C0.675597 14.5319 0.858234 14.4562 1.04867 14.4562H4.67883C4.77435 14.4543 4.86931 14.4714 4.95814 14.5066C5.04697 14.5417 5.12788 14.5943 5.19614 14.6612C5.26439 14.728 5.31862 14.8078 5.35564 14.8959C5.39266 14.984 5.41173 15.0786 5.41173 15.1741C5.41173 15.2697 5.39266 15.3643 5.35564 15.4523C5.31862 15.5404 5.26439 15.6202 5.19614 15.6871C5.12788 15.7539 5.04697 15.8065 4.95814 15.8417C4.86931 15.8769 4.77435 15.894 4.67883 15.892H1.76671V46.166H25.0541C25.3419 46.1652 25.6262 46.2292 25.8858 46.3534C26.1454 46.4775 26.3737 46.6586 26.5538 46.8831L28.8539 49.5448C29.086 49.8134 29.3733 50.0289 29.6962 50.1767C30.0191 50.3244 30.37 50.4008 30.725 50.4008C31.0801 50.4008 31.431 50.3244 31.7539 50.1767C32.0767 50.0289 32.364 49.8134 32.5962 49.5448L34.8963 46.8828C35.0764 46.6584 35.3047 46.4774 35.5643 46.3533C35.824 46.2292 36.1082 46.1652 36.3959 46.166H59.6833V15.8883H56.7712C56.6757 15.8903 56.5807 15.8732 56.4919 15.838C56.4031 15.8028 56.3222 15.7503 56.2539 15.6834C56.1857 15.6165 56.1314 15.5367 56.0944 15.4486C56.0574 15.3606 56.0383 15.266 56.0383 15.1704C56.0383 15.0749 56.0574 14.9803 56.0944 14.8922C56.1314 14.8041 56.1857 14.7243 56.2539 14.6575C56.3222 14.5906 56.4031 14.5381 56.4919 14.5029C56.5807 14.4677 56.6757 14.4506 56.7712 14.4525H60.4014C60.5918 14.4525 60.7745 14.5282 60.9091 14.6629C61.0438 14.7975 61.1194 14.9802 61.1194 15.1706V46.8803C61.1194 47.0708 61.0438 47.2534 60.9091 47.3881C60.7745 47.5227 60.5918 47.5984 60.4014 47.5984H36.3959C36.322 47.5975 36.2488 47.6137 36.1821 47.6456C36.1154 47.6776 36.0569 47.7245 36.0113 47.7827C36.0051 47.7907 35.9984 47.7984 35.9919 47.8061L33.6829 50.4791C33.3161 50.9041 32.862 51.245 32.3516 51.4787C31.8412 51.7124 31.2864 51.8333 30.725 51.8332V51.8332Z" fill="white"/>
<path d="M30.725 48.1676C30.6169 48.1676 30.5101 48.1431 30.4128 48.0961C30.3154 48.0491 30.23 47.9807 30.1627 47.896L28.283 45.5274C27.8981 45.0398 27.4074 44.6461 26.8481 44.3758C26.2887 44.1056 25.6753 43.966 25.0541 43.9675H4.6788C4.48839 43.9674 4.3058 43.8917 4.17115 43.7571C4.03651 43.6224 3.96084 43.4399 3.96075 43.2494V10.335C3.96075 10.1445 4.03641 9.96191 4.17106 9.82725C4.30572 9.69259 4.48836 9.61694 4.6788 9.61694H25.0006C27.4893 9.61694 29.6524 11.0349 30.725 13.1052C31.7976 11.0349 33.961 9.61694 36.4491 9.61694H56.7712C56.9616 9.61694 57.1443 9.69259 57.2789 9.82725C57.4136 9.96191 57.4892 10.1445 57.4892 10.335V43.2501C57.4892 43.4405 57.4135 43.6231 57.2788 43.7577C57.1442 43.8923 56.9616 43.968 56.7712 43.9681H36.3959C35.7748 43.9665 35.1614 44.1061 34.602 44.3762C34.0427 44.6463 33.552 45.0399 33.167 45.5274L31.2873 47.896C31.22 47.9807 31.1346 48.0491 31.0372 48.0961C30.9398 48.1431 30.8331 48.1676 30.725 48.1676V48.1676ZM5.39684 42.532H25.0541C25.8916 42.5299 26.7187 42.7181 27.4728 43.0823C28.227 43.4466 28.8885 43.9775 29.4075 44.6348L30.725 46.294L32.0425 44.6348C32.5615 43.9775 33.223 43.4466 33.9772 43.0823C34.7313 42.7181 35.5584 42.5299 36.3959 42.532H56.0531V11.053H36.4506C33.6903 11.053 31.4446 13.2987 31.4446 16.0591V43.2507C31.4446 43.4411 31.3689 43.6238 31.2343 43.7584C31.0996 43.8931 30.917 43.9687 30.7265 43.9687C30.5361 43.9687 30.3535 43.8931 30.2188 43.7584C30.0841 43.6238 30.0085 43.4411 30.0085 43.2507V16.0591C30.0085 13.2987 27.7628 11.053 25.0022 11.053H5.39961L5.39684 42.532Z" fill="white"/>
<path d="M30.725 48.1675C30.5346 48.1675 30.3519 48.0918 30.2173 47.9572C30.0826 47.8225 30.007 47.6399 30.007 47.4494V42.4683C30.007 42.2779 30.0826 42.0952 30.2173 41.9606C30.3519 41.8259 30.5346 41.7502 30.725 41.7502C30.9154 41.7502 31.0981 41.8259 31.2327 41.9606C31.3674 42.0952 31.443 42.2779 31.443 42.4683V47.4494C31.443 47.5437 31.4245 47.6371 31.3884 47.7242C31.3523 47.8113 31.2994 47.8905 31.2327 47.9572C31.1661 48.0238 31.0869 48.0767 30.9998 48.1128C30.9127 48.1489 30.8193 48.1675 30.725 48.1675V48.1675Z" fill="white"/>
<path d="M30.7941 15.8883H30.6562C30.5607 15.8903 30.4657 15.8732 30.3769 15.838C30.288 15.8028 30.2071 15.7503 30.1389 15.6834C30.0706 15.6165 30.0164 15.5367 29.9794 15.4486C29.9423 15.3606 29.9233 15.266 29.9233 15.1704C29.9233 15.0749 29.9423 14.9803 29.9794 14.8922C30.0164 14.8041 30.0706 14.7243 30.1389 14.6575C30.2071 14.5906 30.288 14.5381 30.3769 14.5029C30.4657 14.4677 30.5607 14.4506 30.6562 14.4525H30.7941C30.982 14.4564 31.1608 14.5338 31.2922 14.668C31.4237 14.8022 31.4973 14.9826 31.4973 15.1704C31.4973 15.3583 31.4237 15.5387 31.2922 15.6729C31.1608 15.8071 30.982 15.8844 30.7941 15.8883V15.8883Z" fill="white"/>
<path d="M30.725 48.1676C30.6169 48.1676 30.5101 48.1431 30.4128 48.0961C30.3154 48.0491 30.23 47.9807 30.1627 47.896L28.283 45.5274C27.8981 45.0398 27.4074 44.6461 26.8481 44.3758C26.2887 44.1056 25.6753 43.966 25.0541 43.9675H4.6788C4.48839 43.9674 4.3058 43.8917 4.17115 43.7571C4.03651 43.6224 3.96084 43.4399 3.96075 43.2494V10.335C3.96075 10.1445 4.03641 9.96191 4.17106 9.82725C4.30572 9.69259 4.48836 9.61694 4.6788 9.61694H25.0006C27.4893 9.61694 29.6524 11.0349 30.725 13.1052C31.7976 11.0349 33.961 9.61694 36.4491 9.61694H56.7712C56.9616 9.61694 57.1443 9.69259 57.2789 9.82725C57.4136 9.96191 57.4892 10.1445 57.4892 10.335V43.2501C57.4892 43.4405 57.4135 43.6231 57.2788 43.7577C57.1442 43.8923 56.9616 43.968 56.7712 43.9681H36.3959C35.7748 43.9665 35.1614 44.1061 34.602 44.3762C34.0427 44.6463 33.552 45.0399 33.167 45.5274L31.2873 47.896C31.22 47.9807 31.1346 48.0491 31.0372 48.0961C30.9398 48.1431 30.8331 48.1676 30.725 48.1676V48.1676ZM5.39684 42.532H25.0541C25.8916 42.5299 26.7187 42.7181 27.4728 43.0823C28.227 43.4466 28.8885 43.9775 29.4075 44.6348L30.725 46.294L32.0425 44.6348C32.5615 43.9775 33.223 43.4466 33.9772 43.0823C34.7313 42.7181 35.5584 42.5299 36.3959 42.532H56.0531V11.053H36.4506C33.6903 11.053 31.4446 13.2987 31.4446 16.0591V43.2507C31.4446 43.4411 31.3689 43.6238 31.2343 43.7584C31.0996 43.8931 30.917 43.9687 30.7265 43.9687C30.5361 43.9687 30.3535 43.8931 30.2188 43.7584C30.0841 43.6238 30.0085 43.4411 30.0085 43.2507V16.0591C30.0085 13.2987 27.7628 11.053 25.0022 11.053H5.39961L5.39684 42.532Z" fill="white"/>
<path d="M30.725 48.1675C30.5346 48.1675 30.3519 48.0918 30.2173 47.9572C30.0826 47.8225 30.007 47.6399 30.007 47.4494V42.4683C30.007 42.2779 30.0826 42.0952 30.2173 41.9606C30.3519 41.8259 30.5346 41.7502 30.725 41.7502C30.9154 41.7502 31.0981 41.8259 31.2327 41.9606C31.3674 42.0952 31.443 42.2779 31.443 42.4683V47.4494C31.443 47.5437 31.4245 47.6371 31.3884 47.7242C31.3523 47.8113 31.2994 47.8905 31.2327 47.9572C31.1661 48.0238 31.0869 48.0767 30.9998 48.1128C30.9127 48.1489 30.8193 48.1675 30.725 48.1675V48.1675Z" fill="white"/>
<path d="M51.2975 16.4837H36.0607C35.8703 16.4837 35.6876 16.408 35.553 16.2734C35.4183 16.1387 35.3427 15.9561 35.3427 15.7657C35.3427 15.5752 35.4183 15.3926 35.553 15.2579C35.6876 15.1233 35.8703 15.0476 36.0607 15.0476H51.2975C51.488 15.0476 51.6706 15.1233 51.8053 15.2579C51.9399 15.3926 52.0156 15.5752 52.0156 15.7657C52.0156 15.9561 51.9399 16.1387 51.8053 16.2734C51.6706 16.408 51.488 16.4837 51.2975 16.4837V16.4837Z" fill="white"/>
<path d="M51.2975 20.893H36.0607C35.9652 20.8949 35.8702 20.8778 35.7814 20.8426C35.6926 20.8075 35.6117 20.7549 35.5434 20.688C35.4752 20.6212 35.4209 20.5414 35.3839 20.4533C35.3469 20.3652 35.3278 20.2706 35.3278 20.1751C35.3278 20.0795 35.3469 19.9849 35.3839 19.8969C35.4209 19.8088 35.4752 19.729 35.5434 19.6621C35.6117 19.5953 35.6926 19.5427 35.7814 19.5075C35.8702 19.4723 35.9652 19.4552 36.0607 19.4572H51.2975C51.3931 19.4552 51.488 19.4723 51.5769 19.5075C51.6657 19.5427 51.7466 19.5953 51.8149 19.6621C51.8831 19.729 51.9373 19.8088 51.9744 19.8969C52.0114 19.9849 52.0304 20.0795 52.0304 20.1751C52.0304 20.2706 52.0114 20.3652 51.9744 20.4533C51.9373 20.5414 51.8831 20.6212 51.8149 20.688C51.7466 20.7549 51.6657 20.8075 51.5769 20.8426C51.488 20.8778 51.3931 20.8949 51.2975 20.893Z" fill="white"/>
<path d="M51.2975 25.3052H36.0607C35.8703 25.3052 35.6876 25.2296 35.553 25.0949C35.4183 24.9603 35.3427 24.7776 35.3427 24.5872C35.3427 24.3967 35.4183 24.2141 35.553 24.0795C35.6876 23.9448 35.8703 23.8691 36.0607 23.8691H51.2975C51.488 23.8691 51.6706 23.9448 51.8053 24.0795C51.9399 24.2141 52.0156 24.3967 52.0156 24.5872C52.0156 24.7776 51.9399 24.9603 51.8053 25.0949C51.6706 25.2296 51.488 25.3052 51.2975 25.3052V25.3052Z" fill="white"/>
<path d="M51.2975 29.7157H36.0607C35.9652 29.7177 35.8702 29.7006 35.7814 29.6654C35.6926 29.6302 35.6117 29.5776 35.5434 29.5108C35.4752 29.4439 35.4209 29.3641 35.3839 29.276C35.3469 29.188 35.3278 29.0934 35.3278 28.9978C35.3278 28.9023 35.3469 28.8077 35.3839 28.7196C35.4209 28.6315 35.4752 28.5517 35.5434 28.4849C35.6117 28.418 35.6926 28.3655 35.7814 28.3303C35.8702 28.2951 35.9652 28.278 36.0607 28.2799H51.2975C51.3931 28.278 51.488 28.2951 51.5769 28.3303C51.6657 28.3655 51.7466 28.418 51.8149 28.4849C51.8831 28.5517 51.9373 28.6315 51.9744 28.7196C52.0114 28.8077 52.0304 28.9023 52.0304 28.9978C52.0304 29.0934 52.0114 29.188 51.9744 29.276C51.9373 29.3641 51.8831 29.4439 51.8149 29.5108C51.7466 29.5776 51.6657 29.6302 51.5769 29.6654C51.488 29.7006 51.3931 29.7177 51.2975 29.7157Z" fill="white"/>
<path d="M51.2975 34.1265H36.0607C35.8703 34.1265 35.6876 34.0509 35.553 33.9162C35.4183 33.7815 35.3427 33.5989 35.3427 33.4085C35.3427 33.218 35.4183 33.0354 35.553 32.9007C35.6876 32.7661 35.8703 32.6904 36.0607 32.6904H51.2975C51.488 32.6904 51.6706 32.7661 51.8053 32.9007C51.9399 33.0354 52.0156 33.218 52.0156 33.4085C52.0156 33.5989 51.9399 33.7815 51.8053 33.9162C51.6706 34.0509 51.488 34.1265 51.2975 34.1265V34.1265Z" fill="white"/>
<path d="M51.2975 38.5374H36.0607C35.8703 38.5374 35.6876 38.4618 35.553 38.3271C35.4183 38.1924 35.3427 38.0098 35.3427 37.8194C35.3427 37.6289 35.4183 37.4463 35.553 37.3116C35.6876 37.177 35.8703 37.1013 36.0607 37.1013H51.2975C51.488 37.1013 51.6706 37.177 51.8053 37.3116C51.9399 37.4463 52.0156 37.6289 52.0156 37.8194C52.0156 38.0098 51.9399 38.1924 51.8053 38.3271C51.6706 38.4618 51.488 38.5374 51.2975 38.5374V38.5374Z" fill="white"/>
</g>
<defs>
<clipPath id="clip0_25_447">
<rect width="61.45" height="61.45" fill="white"/>
</clipPath>
</defs>
</svg>
