<svg width="62" height="62" viewBox="0 0 62 62" fill="none" xmlns="http://www.w3.org/2000/svg">
<g clip-path="url(#clip0_3_192)">
<path d="M30.7229 51.8295C30.1618 51.8299 29.6072 51.7093 29.0968 51.4761C28.5865 51.2428 28.1324 50.9023 27.7655 50.4777L25.4564 47.8048C25.4499 47.7971 25.4432 47.7895 25.437 47.7815C25.3914 47.7233 25.3329 47.6764 25.2662 47.6444C25.1995 47.6124 25.1264 47.5963 25.0524 47.5971H1.04859C0.858167 47.5971 0.675542 47.5215 0.540892 47.3868C0.406242 47.2522 0.330597 47.0696 0.330597 46.8791V15.1731C0.330597 14.9827 0.406242 14.8001 0.540892 14.6654C0.675542 14.5308 0.858167 14.4551 1.04859 14.4551H4.6785C4.77402 14.4531 4.86897 14.4702 4.95779 14.5054C5.04661 14.5406 5.12752 14.5932 5.19577 14.66C5.26402 14.7269 5.31825 14.8067 5.35526 14.8948C5.39228 14.9828 5.41135 15.0774 5.41135 15.173C5.41135 15.2685 5.39228 15.3631 5.35526 15.4512C5.31825 15.5392 5.26402 15.619 5.19577 15.6859C5.12752 15.7527 5.04661 15.8053 4.95779 15.8405C4.86897 15.8757 4.77402 15.8928 4.6785 15.8908H1.76658V46.1627H25.0524C25.3402 46.1619 25.6244 46.2259 25.884 46.3501C26.1436 46.4742 26.3719 46.6553 26.552 46.8798L28.8519 49.5413C29.084 49.8099 29.3713 50.0254 29.6941 50.1731C30.017 50.3208 30.3679 50.3972 30.7229 50.3972C31.0779 50.3972 31.4288 50.3208 31.7517 50.1731C32.0745 50.0254 32.3618 49.8099 32.5939 49.5413L34.8938 46.8794C35.074 46.655 35.3023 46.4741 35.5619 46.35C35.8215 46.2259 36.1057 46.1619 36.3934 46.1627H59.6792V15.8871H56.7673C56.6718 15.8891 56.5769 15.872 56.488 15.8368C56.3992 15.8016 56.3183 15.749 56.25 15.6822C56.1818 15.6153 56.1276 15.5355 56.0906 15.4475C56.0535 15.3594 56.0345 15.2648 56.0345 15.1693C56.0345 15.0737 56.0535 14.9792 56.0906 14.8911C56.1276 14.803 56.1818 14.7232 56.25 14.6564C56.3183 14.5895 56.3992 14.5369 56.488 14.5017C56.5769 14.4666 56.6718 14.4495 56.7673 14.4514H60.3972C60.5877 14.4514 60.7703 14.5271 60.9049 14.6617C61.0396 14.7964 61.1152 14.979 61.1152 15.1694V46.877C61.1152 47.0674 61.0396 47.25 60.9049 47.3847C60.7703 47.5193 60.5877 47.595 60.3972 47.595H36.3934C36.3195 47.5941 36.2463 47.6103 36.1796 47.6423C36.1129 47.6742 36.0544 47.7211 36.0088 47.7793C36.0026 47.7873 35.9959 47.795 35.9894 47.8027L33.6806 50.4756C33.3138 50.9005 32.8598 51.2414 32.3494 51.475C31.839 51.7087 31.2842 51.8296 30.7229 51.8295Z" fill="white"/>
<path d="M30.7229 48.1643C30.6148 48.1642 30.5081 48.1398 30.4107 48.0928C30.3134 48.0458 30.2279 47.9774 30.1607 47.8927L28.281 45.5243C27.8961 45.0367 27.4055 44.643 26.8462 44.3728C26.2869 44.1026 25.6735 43.9629 25.0524 43.9645H4.67847C4.48807 43.9644 4.3055 43.8887 4.17087 43.7541C4.03623 43.6194 3.96056 43.4369 3.96048 43.2465V10.3343C3.96048 10.1438 4.03613 9.9612 4.17078 9.82655C4.30543 9.6919 4.48805 9.61626 4.67847 9.61626H24.9989C27.4875 9.61626 29.6503 11.0341 30.7229 13.1042C31.7954 11.0341 33.9586 9.61626 36.4466 9.61626H56.7673C56.9577 9.61626 57.1403 9.6919 57.275 9.82655C57.4096 9.9612 57.4853 10.1438 57.4853 10.3343V43.2471C57.4852 43.4375 57.4095 43.62 57.2749 43.7547C57.1403 43.8893 56.9577 43.965 56.7673 43.9651H36.3934C35.7723 43.9635 35.159 44.103 34.5996 44.3731C34.0403 44.6432 33.5497 45.0368 33.1647 45.5243L31.2851 47.8927C31.2179 47.9774 31.1324 48.0458 31.0351 48.0928C30.9377 48.1398 30.831 48.1642 30.7229 48.1643ZM5.39647 42.5291H25.0524C25.8898 42.5269 26.7168 42.7151 27.4709 43.0794C28.2251 43.4436 28.8866 43.9744 29.4055 44.6318L30.7229 46.2908L32.0403 44.6318C32.5592 43.9744 33.2207 43.4436 33.9748 43.0794C34.7289 42.7151 35.5559 42.5269 36.3934 42.5291H56.0493V11.0522H36.4481C33.688 11.0522 31.4424 13.2978 31.4424 16.0579V43.2477C31.4424 43.4381 31.3668 43.6207 31.2321 43.7554C31.0975 43.89 30.9148 43.9657 30.7244 43.9657C30.534 43.9657 30.3514 43.89 30.2167 43.7554C30.0821 43.6207 30.0064 43.4381 30.0064 43.2477V16.0579C30.0064 13.2978 27.7609 11.0522 25.0004 11.0522H5.39923L5.39647 42.5291Z" fill="white"/>
<path d="M30.7229 48.1643C30.5325 48.1643 30.3499 48.0886 30.2152 47.954C30.0806 47.8193 30.0049 47.6367 30.0049 47.4463V42.4655C30.0049 42.2751 30.0806 42.0924 30.2152 41.9578C30.3499 41.8231 30.5325 41.7475 30.7229 41.7475C30.9133 41.7475 31.096 41.8231 31.2306 41.9578C31.3653 42.0924 31.4409 42.2751 31.4409 42.4655V47.4463C31.4409 47.5406 31.4223 47.6339 31.3862 47.7211C31.3502 47.8082 31.2973 47.8873 31.2306 47.954C31.1639 48.0207 31.0848 48.0735 30.9977 48.1096C30.9106 48.1457 30.8172 48.1643 30.7229 48.1643Z" fill="white"/>
<path d="M30.792 15.8871H30.6541C30.5586 15.8891 30.4636 15.872 30.3748 15.8368C30.286 15.8016 30.2051 15.749 30.1368 15.6822C30.0686 15.6153 30.0143 15.5355 29.9773 15.4475C29.9403 15.3594 29.9212 15.2648 29.9212 15.1693C29.9212 15.0737 29.9403 14.9792 29.9773 14.8911C30.0143 14.803 30.0686 14.7232 30.1368 14.6564C30.2051 14.5895 30.286 14.5369 30.3748 14.5017C30.4636 14.4666 30.5586 14.4495 30.6541 14.4514H30.792C30.9798 14.4553 31.1586 14.5327 31.2901 14.6669C31.4215 14.8011 31.4952 14.9814 31.4952 15.1693C31.4952 15.3571 31.4215 15.5375 31.2901 15.6717C31.1586 15.8059 30.9798 15.8832 30.792 15.8871Z" fill="white"/>
<path d="M30.7229 48.1643C30.6148 48.1642 30.5081 48.1398 30.4107 48.0928C30.3134 48.0458 30.2279 47.9774 30.1607 47.8927L28.281 45.5243C27.8961 45.0367 27.4055 44.643 26.8462 44.3728C26.2869 44.1026 25.6735 43.9629 25.0524 43.9645H4.67847C4.48807 43.9644 4.3055 43.8887 4.17087 43.7541C4.03623 43.6194 3.96056 43.4369 3.96048 43.2465V10.3343C3.96048 10.1438 4.03613 9.9612 4.17078 9.82655C4.30543 9.6919 4.48805 9.61626 4.67847 9.61626H24.9989C27.4875 9.61626 29.6503 11.0341 30.7229 13.1042C31.7954 11.0341 33.9586 9.61626 36.4466 9.61626H56.7673C56.9577 9.61626 57.1403 9.6919 57.275 9.82655C57.4096 9.9612 57.4853 10.1438 57.4853 10.3343V43.2471C57.4852 43.4375 57.4095 43.62 57.2749 43.7547C57.1403 43.8893 56.9577 43.965 56.7673 43.9651H36.3934C35.7723 43.9635 35.159 44.103 34.5996 44.3731C34.0403 44.6432 33.5497 45.0368 33.1647 45.5243L31.2851 47.8927C31.2179 47.9774 31.1324 48.0458 31.0351 48.0928C30.9377 48.1398 30.831 48.1642 30.7229 48.1643ZM5.39647 42.5291H25.0524C25.8898 42.5269 26.7168 42.7151 27.4709 43.0794C28.2251 43.4436 28.8866 43.9744 29.4055 44.6318L30.7229 46.2908L32.0403 44.6318C32.5592 43.9744 33.2207 43.4436 33.9748 43.0794C34.7289 42.7151 35.5559 42.5269 36.3934 42.5291H56.0493V11.0522H36.4481C33.688 11.0522 31.4424 13.2978 31.4424 16.0579V43.2477C31.4424 43.4381 31.3668 43.6207 31.2321 43.7554C31.0975 43.89 30.9148 43.9657 30.7244 43.9657C30.534 43.9657 30.3514 43.89 30.2167 43.7554C30.0821 43.6207 30.0064 43.4381 30.0064 43.2477V16.0579C30.0064 13.2978 27.7609 11.0522 25.0004 11.0522H5.39923L5.39647 42.5291Z" fill="white"/>
<path d="M30.7229 48.1643C30.5325 48.1643 30.3499 48.0886 30.2152 47.954C30.0806 47.8193 30.0049 47.6367 30.0049 47.4463V42.4655C30.0049 42.2751 30.0806 42.0924 30.2152 41.9578C30.3499 41.8231 30.5325 41.7475 30.7229 41.7475C30.9133 41.7475 31.096 41.8231 31.2306 41.9578C31.3653 42.0924 31.4409 42.2751 31.4409 42.4655V47.4463C31.4409 47.5406 31.4223 47.6339 31.3862 47.7211C31.3502 47.8082 31.2973 47.8873 31.2306 47.954C31.1639 48.0207 31.0848 48.0735 30.9977 48.1096C30.9106 48.1457 30.8172 48.1643 30.7229 48.1643Z" fill="white"/>
<path d="M25.3532 16.4825H10.1174C9.92695 16.4825 9.74433 16.4069 9.60968 16.2722C9.47503 16.1376 9.39938 15.955 9.39938 15.7645C9.39938 15.5741 9.47503 15.3915 9.60968 15.2568C9.74433 15.1222 9.92695 15.0465 10.1174 15.0465H25.3532C25.5436 15.0465 25.7262 15.1222 25.8609 15.2568C25.9955 15.3915 26.0712 15.5741 26.0712 15.7645C26.0712 15.955 25.9955 16.1376 25.8609 16.2722C25.7262 16.4069 25.5436 16.4825 25.3532 16.4825Z" fill="white"/>
<path d="M25.3532 20.8916H10.1174C10.0218 20.8935 9.9269 20.8764 9.83808 20.8412C9.74925 20.8061 9.66835 20.7535 9.6001 20.6867C9.53184 20.6198 9.47762 20.54 9.44061 20.4519C9.40359 20.3638 9.38452 20.2693 9.38452 20.1737C9.38452 20.0782 9.40359 19.9836 9.44061 19.8955C9.47762 19.8075 9.53184 19.7277 9.6001 19.6608C9.66835 19.594 9.74925 19.5414 9.83808 19.5062C9.9269 19.471 10.0218 19.4539 10.1174 19.4559H25.3532C25.4487 19.4539 25.5436 19.471 25.6324 19.5062C25.7213 19.5414 25.8022 19.594 25.8704 19.6608C25.9387 19.7277 25.9929 19.8075 26.0299 19.8955C26.0669 19.9836 26.086 20.0782 26.086 20.1737C26.086 20.2693 26.0669 20.3638 26.0299 20.4519C25.9929 20.54 25.9387 20.6198 25.8704 20.6867C25.8022 20.7535 25.7213 20.8061 25.6324 20.8412C25.5436 20.8764 25.4487 20.8935 25.3532 20.8916Z" fill="white"/>
<path d="M25.3532 25.3034H10.1174C9.92695 25.3034 9.74433 25.2277 9.60968 25.0931C9.47503 24.9584 9.39938 24.7758 9.39938 24.5854C9.39938 24.395 9.47503 24.2123 9.60968 24.0777C9.74433 23.943 9.92695 23.8674 10.1174 23.8674H25.3532C25.5436 23.8674 25.7262 23.943 25.8609 24.0777C25.9955 24.2123 26.0712 24.395 26.0712 24.5854C26.0712 24.7758 25.9955 24.9584 25.8609 25.0931C25.7262 25.2277 25.5436 25.3034 25.3532 25.3034Z" fill="white"/>
<path d="M25.3532 29.7137H10.1174C10.0218 29.7156 9.9269 29.6985 9.83808 29.6633C9.74925 29.6281 9.66835 29.5756 9.6001 29.5087C9.53184 29.4419 9.47762 29.3621 9.44061 29.274C9.40359 29.1859 9.38452 29.0913 9.38452 28.9958C9.38452 28.9003 9.40359 28.8057 9.44061 28.7176C9.47762 28.6295 9.53184 28.5497 9.6001 28.4829C9.66835 28.416 9.74925 28.3635 9.83808 28.3283C9.9269 28.2931 10.0218 28.276 10.1174 28.278H25.3532C25.4487 28.276 25.5436 28.2931 25.6324 28.3283C25.7213 28.3635 25.8022 28.416 25.8704 28.4829C25.9387 28.5497 25.9929 28.6295 26.0299 28.7176C26.0669 28.8057 26.086 28.9003 26.086 28.9958C26.086 29.0913 26.0669 29.1859 26.0299 29.274C25.9929 29.3621 25.9387 29.4419 25.8704 29.5087C25.8022 29.5756 25.7213 29.6281 25.6324 29.6633C25.5436 29.6985 25.4487 29.7156 25.3532 29.7137Z" fill="white"/>
<path d="M25.3532 34.1242H10.1174C9.92695 34.1242 9.74433 34.0486 9.60968 33.9139C9.47503 33.7793 9.39938 33.5967 9.39938 33.4062C9.39938 33.2158 9.47503 33.0332 9.60968 32.8985C9.74433 32.7639 9.92695 32.6882 10.1174 32.6882H25.3532C25.5436 32.6882 25.7262 32.7639 25.8609 32.8985C25.9955 33.0332 26.0712 33.2158 26.0712 33.4062C26.0712 33.5967 25.9955 33.7793 25.8609 33.9139C25.7262 34.0486 25.5436 34.1242 25.3532 34.1242Z" fill="white"/>
<path d="M25.3532 38.5348H10.1174C9.92695 38.5348 9.74433 38.4592 9.60968 38.3245C9.47503 38.1899 9.39938 38.0072 9.39938 37.8168C9.39938 37.6264 9.47503 37.4438 9.60968 37.3091C9.74433 37.1745 9.92695 37.0988 10.1174 37.0988H25.3532C25.5436 37.0988 25.7262 37.1745 25.8609 37.3091C25.9955 37.4438 26.0712 37.6264 26.0712 37.8168C26.0712 38.0072 25.9955 38.1899 25.8609 38.3245C25.7262 38.4592 25.5436 38.5348 25.3532 38.5348Z" fill="white"/>
</g>
<defs>
<clipPath id="clip0_3_192">
<rect width="61.4458" height="61.4458" fill="white"/>
</clipPath>
</defs>
</svg>
