<svg width="15" height="16" viewBox="0 0 15 16" fill="none" xmlns="http://www.w3.org/2000/svg">
<path d="M1.20831 5.59375C1.20831 3.32512 1.20831 2.1908 1.91309 1.48602C2.61786 0.78125 3.75218 0.78125 6.02081 0.78125H9.22915C11.4978 0.78125 12.6321 0.78125 13.3369 1.48602C14.0416 2.1908 14.0416 3.32512 14.0416 5.59375V11.0701C14.0416 13.2223 14.0416 14.2984 13.3645 14.6275C12.6873 14.9567 11.8411 14.2918 10.1488 12.9621L9.60716 12.5366C8.65559 11.7889 8.1798 11.4151 7.62498 11.4151C7.07016 11.4151 6.59437 11.7889 5.6428 12.5366L5.10119 12.9621C3.40887 14.2918 2.5627 14.9567 1.88551 14.6275C1.20831 14.2984 1.20831 13.2223 1.20831 11.0701V5.59375Z" fill="#F3F3F3" fill-opacity="0.4" stroke="#F3F3F3" stroke-width="1.3125"/>
</svg>
