<svg width="16" height="17" viewBox="0 0 16 17" fill="none" xmlns="http://www.w3.org/2000/svg">
<path d="M1.33334 6.5C1.33334 4.14298 1.33334 2.96447 2.06558 2.23223C2.79781 1.5 3.97632 1.5 6.33334 1.5H9.66668C12.0237 1.5 13.2022 1.5 13.9344 2.23223C14.6667 2.96447 14.6667 4.14298 14.6667 6.5V12.1897C14.6667 14.4257 14.6667 15.5438 13.9631 15.8857C13.2595 16.2277 12.3804 15.537 10.6221 14.1555L10.0594 13.7133C9.07077 12.9365 8.57645 12.5482 8.00001 12.5482C7.42357 12.5482 6.92925 12.9365 5.9406 13.7133L5.3779 14.1555C3.61963 15.537 2.7405 16.2277 2.03692 15.8857C1.33334 15.5438 1.33334 14.4257 1.33334 12.1897V6.5Z" stroke="#DCDCDC" stroke-opacity="0.73" stroke-width="2"/>
</svg>
