<svg width="22" height="22" viewBox="0 0 22 22" fill="none" xmlns="http://www.w3.org/2000/svg">
<path d="M18.071 2.51485C18.071 2.51454 18.0714 2.51438 18.0716 2.5146L19.0711 3.51481C19.2997 3.74358 19.2996 4.11435 19.071 4.34305L18.071 5.343C17.6805 5.73347 17.0475 5.73347 16.657 5.343C16.2665 4.95253 16.2665 4.31947 16.657 3.929L18.0709 2.5151C18.071 2.51504 18.071 2.51495 18.071 2.51485Z" fill="#FFF"/>
<path d="M21 10C21.5523 10 22 10.4477 22 11C22 11.5523 21.5523 12 21 12H20C19.4477 12 19 11.5523 19 11C19 10.4477 19.4477 10 20 10H21Z" fill="#FFF"/>
<path fill-rule="evenodd" clip-rule="evenodd" d="M6.75736 15.2426C7.88258 16.3679 9.4087 17 11 17C12.5913 17 14.1174 16.3679 15.2426 15.2426C16.3679 14.1174 17 12.5913 17 11C17 9.4087 16.3679 7.88258 15.2426 6.75736C14.1174 5.63214 12.5913 5 11 5C9.4087 5 7.88258 5.63214 6.75736 6.75736C5.63214 7.88258 5 9.4087 5 11C5 12.5913 5.63214 14.1174 6.75736 15.2426ZM11 22C11.5523 22 12 21.5523 12 21V20C12 19.4477 11.5523 19 11 19C10.4477 19 10 19.4477 10 20V21C10 21.5523 10.4477 22 11 22ZM4.636 3.222C4.24553 2.83153 3.61247 2.83153 3.222 3.222C2.83153 3.61247 2.83153 4.24553 3.222 4.636L3.929 5.343C4.31947 5.73347 4.95253 5.73347 5.343 5.343C5.73347 4.95253 5.73347 4.31947 5.343 3.929L4.636 3.222ZM18.071 16.657C17.6805 16.2665 17.0475 16.2665 16.657 16.657C16.2665 17.0475 16.2665 17.6805 16.657 18.071L17.364 18.778C17.7545 19.1685 18.3875 19.1685 18.778 18.778C19.1685 18.3875 19.1685 17.7545 18.778 17.364L18.071 16.657ZM5.343 18.071C5.73347 17.6805 5.73347 17.0475 5.343 16.657C4.95253 16.2665 4.31946 16.2665 3.929 16.657L3.222 17.364C2.83153 17.7545 2.83153 18.3875 3.222 18.778C3.61246 19.1685 4.24553 19.1685 4.636 18.778L5.343 18.071ZM2 12C2.55228 12 3 11.5523 3 11C3 10.4477 2.55228 10 2 10H1C0.447715 10 0 10.4477 0 11C0 11.5523 0.447715 12 1 12H2Z" fill="#FFF"/>
<path d="M10 1C10 0.447715 10.4477 0 11 0C11.5523 0 12 0.447715 12 1V2C12 2.55228 11.5523 3 11 3C10.4477 3 10 2.55228 10 2V1Z" fill="#FFF"/>
</svg>
