<svg width="41" height="50" viewBox="0 0 41 50" fill="none" xmlns="http://www.w3.org/2000/svg">
<path d="M12.0469 46.4337C10.5066 46.0079 9.1079 45.3427 7.85088 44.4379C6.59385 43.5332 5.48732 42.46 4.53127 41.2182C3.0972 39.3378 1.99951 36.9784 1.23821 34.14C0.476917 31.284 0.0697118 28.9068 0.0165981 27.0087C-0.0719249 24.5606 0.193644 21.9085 0.813305 19.0524C1.45067 16.1963 2.42442 13.7837 3.73456 11.8146C4.86766 10.1471 6.32828 8.65697 8.11645 7.34423C9.92232 6.0315 11.8875 5.2953 14.0121 5.13564C14.1006 4.74537 14.2953 4.3551 14.5963 3.96482C14.8973 3.55681 15.2957 3.25523 15.7914 3.0601C16.0038 2.95366 16.2694 2.87383 16.5881 2.82061C16.9245 2.74965 17.3228 2.76739 17.7832 2.87383C17.7123 1.95137 17.9779 1.24178 18.5799 0.745067C19.1818 0.248356 19.828 0 20.5185 0C21.1559 0 21.7755 0.248356 22.3775 0.745067C22.9794 1.24178 23.2539 1.95137 23.2008 2.87383C23.6434 2.76739 24.024 2.74965 24.3427 2.82061C24.6791 2.87383 24.9712 2.95366 25.2191 3.0601C25.6971 3.25523 26.0866 3.55681 26.3876 3.96482C26.6886 4.3551 26.8745 4.74537 26.9453 5.13564C29.0698 5.2953 31.0262 6.0315 32.8144 7.34423C34.6202 8.65697 36.0985 10.1471 37.2493 11.8146C38.5418 13.7837 39.4978 16.1963 40.1175 19.0524C40.7549 21.9085 41.047 24.5606 40.9939 27.0087C40.9231 28.9068 40.4981 31.284 39.7191 34.14C38.9578 36.9784 37.869 39.3378 36.4526 41.2182C35.5143 42.46 34.4078 43.5332 33.133 44.4379C31.8583 45.3427 30.4508 46.0079 28.9105 46.4337C27.9367 47.4803 26.6709 48.3318 25.1129 48.9882C23.5371 49.68 22.0057 50.0171 20.5185 49.9993C19.0313 50.0171 17.4822 49.68 15.8711 48.9882C14.3131 48.3318 13.0383 47.4803 12.0469 46.4337ZM18.6861 2.71417C18.6861 3.17541 18.81 3.64551 19.0579 4.12448C19.3057 4.58571 19.4297 4.83407 19.4297 4.86955C18.2612 3.75195 17.1812 3.41489 16.1897 3.85838C15.5878 4.10674 15.1894 4.53249 14.9947 5.13564C15.9153 5.18886 16.8183 5.39287 17.7035 5.74766C18.6064 6.08472 19.3146 6.65239 19.828 7.45067C20.2352 8.10704 20.4388 8.86098 20.4388 9.71248C20.4211 10.6527 20.1113 11.5219 19.5093 12.3202C18.9251 13.1185 18.0576 13.5176 16.9068 13.5176C16.1986 13.5176 15.5789 13.3136 15.0478 12.9056C14.5344 12.4976 14.2688 11.9033 14.2511 11.1228C14.2157 10.2713 14.5786 9.59718 15.3399 9.10046C14.0121 8.71019 12.5426 8.98516 10.9315 9.92536C11.5688 9.99632 12.1265 10.2181 12.6046 10.5906C13.5252 11.2292 13.8881 12.1428 13.6934 13.3314C12.3833 13.491 11.0466 13.8192 9.6833 14.3159C8.32005 14.8126 7.06302 15.4601 5.91223 16.2584C4.6552 17.1986 3.62833 18.4404 2.83163 19.9838C2.03492 21.5094 1.53919 23.1503 1.34444 24.9065C1.20281 26.6628 1.37985 28.3569 1.87558 29.989C2.37131 31.621 3.19457 33.0313 4.34537 34.2199C5.6024 35.4084 7.02761 36.3752 8.62103 37.1203C10.2321 37.8476 11.9229 38.3 13.6934 38.4774C13.7996 39.4176 13.6137 40.2159 13.1357 40.8723C12.5869 41.5286 11.8521 41.8657 10.9315 41.8834C12.5426 42.8768 14.0121 43.1696 15.3399 42.7615C14.8973 42.5487 14.5875 42.185 14.4104 41.6705C14.1803 41.1561 14.1803 40.6062 14.4104 40.0208C14.8707 38.9209 15.7117 38.371 16.9333 38.371C18.2612 38.371 19.2703 38.9475 19.9608 40.1006C20.3503 40.7747 20.5008 41.5109 20.4123 42.3092C20.3238 43.1252 20.1025 43.8348 19.7484 44.4379C19.1995 45.3781 18.3054 46.0434 17.0661 46.4337C16.0215 46.6998 14.8973 46.7796 13.6934 46.6731C14.6317 47.4359 15.7029 48.0302 16.9068 48.456C18.1815 48.864 19.3854 49.068 20.5185 49.068C21.5985 49.068 22.7847 48.864 24.0771 48.456C25.2988 48.0125 26.361 47.4182 27.264 46.6731C26.06 46.7796 24.9535 46.6998 23.9443 46.4337C22.6873 46.0434 21.7755 45.3781 21.209 44.4379C20.8549 43.8348 20.6336 43.1252 20.5451 42.3092C20.4565 41.5109 20.607 40.7747 20.9965 40.1006C21.687 38.9475 22.6962 38.371 24.024 38.371C25.2456 38.371 26.0866 38.9209 26.5469 40.0208C26.7771 40.6239 26.7771 41.1738 26.5469 41.6705C26.3876 42.185 26.0866 42.5487 25.644 42.7615C26.9541 43.1696 28.4325 42.8768 30.079 41.8834C29.1229 41.8657 28.3793 41.5286 27.8482 40.8723C27.4056 40.2159 27.2197 39.4176 27.2905 38.4774C29.061 38.3 30.7429 37.8476 32.3363 37.1203C33.9474 36.393 35.3815 35.4262 36.6385 34.2199C37.7716 33.0313 38.586 31.621 39.0818 29.989C39.5952 28.3569 39.7723 26.6628 39.6129 24.9065C39.4359 23.1503 38.949 21.5094 38.1523 19.9838C37.3556 18.4404 36.3287 17.1986 35.0717 16.2584C33.9209 15.4601 32.655 14.8126 31.274 14.3159C29.9108 13.8192 28.583 13.491 27.2905 13.3314C27.0958 12.1428 27.4587 11.2292 28.3793 10.5906C28.8397 10.2181 29.4062 9.99632 30.079 9.92536C28.4325 8.98516 26.9541 8.71019 25.644 9.10046C26.3876 9.61492 26.7505 10.289 26.7328 11.1228C26.6974 11.9033 26.4141 12.4976 25.883 12.9056C25.3696 13.3136 24.7676 13.5176 24.0771 13.5176C22.9263 13.5176 22.05 13.1185 21.448 12.3202C20.846 11.5219 20.5451 10.6527 20.5451 9.71248C20.5451 8.86098 20.7487 8.10704 21.1559 7.45067C21.6693 6.65239 22.3686 6.08472 23.2539 5.74766C24.1391 5.39287 25.042 5.18886 25.9627 5.13564C25.7856 4.55023 25.3961 4.12448 24.7942 3.85838C23.8027 3.41489 22.7404 3.75195 21.6073 4.86955C21.6073 4.83407 21.7136 4.58571 21.926 4.12448C22.1562 3.64551 22.2713 3.17541 22.2713 2.71417C22.2713 2.12876 22.0765 1.6764 21.687 1.35709C21.3152 1.03777 20.9257 0.878115 20.5185 0.878115C20.0582 0.878115 19.6333 1.03777 19.2438 1.35709C18.872 1.6764 18.6861 2.12876 18.6861 2.71417ZM22.0854 43.9324C22.9529 45.2628 24.4401 45.9103 26.5469 45.8749C28.0872 45.8394 29.5124 45.4846 30.8226 44.8105C32.1504 44.1364 33.3189 43.276 34.3281 42.2293C35.8153 40.7392 37.0103 38.9386 37.9133 36.8276C38.8162 34.6988 39.4447 32.6144 39.7988 30.5744C39.3385 31.7097 38.7011 32.8362 37.8867 33.9538C37.0723 35.0536 36.1694 35.9495 35.1779 36.6413C34.1687 37.2977 33.0622 37.8565 31.8583 38.3177C30.6721 38.7967 29.4416 39.116 28.1669 39.2757C28.2731 40.2159 28.822 40.8013 29.8134 41.0319C30.6455 41.1738 31.4157 41.0319 32.1239 40.6062C32.8498 40.1982 33.2127 39.9941 33.2127 39.9941C32.9648 40.5973 32.6107 41.094 32.1504 41.4843C31.6901 41.8923 31.3095 42.1939 31.0085 42.389C29.9816 43.0454 28.9016 43.4623 27.7685 43.6397C26.6532 43.8348 25.6617 43.755 24.7942 43.4002C24.1568 43.1341 23.8381 42.6906 23.8381 42.0697C24.4401 42.3358 24.9801 42.2027 25.4581 41.6705C25.883 41.298 25.9538 40.8368 25.6705 40.2868C25.4581 39.8966 25.1837 39.6305 24.8473 39.4886C24.5286 39.3644 24.2542 39.3023 24.024 39.3023C23.0326 39.3023 22.2978 39.7281 21.8198 40.5796C21.1647 41.6794 21.2533 42.797 22.0854 43.9324ZM26.5469 6.04037C24.5109 6.00489 23.0237 6.62578 22.0854 7.90304C21.6428 8.48845 21.4126 9.08272 21.3949 9.68587C21.3949 10.289 21.5365 10.8212 21.8198 11.2824C22.2801 12.1162 23.0237 12.5331 24.0506 12.5331C24.6879 12.5331 25.2014 12.267 25.5909 11.7348C25.9981 11.1849 25.9627 10.6616 25.4846 10.1648C25.2191 9.84553 24.9093 9.69474 24.5552 9.71248C24.2188 9.71248 23.9798 9.73909 23.8381 9.79231C23.8381 9.2069 24.1568 8.76341 24.7942 8.46183C25.6794 8.0893 26.6797 8.0006 27.7951 8.19574C28.9105 8.39088 29.9816 8.8255 31.0085 9.49961C31.3095 9.69474 31.6901 9.99632 32.1504 10.4043C32.6107 10.8123 32.9648 11.3002 33.2127 11.8679C32.717 11.4953 32.0796 11.2115 31.3006 11.0164C30.5393 10.8035 29.8577 10.8212 29.2557 11.0696C28.6715 11.3711 28.3085 11.8945 28.1669 12.6395C29.477 12.7815 30.7606 13.1096 32.0176 13.6241C33.2747 14.1208 34.4078 14.7328 35.4169 15.4601C36.3907 16.1343 37.2582 17.0212 38.0195 18.1211C38.7808 19.221 39.3739 20.3208 39.7988 21.4207C39.4978 19.5935 38.949 17.6865 38.1523 15.6996C37.3733 13.695 36.3641 11.9477 35.1248 10.4576C34.0094 9.21577 32.7258 8.178 31.274 7.34423C29.8223 6.51047 28.2466 6.07585 26.5469 6.04037ZM18.8985 43.9324C19.713 42.7793 19.7926 41.6617 19.1376 40.5796C18.6772 39.7281 17.9425 39.3023 16.9333 39.3023C16.7209 39.3023 16.4465 39.3644 16.1101 39.4886C15.7737 39.6305 15.4993 39.8966 15.2868 40.2868C15.0566 40.8368 15.1363 41.298 15.5258 41.6705C16.0215 42.2027 16.5792 42.3358 17.1989 42.0697C17.1812 42.6906 16.8448 43.1341 16.1897 43.4002C15.3045 43.755 14.2953 43.8348 13.1623 43.6397C12.0469 43.4623 10.9757 43.0454 9.94887 42.389C9.64789 42.1939 9.26725 41.8923 8.80693 41.4843C8.36431 41.094 8.01907 40.5973 7.77121 39.9941C7.77121 39.9941 8.1253 40.1982 8.83348 40.6062C9.54167 41.0319 10.3118 41.1738 11.1439 41.0319C12.1354 40.8013 12.7019 40.2159 12.8436 39.2757C11.5334 39.116 10.2853 38.7967 9.09905 38.3177C7.91284 37.8565 6.80631 37.2977 5.77944 36.6413C4.78798 35.9495 3.88505 35.0536 3.07064 33.9538C2.27393 32.8362 1.64542 31.7097 1.1851 30.5744C1.52149 32.6144 2.14115 34.6988 3.04408 36.8276C3.96472 38.9386 5.16863 40.7392 6.65582 42.2293C7.66498 43.276 8.82463 44.1364 10.1348 44.8105C11.4626 45.4846 12.8878 45.8394 14.4104 45.8749C16.4996 45.9103 17.9956 45.2628 18.8985 43.9324ZM14.4104 6.04037C12.7108 6.07585 11.1351 6.51047 9.6833 7.34423C8.23153 8.178 6.9568 9.21577 5.85911 10.4576C4.61979 11.9477 3.60178 13.695 2.80507 15.6996C2.00836 17.6865 1.45952 19.5935 1.15854 21.4207C1.58345 20.3208 2.17656 19.221 2.93786 18.1211C3.69915 17.0212 4.57553 16.1343 5.56699 15.4601C6.55844 14.7328 7.68268 14.1208 8.93971 13.6241C10.1967 13.1096 11.498 12.7815 12.8436 12.6395C12.6665 11.8945 12.2859 11.3711 11.7016 11.0696C11.1174 10.8212 10.4357 10.8035 9.65675 11.0164C8.87774 11.2115 8.24923 11.4953 7.77121 11.8679C8.01907 11.3002 8.36431 10.8123 8.80693 10.4043C9.26725 9.99632 9.64789 9.69474 9.94887 9.49961C10.9757 8.8255 12.0469 8.39088 13.1623 8.19574C14.2953 8.0006 15.3045 8.0893 16.1897 8.46183C16.8448 8.76341 17.1812 9.2069 17.1989 9.79231C16.9864 9.68587 16.7032 9.65039 16.3491 9.68587C15.995 9.72135 15.7117 9.88101 15.4993 10.1648C15.0212 10.6616 14.977 11.1849 15.3665 11.7348C15.756 12.267 16.2783 12.5331 16.9333 12.5331C17.9602 12.5331 18.6949 12.1162 19.1376 11.2824C19.4385 10.8212 19.5802 10.289 19.5625 9.68587C19.5448 9.08272 19.3235 8.48845 18.8985 7.90304C17.9425 6.62578 16.4465 6.00489 14.4104 6.04037Z" fill="#2877EE"/>
</svg>
